<mxfile host="app.diagrams.net" modified="2023-04-09T19:42:31.529Z" agent="Mozilla/5.0 (Windows NT 10.0; Win64; x64) AppleWebKit/537.36 (KHTML, like Gecko) Chrome/110.0.0.0 YaBrowser/23.3.1.806 Yowser/2.5 Safari/537.36" etag="gf0NqBpwuPSmgycEQyOt" version="21.1.5" type="device">
  <diagram id="p7qph6QSjdNI-vuLq8Ve" name="Page-1">
    <mxGraphModel dx="2049" dy="1119" grid="1" gridSize="10" guides="1" tooltips="1" connect="1" arrows="1" fold="1" page="1" pageScale="1" pageWidth="827" pageHeight="1169" math="0" shadow="0">
      <root>
        <mxCell id="0" />
        <mxCell id="1" parent="0" />
        <mxCell id="nz2u2A2zoCWVpAabtMoS-8" style="edgeStyle=orthogonalEdgeStyle;rounded=0;orthogonalLoop=1;jettySize=auto;html=1;entryX=0.5;entryY=0;entryDx=0;entryDy=0;" edge="1" parent="1" source="jG0Ftq3SYFGcGHYT_TwJ-9" target="McDT12pASXivX-Q5aD7w-37">
          <mxGeometry relative="1" as="geometry" />
        </mxCell>
        <mxCell id="nz2u2A2zoCWVpAabtMoS-9" value="Нажата кнопка выборной операции" style="edgeLabel;html=1;align=center;verticalAlign=middle;resizable=0;points=[];" vertex="1" connectable="0" parent="nz2u2A2zoCWVpAabtMoS-8">
          <mxGeometry x="-0.1415" y="-4" relative="1" as="geometry">
            <mxPoint as="offset" />
          </mxGeometry>
        </mxCell>
        <mxCell id="jG0Ftq3SYFGcGHYT_TwJ-9" value="" style="rounded=1;whiteSpace=wrap;html=1;" parent="1" vertex="1">
          <mxGeometry x="270" y="430" width="260" height="270" as="geometry" />
        </mxCell>
        <mxCell id="McDT12pASXivX-Q5aD7w-1" value="" style="ellipse;html=1;shape=startState;fillColor=#000000;strokeColor=#ff0000;" parent="1" vertex="1">
          <mxGeometry x="380" y="10" width="30" height="30" as="geometry" />
        </mxCell>
        <mxCell id="McDT12pASXivX-Q5aD7w-2" value="" style="edgeStyle=orthogonalEdgeStyle;html=1;verticalAlign=bottom;endArrow=open;endSize=8;strokeColor=#ff0000;rounded=0;entryX=0.5;entryY=0;entryDx=0;entryDy=0;" parent="1" source="McDT12pASXivX-Q5aD7w-1" target="jG0Ftq3SYFGcGHYT_TwJ-7" edge="1">
          <mxGeometry relative="1" as="geometry">
            <mxPoint x="395" y="80" as="targetPoint" />
          </mxGeometry>
        </mxCell>
        <mxCell id="jG0Ftq3SYFGcGHYT_TwJ-13" value="" style="edgeStyle=orthogonalEdgeStyle;rounded=0;orthogonalLoop=1;jettySize=auto;html=1;" parent="1" source="McDT12pASXivX-Q5aD7w-4" target="McDT12pASXivX-Q5aD7w-5" edge="1">
          <mxGeometry relative="1" as="geometry" />
        </mxCell>
        <mxCell id="McDT12pASXivX-Q5aD7w-4" value="" style="rounded=1;whiteSpace=wrap;html=1;" parent="1" vertex="1">
          <mxGeometry x="285" y="94.25" width="220" height="220" as="geometry" />
        </mxCell>
        <mxCell id="jG0Ftq3SYFGcGHYT_TwJ-14" value="" style="edgeStyle=orthogonalEdgeStyle;rounded=0;orthogonalLoop=1;jettySize=auto;html=1;" parent="1" source="McDT12pASXivX-Q5aD7w-5" target="jG0Ftq3SYFGcGHYT_TwJ-8" edge="1">
          <mxGeometry relative="1" as="geometry" />
        </mxCell>
        <mxCell id="McDT12pASXivX-Q5aD7w-5" value="Выбор меню" style="shape=step;perimeter=stepPerimeter;whiteSpace=wrap;html=1;fixedSize=1;" parent="1" vertex="1">
          <mxGeometry x="335" y="350" width="120" height="40" as="geometry" />
        </mxCell>
        <mxCell id="McDT12pASXivX-Q5aD7w-28" value="" style="endArrow=classic;html=1;rounded=0;exitX=0;exitY=0.5;exitDx=0;exitDy=0;endFill=1;" parent="1" source="McDT12pASXivX-Q5aD7w-37" edge="1">
          <mxGeometry width="50" height="50" relative="1" as="geometry">
            <mxPoint x="211.5" y="832" as="sourcePoint" />
            <mxPoint x="270" y="617" as="targetPoint" />
            <Array as="points">
              <mxPoint x="212" y="863" />
              <mxPoint x="212" y="617" />
            </Array>
          </mxGeometry>
        </mxCell>
        <mxCell id="McDT12pASXivX-Q5aD7w-29" value="Введены некорректно &lt;br&gt;или не выбраны&lt;br&gt;данные" style="edgeLabel;html=1;align=center;verticalAlign=middle;resizable=0;points=[];" parent="McDT12pASXivX-Q5aD7w-28" vertex="1" connectable="0">
          <mxGeometry x="-0.0088" y="-1" relative="1" as="geometry">
            <mxPoint x="-1" y="-27" as="offset" />
          </mxGeometry>
        </mxCell>
        <mxCell id="McDT12pASXivX-Q5aD7w-37" value="" style="rhombus;whiteSpace=wrap;html=1;" parent="1" vertex="1">
          <mxGeometry x="360" y="840" width="80" height="45" as="geometry" />
        </mxCell>
        <mxCell id="McDT12pASXivX-Q5aD7w-43" value="" style="endArrow=classic;html=1;rounded=0;startArrow=none;startFill=0;endFill=1;entryX=1.008;entryY=0.141;entryDx=0;entryDy=0;entryPerimeter=0;exitX=0.996;exitY=0.374;exitDx=0;exitDy=0;exitPerimeter=0;" parent="1" source="jG0Ftq3SYFGcGHYT_TwJ-9" target="jG0Ftq3SYFGcGHYT_TwJ-9" edge="1">
          <mxGeometry width="50" height="50" relative="1" as="geometry">
            <mxPoint x="530" y="550" as="sourcePoint" />
            <mxPoint x="540" y="610" as="targetPoint" />
            <Array as="points">
              <mxPoint x="560" y="530" />
              <mxPoint x="590" y="530" />
              <mxPoint x="590" y="468" />
            </Array>
          </mxGeometry>
        </mxCell>
        <mxCell id="McDT12pASXivX-Q5aD7w-45" value="В вести данные" style="edgeLabel;html=1;align=center;verticalAlign=middle;resizable=0;points=[];" parent="McDT12pASXivX-Q5aD7w-43" vertex="1" connectable="0">
          <mxGeometry x="0.1754" relative="1" as="geometry">
            <mxPoint as="offset" />
          </mxGeometry>
        </mxCell>
        <mxCell id="McDT12pASXivX-Q5aD7w-47" value="" style="endArrow=classic;html=1;rounded=0;exitX=0.5;exitY=1;exitDx=0;exitDy=0;" parent="1" source="McDT12pASXivX-Q5aD7w-37" edge="1">
          <mxGeometry width="50" height="50" relative="1" as="geometry">
            <mxPoint x="502" y="1032" as="sourcePoint" />
            <mxPoint x="400" y="1000" as="targetPoint" />
          </mxGeometry>
        </mxCell>
        <mxCell id="nz2u2A2zoCWVpAabtMoS-14" style="edgeStyle=orthogonalEdgeStyle;rounded=0;orthogonalLoop=1;jettySize=auto;html=1;entryX=0.004;entryY=0.57;entryDx=0;entryDy=0;entryPerimeter=0;" edge="1" parent="1" source="McDT12pASXivX-Q5aD7w-49" target="jG0Ftq3SYFGcGHYT_TwJ-9">
          <mxGeometry relative="1" as="geometry">
            <Array as="points">
              <mxPoint x="150" y="1000" />
              <mxPoint x="150" y="584" />
            </Array>
          </mxGeometry>
        </mxCell>
        <mxCell id="McDT12pASXivX-Q5aD7w-49" value="Обновление записей в базе данных" style="rounded=1;whiteSpace=wrap;html=1;" parent="1" vertex="1">
          <mxGeometry x="340" y="970" width="120" height="60" as="geometry" />
        </mxCell>
        <mxCell id="McDT12pASXivX-Q5aD7w-58" value="ж" style="edgeStyle=orthogonalEdgeStyle;rounded=0;orthogonalLoop=1;jettySize=auto;html=1;startArrow=none;startFill=0;endArrow=classic;endFill=1;" parent="1" source="McDT12pASXivX-Q5aD7w-53" target="McDT12pASXivX-Q5aD7w-57" edge="1">
          <mxGeometry relative="1" as="geometry" />
        </mxCell>
        <mxCell id="McDT12pASXivX-Q5aD7w-53" value="" style="rhombus;whiteSpace=wrap;html=1;" parent="1" vertex="1">
          <mxGeometry x="360" y="1085" width="80" height="45" as="geometry" />
        </mxCell>
        <mxCell id="McDT12pASXivX-Q5aD7w-54" value="" style="endArrow=classic;html=1;rounded=0;exitX=0.5;exitY=1;exitDx=0;exitDy=0;entryX=0.5;entryY=0;entryDx=0;entryDy=0;" parent="1" target="McDT12pASXivX-Q5aD7w-53" edge="1">
          <mxGeometry width="50" height="50" relative="1" as="geometry">
            <mxPoint x="400" y="1030" as="sourcePoint" />
            <mxPoint x="461" y="1160" as="targetPoint" />
          </mxGeometry>
        </mxCell>
        <mxCell id="McDT12pASXivX-Q5aD7w-55" value="" style="endArrow=classic;html=1;rounded=0;exitX=0;exitY=0.5;exitDx=0;exitDy=0;entryX=-0.008;entryY=0.478;entryDx=0;entryDy=0;entryPerimeter=0;" parent="1" source="McDT12pASXivX-Q5aD7w-53" edge="1" target="jG0Ftq3SYFGcGHYT_TwJ-9">
          <mxGeometry width="50" height="50" relative="1" as="geometry">
            <mxPoint x="242" y="1284" as="sourcePoint" />
            <mxPoint x="270" y="565" as="targetPoint" />
            <Array as="points">
              <mxPoint x="90" y="1110" />
              <mxPoint x="80" y="1110" />
              <mxPoint x="80" y="1010" />
              <mxPoint x="80" y="860" />
              <mxPoint x="80" y="560" />
            </Array>
          </mxGeometry>
        </mxCell>
        <mxCell id="McDT12pASXivX-Q5aD7w-56" value="Проверка &lt;br&gt;наличия данных" style="edgeLabel;html=1;align=center;verticalAlign=middle;resizable=0;points=[];" parent="McDT12pASXivX-Q5aD7w-55" vertex="1" connectable="0">
          <mxGeometry x="-0.7186" y="1" relative="1" as="geometry">
            <mxPoint x="46" y="-1" as="offset" />
          </mxGeometry>
        </mxCell>
        <mxCell id="McDT12pASXivX-Q5aD7w-61" value="" style="edgeStyle=orthogonalEdgeStyle;rounded=0;orthogonalLoop=1;jettySize=auto;html=1;startArrow=none;startFill=0;endArrow=classic;endFill=1;" parent="1" source="McDT12pASXivX-Q5aD7w-57" edge="1">
          <mxGeometry relative="1" as="geometry">
            <mxPoint x="400" y="1285" as="targetPoint" />
          </mxGeometry>
        </mxCell>
        <mxCell id="McDT12pASXivX-Q5aD7w-57" value="Вывод информации в файл" style="rounded=1;whiteSpace=wrap;html=1;" parent="1" vertex="1">
          <mxGeometry x="340" y="1175" width="120" height="60" as="geometry" />
        </mxCell>
        <mxCell id="McDT12pASXivX-Q5aD7w-60" value="" style="ellipse;html=1;shape=endState;fillColor=#000000;strokeColor=#ff0000;" parent="1" vertex="1">
          <mxGeometry x="384" y="1285" width="30" height="30" as="geometry" />
        </mxCell>
        <mxCell id="jG0Ftq3SYFGcGHYT_TwJ-2" value="" style="shape=image;verticalLabelPosition=bottom;labelBackgroundColor=default;verticalAlign=top;aspect=fixed;imageAspect=0;image=data:image/jpeg,/9j/4AAQSkZJRgABAQEAeAB4AAD/4gHbSUNDX1BST0ZJTEUAAQEAAAHLAAAAAAJAAABtbnRyUkdCIFhZWiAAAAAAAAAAAAAAAABhY3NwAAAAAAAAAAAAAAAAAAAAAAAAAAAAAAAAAAAAAQAA9tYAAQAAAADTLVF0BQ8AAAAAAAAAAAAAAAAAAAAAAAAAAAAAAAAAAAAAAAAAAAAAAAAAAAAAAAAAAAAAAAlyWFlaAAAA8AAAABRnWFlaAAABBAAAABRiWFlaAAABGAAAABR3dHB0AAABLAAAABRjcHJ0AAABQAAAAAxyVFJDAAABTAAAACBnVFJDAAABTAAAACBiVFJDAAABTAAAACBkZXNjAAABbAAAAF9YWVogAAAAAAAAb58AADj0AAADkVhZWiAAAAAAAABilgAAt4cAABjcWFlaIAAAAAAAACShAAAPhQAAttNYWVogAAAAAAAA808AAQAAAAEWwnRleHQAAAAATi9BAHBhcmEAAAAAAAMAAAACZmYAAPKnAAANWQAAE9AAAApbZGVzYwAAAAAAAAAFc1JHQgAAAAAAAAAAAAAAAAAAAAAAAAAAAAAAAAAAAAAAAAAAAAAAAAAAAAAAAAAAAAAAAAAAAAAAAAAAAAAAAAAAAAAAAAAAAAAAAAAAAAAAAAD/2wBDAAQDAwQDAwQEAwQFBAQFBgoHBgYGBg0JCggKDw0QEA8NDw4RExgUERIXEg4PFRwVFxkZGxsbEBQdHx0aHxgaGxr/2wBDAQQFBQYFBgwHBwwaEQ8RGhoaGhoaGhoaGhoaGhoaGhoaGhoaGhoaGhoaGhoaGhoaGhoaGhoaGhoaGhoaGhoaGhr/wgARCAJYAyADASIAAhEBAxEB/8QAHAABAAICAwEAAAAAAAAAAAAAAAYHBAUBAgMI/8QAFAEBAAAAAAAAAAAAAAAAAAAAAP/aAAwDAQACEAMQAAAB1k21c2I7xtcYw2y3BFUhxTTpFmkQbP2NMkHiaVIcU1DddDULc7FQreFQ826KiW6KjW4Kj5tsVItsVKtoVMtkVNzbAqZbIqbi2hUi2xUnFuCo+LdFRLdFQreFQreFQreFQreFQ826KiW6KiW6KjW4KjW4KkW2KkW2KlW0Km5tgVRzawqrm1BVna0RV3FpCrFpirFpirFpirVpQM1XO8mZWKzxWKzhWUXvWpDQ2bAbKNf2zuph6iRcHlz24ONPuODD9vXg9MT24MnFcGtyMjg2TV8G1ang27TjcNONw043DT4BKEN4JohPBOOYJwTxAxPeYCJ9zABP+a/FgK/FgK/5J+gXJPEE7E5QfsTZCuxM0N5JiiHJLkT7EqRb2JGhnmTdB+CcoNwTpBOSdINyThBxOEHE4QcThBxOEJ5JqhfYmSHdiX4Mf7G3zI7ySHJi/JJ0a5JIjnYkNXTeCG3taqrVCo9oWQrcWQrcWQrcWQrcWQrcWQrcWQrcWQrcWQrcWQrcWQrcWQrbksilPXDJ0nAg6cCDpl7EH5m4hXM0EM7TEQ/rMhC+JqIRxOBB04EHTgQdOBB+02EM7TEQvznAg6cCDw66a0IlYFMTMmirRaSsPYslBRPOYF5lhdvnK0Cfc0rviyutY8Fndas7lnq+xyyVf45ZCvYAfQKHREuLvAdeWf5wHoT5DBM0Twza5vfoeNqVZaZXNjVzYwAAAAAAAAAAABUsCn0DPpWpbahpG+2X6mj2+RqyR+mm7HHf0yzSb+JYZtMzXSk0Xvth3l0VlQYeAbtoOCQI+JAj/obxp/Q2jX+hmPP0FZ2ZWRT190R9MlUbjvPCv8+YiOpEI71kgiGbIhSO/wBnPCBp4IB3ngrT1sYV53sAQ+ofo4Ryv7jgZi5k6EC1tnitebJEPh9wVobDpz1Olp1baRXFj1zYwAAAAh0xj5j+fnrjabPSbo3YAAAAKlgk8gh9KU9cNXm4TgQfvNRDeZiIV0nAg6cCE+kyEH4nIrayautEpze4G+MPM8dYbrtFZsaTLxcU2nbGn5C/OcCnLjrCzxWNnVgVP9GfO/0SV9usCVmt9+mUaXI3nQjeXsNgRqW63YFU2BCpqdOe3sarb4m2PcAACqrVroyfSY4JhSLCzQBWVm1ebPp26HNo1faBXNjVzYwAAAAAAAAAAABU0FnUIPpCord1xre/THMtq/M3XpoRIEfEgaDubxpxuGn4NBaGv2BV1o1lMzdY+o5Nz6RrZGx7xnONwx8gAqy06ptYVfaFXFY/SXzj9NlbTyGWAYTNGEzRhM0YTNFbTyGWAYTNGEzRhM0YTNGEzRhQOya/JmzRhM0YTNGFVtv1MZPXnqeln1jZxRUV+nx8wdvp0fL/AB9Qj5e5+oB8wPp8fMT6dHzF6fTI+bPX6OHzrz9Ej51fRQ+c/D6THzP5/Tg+YPL6kHyrLr8q8tDDzIYTHHqnDLhy6m7lrKZ8i61R5xZyosQuhg5wABW2+0NkkV186FfTjJEMx52NZswAqe2KptYVbaVWFb/Q3z19NFU73wsArvtYQq2Ry8QjEsLzPLJ8vUpCxNVYBXGVPRX2LZY1e0AABSN3V+ZGjtQVxY+NkgCqLXqs79O3QyLNrKzQrPkstWgstWgstWgstWospWospWospWospWospWospWospWospWgsur+MctnRb2rSZ+0YEtRISHz0Q3+XFRKMes5WT7vXNSn1AqsWoi8oK22+omxHPCU+BF5ViSAr/YSfoQ31kfJuQVbaVW2kKstOqyufpH5u+iSFzyu5abdjjIY4yGJ5me1WaQueVzNTYtX0Nu1GeZDHGQxxkMcZEDmlbFotDkG2Y4yGOMisLHrMyevPBlWZWdmFXWBX9gAAAAAAAAAAAAFVxaUxc+ja/sCvzIxJr6kAWD5EN1thdSv+9g+hFtVIMo1lP/RXzoXHsttrCOTuETcrWyqys0AAAAAq+0Kxs4VVatUleXrRX0QVjt/KeFf+ViiD4thCN9JONRtwpuxNHPCAbWVCGzHkAAAKutGBmfmSEAAKzsytT26hmWXWtlFXz+v7ANV11OhLD71hlFg96y2BPPOG5BMfPRQwsT0wIcWVhwDMJx4RXOJJ3hnYkvSJ+xOOYDjljesXlBVcXlMXPoyHTEVmswVn3skV162AK/WAK687JFZ5lgCsPSyxr9gFXWjVlpgAAAAFaWXWdmCqLXqgrv6X+Z/pUgk+gMkN00mSbJrfUzWtyz3afMIbPq4mpsmu6mzajobpg7I83oPN6DzgNhVMWq1XU27Tb083oPOtLPrQxOHBn2TWtlFXz+AT8dO4AAAAefoOOQAAAAAqyMSeNH0SAAAAAAAACqrVqy0wAAAACsbOq60RVFr1OV19H/N/08VdMo9YBp45OxCPaYiIbfcDSZucKbs6K2AQ/Jk4hmdJRp9wAACtrJr82OXJBHpCACtLLrIxeAz7JrWyj510f1MPlrn6kHyy+ph8svqYfLb6kHy4+ox8u9/p8fM3r9KD5vfSA+b+PpEfNnj9Mj5i8/qEfLfn9UD49nv0LWxZIAAAAAAAAKttKCYhYyscYtdVPqWiq8WgrPuWSrcYlp1Vaoqe2KmK5+jvnP6MIHPIHPAAAACBzyBzwAAAAAQOeQMngAAFbWTWp345GdZVbWSAAAAAAAAAAAAAK2smtiyQAAAAAAAAAAAAAAAKmtmpyu/ov50+iSCzyCz483oPN6Dzeg83oK/nkHnh5vQeb0Hm9B5vQeb0HnA7AgZOHoPN6Dzeg86ztCsD0OTOsmtrJAAAAAAAAAAAAAFbWTWxZMPmEDMzMww2vhHiX4Wk1ROvbR7w2IAAAAAAAAAAFUWvVJ4b3FsorXvY4rXzs4Vd52qKnWwKn7WsKo9LTFXc2gKvWgKvWgKv5s8VnzZYrbys4VusgVusgVusgVusgVRy5Myya1soAAAAAAAAAAAAAVtZNbFkgAAAAAAAAAAAAAAAVVatVmXZNa2UAAAAAAAAAAAAAAAAVU55Mqya2skAAAAAAAAAAAAAVtZNbFkgAAAAAAAAAAAAAAAVZadWGTZVa2UAAAAAAAAAAAAAAAAVYDJsqtbKAAAAAAAAAAAAAFbWTWxm4E20h5ZOLjnp4dduZsWmMRPTzwN0ePnh7U7vYY2klmvJDG5LoDV7DKxTMxtHmnba6jbmu9tlwNZsuSvZrm4xj5Pv2NLCrCg5JLKrWygAAAAAAAAAAAAAAACrOeBk2VWtlAAAAAAAAAAAAACtrJrYsmvbCr8NgNe3eGYDN25Gm69iPprmFfLBFfLBFfLBFfLBFfYVnUWY/eqReW85yjBkPhqyfAAVbaVWmRZVa2UAAAAAAAAAAAAAAAAVaDIsqtrJAAAAAAAAAAAAAFbWTWxZNf2BXxvuIuJr5w4TTU6EbnWeIsrtWfJZatxZCuPcsBX4sBX4sCjJnESB6Oc+JcGZEfcsWF62WEjAAq20quPeyq1soAAAAAAAAAAAAAAAAq7jngybJrayQAAAAAAAAAAAABW1k1sWSAAAAAAAAAAAAAAABV1o1ce9lVrZQAAAAAAAAAAAAAAABV3HIyLJrayQAAAAAAAAAAAABW1k1sWSh2gLQQ/VFioT0JyrecGwAAAAAAAAAAAAq60auPeyq1soAAAAAAAAAAAAAAAAq5zwe9lVpZYAAAAAAAAAAAAArSy60Jfo5xrDU6WwxFMGcivptlgAAAAxPQ9wAAAAAAKvtCsD0sus7MAAAAAAAAAAAAAAAAKvB6WZWVmgAAAAAAAAAAAACsrNrElvvso2emomHuRDQTzg0XG6zSN+W+yiMs/bEZ85GN2CG85nqe+DvsEjex2HmaTy33oR/wBZNhGo8thuSJ7fJyzZAVjZ1YnNm1jZwAAAAAAAAAAAAAAABWPHIWdWNnAAAAAAAAAAAAACsbOq8tAAAAADEy6lLD7x7Xk07RTCJz2iHBMe0K6k97/On0WAAAAAKys2szpZ9X2gAAAAAAAAAAAAAAAAVlx24Otn1faAAAAAAAAAAAAAAq+0KuLRAAAAArmxqfLAjUexzOztL1Mraar2N/YFLYxGfpj5k+mwAAAABWll1oeVoVdaIAAAAAAAAAAAAAAABWfHbg87Qq60QAAAAAAAAAAAABV1o1cWiAA60UXuiUJLjVtsib66H7Q1vtuYgbv30OUbjrmaMzuuAJBvtVHyaoH2J0rfakzQXGLDa/YACtbKrU8LRq20gAAAAAAAAAAAAAAACteORj2lVtpFR7TtYxW6yBW6yBW6yBW6yBW6yBW6yBW6yBW6yBW6yBW6yBW6yBW3NkCmfHZQY+kwCMEmgHn6HXZa8YuXwM7wxxLNBhDM9NeJJXUhG01YZOB7DVyDDDb6ge+HjCwc6v8AYEwArWyq0PC0qstMAAAAAAAAAAAAAAAArTnjkx7Sqy0yubGrixwAAV4WG0mOSNE9gbxFuhLEXzjdIn3JShvuSsAAFTQWcwY+kwIBP4CTzt07gAAAAAAAAAGrhNjQMzMOZQ0sACtLLrM8LTqu1AAAAAAAAAAAAAAAACs+3Xkx7Tqu1CubGrmxgABDpiK/WAIdjzkaDWzEQaRbcRDDnYg2dKwAABU0EncEPpQCOyIVh3swVmswVmswVmszzK3eeQccuTj28h7vDgyGBOiKLAFfrAFd6q2RWm8l4AVlZtZHhalV2oAAAAAAAAAAAAAAAAVnz07GPalV2oVzY1FRU+n3zB2Pp18v8H1C+XuT6gfMA+n3zEPp18xeh9Mvmz1Po5868n0S+dR9FPnPwPpN8z+Z9OPmDyLLguolZf4AAAAHl6ivpdDJEevOv0hLMiP4xItrr9CeUak0ZLfAAAAArGzqwPG1aqtUAAAAAAAAAAAAAAAArHnr2PC1KqtUIjik4QjkmyFck0QvkmaG8kxQ/kl6IckuRHklqJcksRMSxFBK0VEqRYSmqpfES1AAAAAAfNuH9PD5f7/To+Zth9Ej50wfpkfKVwWaAAAAAFYWfV55WrVdqAAAAAAAAAAAAAAAAFYc9eTxtWqrVKusCF2Ka1shrONoNVxthqG3Gn43I03G6Gl43Y0nG8Gj43o0XG+Gh434j6QCktBMoQfSIAAAAAAAAAAAAAAAFX2hVx1tOrbSAAAAAAAAAAAAAAAAKv545PK1KstMrmxq5sYAAAYmXFCS9IDpC2siqt0TtWWEW0q+UknAAABU0HnEHLzivaxit1geBBlkCuFjiuFjit1kCt1kCt1i4ZBlkCt1kCt06wyIpZyRJYnUrxLsghKW5pBVkjSwitrIFpVdaIAAAAAAAAAAAAAAABV3PHJ0tOrbSK5saubGAAAAAAAAAAAAKmg84hBZVjQamj6ThdP8lvKh4LT2lLCzthUPJZ+ZUvJcG8oMWplVFyWnm1F6ly6ys+5aWXUgs/0qsW/1qHxLW9af6Fv5VJ9T6a9PlzzM+xq+sE5tGrrRAAAAAAAAAAAAAAAAKt545Fo1daJQ+5n8fNBxIO5GOkr7EQTHsQrib9iC8T3sV/zYPJAfSeckH7TbghSa8EJ8J4IB0sEV55WPwUVtLgiZbgAAAAAAAAAAAAAAAFW2lVh2tGrrRAAAAAAAAAAAAAAAAKs7deTm0adsk3LTcG6aXg3bScG8aMbxouDfNCN80HBIEfEgR8SBHxIEfEgR8SBHxIKdsIRnmSiMecrER85kIV0nAhCbiE8zUQztMRD0wEPTAQ9MBD+0uET7SsRXmVCKpXyRNLBE0t5IjC7iFTS2WiJ9JgIX0nAgfSwBXywhXnawhX/afiA8z4QFPxAE/wCSv+Z/yQHme8kD7TrkgieCBp5yQJPeSAp9yU7ubJrEitkxi3yDpwIOnAg6cCDpwIOnAg6cCDpwIOnAg6cCDpwIQm4hKbCFJqIWmghfMzEM5mQhvMxEPTAQ/iYiGpkIZxNBC00EKTUQnibiEcTgQdOBB04EHTgQdOBB04EHTgQdOBB04EHTgQdOBB04EI5mwhXM0EL5mYhvaYCHcTIQviaiE9ZwIOnAg6cCDpwIOnAg6cCD1v8AQFRkcmgc8A7BxwHXqHHUOvAdeA44DgHHAAAAAAAccgABzwHIAAAAAAAAHIccg5ADkHIOeQAAAAAAAAAAAAQcP//EADUQAAAFAwIFAwUAAgICAgMAAAADBAUGAQIWFTUSExQXNgc0QBARIDBQJjMxRiEjImAkJTL/2gAIAQEAAQUCjEZTSJH27ax27ax26ax26ax26ax26ax26ah26ah26ah25ah25ah25ah25ah25ah25ah25ah25ah25ah25ah25ah25ah25ah26ah26ah26ah26ah26ah26aR27aR27aR27aR27aR27aR28aR28aR28aR28aR28aR28aR28aR27aR27aR27aR27aR26ah26ah26ah26ah26ah25ah25ah25ah25ah25ah25ah25ah26ah26ah26ah26ax26ax26ax26ax27ax27ax27ax27ax28bB28bB28bB28bB29bB29bR29bR2+bR2/bR2/bRgDaMBbRgTaMDbRgbcMDbhgbeMCQDA0AwNCMDQjBEIwREMFRDBUQwZGMHRjB0gwhIMISjCUofG3FyYZX7RYxsRJLaOamlEsgUnjUlJZKpxNLre6qbTSXhUesaXRSsPVpEzg52uZyVOQ4KlJZhyviTuq5SpKqvtBj0quutWLlNdYU2WU/4/+kFrz6qndwORqvy9Q6fdlg7mgSM1X9muGsMXHR4ZKVtdWO0XUipltHVlpTVWYaszUF10bMOSrGJFbVwYbq6szCixgtU2vTRbU5wYlFh5kfPFVbLU7XWsa61jXWsa61jXWsa61jXWsa61jXWsa61jXWsa61jXGsa42DW2wa22DWm0a02jWW0ay2jWG4aw3DWG4au3jVm8asgGrIBqyAasgGrIBqyAasgGrIBqyAasgGrIBqyAasgGrIBqyAasgGrIBqyAasgGrIBqyAasgGrIBqyAasgGrIBqyAasgGrIBqyAasgGrIBqyAasgGrIBqyAasgGrIBqyAasgGrIBqyAasgGrIBqyAasgClekPsTLExN/WtXNuXNV9dWQDVkA1ZANWQDVkA1ZAJ2uTKGiEtqJW26E1jQmsaA1DQGoY+0jHmkY60jHGgY20DGmgYy0DGGcYwzjF2cYszDFGYYozDE2UYkyjEWUYgyDD2QYeyDD2QYeyDD2QYeyDD2QHR6NJrtHig0eJjSYkNKiI0uIDTIeNMh40yHjTIeNMh40yHjTIeNMh40yHjTIeNMh40yHjS4gNKiI0mJDR4mNHig0WKjRIsNCi40GMDQIwMejIx2NDHI2MajgxmOjGY8LYqw3i5li9l2kRQaVFBpkTGnRIdBER0MRHRREdFER0URHRxEdHER0cRHRxEdHER0cRHRxEdHER0MSHQRMafFBpsVGmRYaXFxpMYGkRkaPGho0bGiRwaHHRoUeGgR8Y/HxjzALYwy30ljG3oEMB2v5lzemdZxh7IMPZBh7IMPZBh7IMPZBh7IMQZBiLKMSZRibMMUZhirMMUZhibKMRZRiDIMPZBh7IMPZBh7IMPZBh7IMPZBh7IMRZRibMMVZhiTKMPZBh7IMPZBh7IJCyIGYqIMiB2QYeyDD2QYeyDD2QYeyDD2QYeyDEGQYiyjEmUYozDFWYYqzDFGYYkyjEWUYgyDD2QYeyDD2QYeyDD2QYeyDD2QYeyDEWUYozDFGYYiyjD2QYeyDD2QYeyBM3pmeYTna4FtYRqH54v6CTDoZMOhkw6KTjo5OOjk46STjpJQOllA6aUDppQOmlI6eUjp5SOnlI5EpHIlQ5EqHJlQ5MqHJlY5UrHKlY5crHLlgdnWQsSeOONjtL/woZZUz5k221MuPbohozkFaVxTLy068w0xKrLBLU6X36C4DQXAaC4AxlWElkuxxi7QloRJ3Ra3ltyi6wtEcbVW3rE6SxEr6aqI+hukLaCqJRbTTFvF0qnjsRLL05L4qMXaS5hDe6GtdydYWExqw0n/APK5t1Vlttpa+4cDh9iiHM61apdmeqvzic7XAtsEQ/0/J9RNi9PN3D+nqrem9+uRJHR/vVIkVxsZtuenJEnbV66qxQ6qaK7ntwoeQveOuSPjnwkPtqipT86Fp8rKNFZTeZUiTVVENjkpPW/Am+2X+Ghztpc+ltvLNLbLLSyU3Kv+taUup0if6R0hSY0ltZ9bTkN14ohusQ2t933o3W20KYyuVY0WWmaOnqCmuwqy4mtEic14OcRHE9T2DSv/AG6fT76bZSmgk2E2tF1gqykhKmtSFSz2CvzidbVA9sES/wCPk+oew+nm7h2QpTVByVmuKTWMCShV0dJLW6PpjZczNt6i5kPVXGMFynrGihjGmbkBBKAirda2pS1ahM2q6ac2cs1pbj6t7CmbVAPVp0o1huGuNdBrrWNdaxrrWNdaxrTaNWQVGpIqjrktR1RFRbfbf9ZxtlfDA6+Sfphvjf7Ib43+c32tX5zO9qgm2iKf7P1OLnemWGKlV1nXKtN69URRNVfQ39XqJsPp7u4fkZS6YYeyDD2QYeyDEWUYozDFGYYiyjD2QYeyDD2QUiLLQVijNUYeyDD2QQY3jYg+pCl8yUxyNo7U8ZjquzEGUXRZjLtuizJShEcjiymHsgw9kFIiy0FYmy1GHsgWtSJkf/pOdrr4YcbybVyspU+onS86yrrfdW11LvrkRPBe88B6eQUMtJfCrw5K1JKilfvSPmH2xzr6cyrh/wCUig+8xKarMKQqLlSX84tcaYynOB91SlyvqU7jcoUfhOdqWeczzaYJtwiv+/8AUqRKL1d6NyvWWtrnx6YtvUJiFXO/V6h7D6e7sHPzX90Ds4WgOPnT2f0yypmoXFXqCU3UWmIXjhonVHkHnn1VoS2A84876yXevpOtr/6YcnLU2udtLZEY3JjS6sqXi0tJz+kJ4rUKa2tjUksp05fLUN5Cky22llIsgJVx7SUfVaSi6otvIKttaEtlhRVhBf5xRMSpjNCrKX0bk9DikhJFv4TvaFnnM82mC7cIv7r5PqHsPp9uwdVJKObUf2q4a61jXWsa61jW2waw3DVkA1ZANWQDVkA1ZANWQDVkA1ZAIJdxM4cvN/ocVQ8kuyhdgpbS2n4yjefpO9q/6ZwXB1srkvBcOC4cFw4LhwXDguHBcOC4cFwhllaxrguHBcOC4cFw4LhwXDguHBcOC4cFw4LhwXCGWVrGuC4cFw4LhwXDguHBcOC4T62tGVb51Pdog23iMe9+T6h7D6f7sFCBIsrVgaqisZaKisSZajD2QYeyDD2QYeyDD2QYgyDE2UYszDFmYYszDFWYIkJDeQHLzNarOJOvcukLKeUJ41xIYmWHHkkpXbiKOc0pAJPLUFfWV7x9J5tNPDA7eT/phPjH7IT4x+fqHsS3zqe7RB9vD5G3clZo0yGjTIaJMKjQJcMclYxqVDGJSMWk4xSTDEpKMQkgw6RjD5GKRKSjFZOMZlVBjcsGNywY3LBWNyuoxWT1GJSUYhIxhsiGFyAXQZ8vEQbzmuQg9WQlpSv3oeoJS2JlJSsn9rn5i7t164xM332XntxhDfa3rV6Y2zjIUMlVNidoVpCkCWqRP9Zbu30nm0/9NXH3Jy3C4xa9HGuJF3UuJiRUrXF2WublemTLFVzgpUH3XPKhsNPT30MIDE50bo7bxEKKLrHZO6qUVVur23nJj0PRN1196H8o/wBRVi6g/jSPC28qrv8Ac/8AD1B2Jb51Ptog/sPmJfPA5o7FJ6ZxUWoFPNfzSFrktL1JwXWmvrlelXPbrW09+VmJTpApJOPkisotY/uP3Rm3npPxcvMf1yzdfpPdo/6cHbyf8qWW0uLLtKsEJ8Y/ZCfGPpcnLut/Cf7It87n+zwj2PzEvngXMyJyuUMjeqto0oenPb0qkqxvTFGGsjeeQsYW9eDWNuOuIbEqaljWkLqcyN6mlKUtp+Ll5i81u6nmKU9CndZylDiuLRr09FCSyw9MTa5q1BqSQHKDW59PWqPpKt2+k92ivh/NDrf/AJLzRzRzRzRzRzRzRzRzRC7/ALRrmjmjmjmjmjmjmjmjmjmjmjmiF3/aNc0c0c0c0c0c0c0Ty/iZl3nk/wBmhPsRlZxxuSOQyVxGSuAyZeMmXjJ1wydaMnWDJ1YyhUMpVDKVQylSMpUjKlAypQMqPGVnjKzhlZwys4ZYaMsNGWmDLTAZNLE4bVJKuah1R2ukpw9CMPQjDm8Ya2DDGkYY0jDGkYY0iSRxI2stIc03UNhzVaUxIsice37SFcVIQoY6quWsgcvMVSAlbUlvIIB7aVclSsiRORdbS63pSvsWiIKMKakhJ5DUlTHfSUbx9J9s93iAdfJClqc838K3UtFTi7bU6opVQQ66lsbtPLvNNVFEF3LCbE/Wp/t+iKqyksbNckxF1iwkw38ZxtK7zz1A2aFeyEU/1fJn+yQDdB/3e4hKuXXrqUoeucL6Kr1Ntb3A8Kq3OBKZUYnsNd1RRUms5sdc3FyRsjApc1qWA7q4OShOsc68TRDbeGNBy8x/XJt6+k/2e/xFbZeYWtJP1qxvWcyqRwOsMbHAws9qvvMq0KzaXJ1FqItBfYQQUdVQGKxbj/S3WXUtdLizefRCcQaYm/RFSj7WPSja32pTer/Gb7Wu889QNlhXshFv+Pkz/Y4Bugu/+M1PRp1QvTlGi4ku4GpSDxRGnoQchSqS6JE9CeQVQPvCUwstK2s5l3BZ6e//AAc7rLbqu21RC/mRsOPmn65Lvf09QNmM8SDr5J+mG+N/shvjf5zbbV/nvqDssL9mIx//AGFS7pjLHJNUip5VtvMsrfU8qllTS7RzixRSTU/jtpdzyvtc4o7TrVyW+txpdgscEhpNVie0k9yRprqqiLTaKCbjbnJLaQiX0Vl80uteZbxWGWG2if7HAd0DtHEzupwpMMKTDCkwwwigpEbKDFhiwxYGxEs8ukNJpSsJS3C2Fs1CsDa6CsGbK0RIy0CQOHnH65Fvn09QNlO8U4LQ7W0ybgtHBaOC0cFo4LRwWjgtHBaOC0Qq2lYzwWjgtHBaOC0cFo4LRwWjgtHBaOC0cFo4LRCraVjPBaOC0cFo4LRwWjgtHBaJvbTTV/nnqDskL9oI1/vDslMOUdOYiqY2rLRczri1F7WrJLMZ1VSzWtXeLEJ9D1qI9QuMaltttiS+xaiTVUprLlBrdbaeoVWolBV/QGUtMblAsQHXFntRy2yraedcc2rLLDW1xOLZkxhNBP8AY4Dufwlvnf65Hvf09QdlUeLmHFkh4u4ZJYvM+2sJa3J3JKqqa5Jib+uI+2pJfteosLM1GhiVKoqfSHKLSo0WupedetpZTramJCHGw0jULrVSVX1P5xRSoLYLXRNW412Sk1td0t5v4Tbb3Dz31C2OGe0Eb919K2W1r+m2y2y39k/2OBbn8JX59+uTbz9PUHZFPjaoi5QWsRFJH7TPvaWgpZfpSroz2xZ97o8noNAJtqpQ0VH9B9yk6aiekdazF0bqj+96ZoUprb2szoT2ZQpqW3qS1CJHenv/AChZNKsGlGnhM0WJbyWuhNn4TbbnDz31C2OGe0Ed978mfbHA9z+Eq8+/XKN3+nqFsanx4O3k/wCmE+MfshPjH5zjbHDz31D2KGe0Dq4OcUX9wnMdwnMZ+61GeO9RnLyM3ehmj4MyfRmD8MukAyyRDKpGKSmSDKZIMpkgyyRDLZEMukIy+QisukIyyRDK5EMqkQymRDKJGHF1enUiD2XFuvwlPn365Vuv09QtiVbCHXyT9MN8b/ZDfG/zm21uPnvqHsMM9p8wnzn4TtHzV7jpD/aKtcmGmywadLB0ErHQysdDKx0MoHQSYdBJR0ElGgOypx+nqHsSnYg6+Sfphvjf7Ib43+c32lx889Q9hhntPmE+c/wfUPYVGxh18k/TDfG/2Q3xv85zs7j556hbFDPafMJ85/g+oWxH/wDhi4rah0p95JwXDguHBcOC4cFw4LhwXDguHBcIZZWsa4LhwXDguHBcOC4cFw4LhwXDguHBcOC4cFwhllaxrguHBcOC4cFw4LhwXDguE8trayOPnnqDsUM9p8wnzkOxqq5fpjmGJWasa9UWdNc7JLVOoJuIp7QmgxzTFXI1pK8r4/qFsUbbkzm24SxC+CstxmCsgwRlGBMwwBnHb5oHb1oHbxpHb1pHb5qFvp8120wFsGBNowRuGCNwwRuGCNwwRuGCNwwRtGDNowdsGDtgKgjWVZhDWMIaxhDWMIaxhDWMIaxhDWKQhstMcfPPUHY4Z7T5hPnIeVRSF4ylmEZp/wDpOgM0iqdWpUkMN9ioqOKqWt7RVEegIuSovj+oOxQz2n8Fx879QNjhntPmEec/wfUDY4Z7T+C4+deoGxwz2nzCPOf4M/2OGe0/guHnU/2SGe0+YR5z/Bn+yQz2n8Fw86n+yQz2nzCPOf4M+2SGe0/guHnU+2SGez+YR5y4Olze9In24FyClbDnu0mt0hrRFbIz+S1uNXAtNKue5ESQ0022WkXuGVp9NXS0hGtUSZKnqokyZNVRIbyVS94qQrcXEttLMlKawnKjL2857XFBG/kqQqfzLCrpMbdYbICbLjpEoKNUSG8lVV8LorTSK85S1qFR6wmSpjqpZDeeqsfqqKpZGeYRKngp1bIZ7P8Agr/Op9ssM9n8wjzmqP7uJ7Fzgijhaa2kWJILIi/JvuZLbrkKGiKlkW+zi1sSq8ERklOtwpN9z4ySasUx1OoCiOp1AOY7DTDIySYe4N9jiWdGk5tLGC2xsd0CpQvcWEypB7M4qXBuZjTUNzKYWoMZ+YScyWHGltJxKslksKOKYiSjyo6nJBTHYWa3NR6Aw6PWHtcvbC0DXDPZ/wAFf51Ptmhns/mEech0WOVz30kjHSSMdJIx0kjHSSMdJIx0cjHQyIafIBp0gGnSAadIBp0gGnSAadIBp0gGnSAadIBp0gCkt3R0anxe5J0D25LVLwbIGhu0+Qi9DILLGFde5NH4z3ZoZ7P+Cu86nuzQz2fzCPOR/wB3cHM6yitzO4nBzNSHa0bYVR5UWmKXMtKZe9F22auT1KU/qk/6p3Ruqq4GAcDAJDZQyJLpCS0IGh6JfiYXX7xn8Z7s8M9n/BXedT3Z4Z7P5hHnIr/4mylnLUmGM5ZhtzfYZUxrJNBjcUYFDfepck6QwtTVlvo0Upw0/VMLlFkhSnvNHPmuOMOFKVircnLWsBZZaUiF0+0Z/GebPDPZ/wAFd51PNnhns/mEech3a3M125EsHIlg5EsHIlg5EsHIlg5EsHIlg5EsHIlg5crHLlY4JWP8pH+Uj/KR/lI/ykf5SHaPSB3UWwh/tvwN76dS3yRUgJTSlOTelld9rE33tTV+M82iGez/AIK3zqebRDPZ/MI85/gzzaYZ7P8AgrfOp5tMM9n8wjzn+DPNphfs/wCCt86nm0wz2fzCPOf4M72qF+z/AIKzzqd7VDPZ/MI85diLlS+x/wBLbkD+U4XqZWWSRZJkdwpJk9qU6Wllp0Kuxek+TO9rhfs/4Kzzqd7VC/ZfMT+c9Dfe5qo0SeXWPoTUVYoVyKMCXmWRknmGRYu8pMRalI+TOtrhXsv4Kzzqd7XCvY/MT+ci5xRlnfuUKiElhJxaiz9862yE+x/gq/Op1tcJ9j8xN509nXkNhTSiKTMn3sKfl5hZ5khLJW3KVz1Uh4rdbRzWUVJnNWYrLXuPDqK+++j/AFtuq7KzCb5Dd1H0bSC1ik0ixC8uZ15SeiQxKYncXA4lvdL1lt79cVQt2XKU90g+w1dR1BTms4iZDzKXvKlFY1uV60z6znbIT7D+Cr86nO2Qn2HzE3nRxNikm1tXl2o0haFPYTZZfpKMGNCM2zTbbnGxAnLtJZ0Sa+9AnMKUMhJlSW9OnF7QiMFzUmuU/Q5sMopSNtSlB5BakpM3FJbzWpGcTezo77EjOlRi9oRGWVQkXUuZkN5qRkKJOtREWUtZkNlqRCUip9ZxtsI2/wDgq/OpztkI2/5iXzr9ZyohONVQjUkQ1BIOuSjrE46sgdSSOoJFt1LqfsnG2wfbv4KvzmcbbB9u+Yk87/Wpb0zjNL4uyWWp2KNLa3xNjstTRuOLbcNYxhjGMKYhhLEPT1YfqP7Jvt0G23+Cq85nG2wbbfmJPO/131/zl7UFpmy9xIvUqf8A3k9Vw2mrjqtpBRiokt1NIdh6f+Rfsm23QXbP4Krzib7bBds+Yj87/W/udjNJjPUFoMBnqE2339yUY7kpBb6jtw7jNYu9SEIr6lJx6eV4n/8AZNtvgm1/wVXnE226C7X8xF51+tahIcU2FMQw5kFIky0GMM4xtoGNNAxhnGLM4RMyBuN/ZNdvgm1fwVPnE226CbV8xF51+Ff+G5xPtPTSFGea4L1zyeU+XlkZDzCVEiPolLfC7FjqqOILb1LkjPUvx6Vloa4OZzSrNVEmP51rhdIFFF2RG3HHLrCFZz9f09sivMTnSAypZ0tLKT2yVHUZOntSZIacWhVdcj/Ca7fA9p/gqfN5tt8D2kI1D88X9BJh0MmHQyYdFJx0cnHRycdJJx0koHSygdNKB00oHTSkdPKR08pHTykciUjkSociVDkyocmVDkyscqVjlSscuVjlywOzrIWJPG3Kx3lX4kR0+2l0ZvNUWsFtpCxnUWuF8Z+xJLBQlA7R3VFShvIVJG+OEIVBEcKJJOZj+aiQacl0d3TpC2TgKsiaWw+SozlxBzMvvcEcfUHpEEf6OpkVLuJ0FNU0uME0MrEEp1qNP0aT8Jtt0C2j+Cq84mu3wPaREP8AT8n1E2L063P6yFaa2s9iaR32dJIx0kjHSSMdJIx0kjHSSMdFIhp8hGnSAadIBp0gGnSAadIBp0gGnSAadIBp0gGnSAadIBp0gHQSELbJCiRoiX9aj06QCOLlC5F9Ztt0C2f+Cq84mu3wLaBEv+Pk+oew+nW5/Wa+Mf8AHxnKzmtzc8FtkVZZIQ+3xX/xb9ZttsB2X+Cq84m23QLZxFP9n5J34wxRY6EXnUeLKqtfItKud0tt+s05Jj5Qq0x9TWB0V3I0SRwuNLQqVtT0y1bdcUqcFFv5eomw+nO5/WaU+8ZpXip8W+lK2Q+3mxdIjIQERX/zb9ZvtsA2T+Cr84m23QHZRFf9/wCVjMcCY90agppX2C5juNKLjJFlbESi5O4sVF9b47xFK0d6pEqRuRqVSjdrb6tjgVZY3Ky7fy9Q9h9ONz+r6gvdGm1NK7LeRLByJYORLByJYORLByJYORLByJYORLBypWOXKxy5WPtKR/lI/wApH+Uj/KR/lI/ykf5SP8pF9koMsQNsmbUnIlgjzYoakn1nG2QDY/4KvzibbbANlEX918n1D2H043L9d93BYTK1SwvI3EZIvGTLBk6sZOpGUKBlRwOmPTlt7gnc0/65ztfp/sX8FZ5zN9tgGyCMe9+T6h7D6cbn+sy3jLhNfvGer4VlHUuxJe8oiylTwjRi9xTF2asm6ko208qY+NenOyfrnO1+n2w/wVnnM42z0/2MPkbdyVmjTIaNMhokwqNAlwxyVjGpUMYlIxaTjFJMMSkoxCSDDpGMPkYpEpKMVk4xmVUGNywY3LBjcsFY3K6jFZPUYlJRiEjGGyIYXIBdBny8QlvOa379kHpwx5xbzHA1bYtvcEzYvvS2tampKtgMVGdLd1rK1qUF0w8b9Odk/XOtq9Ptg/grfOZxtfp/sPzG3zn9igmSx2/VZjeOqmNRxzKotpMxQyb2jqJuLszqFKOVKyoMgUNzT+udbT6fbB/BW+czna/T7YAfJ2hMZmDIMvZBlzKMuZRlrKMsZRljMMrZhlbMMpZhlLMMpZxlDOMoZxk7OMnZxk7OMnZxkzOMmZxkzQMlaBkrQMkaBkjQLZC1X3NvnH8Gd7T6feP/AMFb5zOtq9PtgEUSkGl9AlGnpBpyMacjGmohpiIaYhGloRpSAaSgGkt40hvGkN40duGjtw0ZuGjNo0VtGito0RsGiNg0RsGhtY0JrGhNYnTcjRM3p2bec6fwZ3tHp/4//BW+czravT7YBEf9fyfUPYvTbcP4M82eAeP/AMFd5zOtp9PvHxE/0nqSUthRth9h6gpMWSdYoK/b6h7D6be/dHdMzlZoiGaIhmqIZqhGaoBmqAZq3jNW4Zs3DNm0Zu2DN2wZu1jN2sZw1DOGoZw1DOGkZw0jOWkZy0DOWgZyzjOWcZyzjOmYZ0zDOmUZ2yjO2UZ2yhtdUjsTPNmgHj/8Fd5zO9o9P/HxFf8Ab+h6svMuUkXNw46qi7lBlxZKa+5wTLF9SqLF5hBi9YRRluU1L/R6h7D6be/lVP8A2g06wgtOrKU/ruupbRMrLV0/Ciwi6t7qlLBrukKqa7JCrrbqX2mm2kllOqY2hq9OTS52S2lkqyj6/T098gnuzQDx/wDgr/OZ3tHp/wCPiLe4+T6h7D6be/mFP/QFFDKlGtSm+pbedaZotaA1Dy7UzPb1JjcqJSXNhlaVZ1tHFM1m3C9AqRVXtpS0+rWsMMtabqlmM6rlG2KSjGS2++1hbVCFSe2qeaSQobbrGlXS8ixUkMORKS2otAaU0EpzunIQqEFFpClTdbz051teKg9P/Ip9ssA8f/gr/OZ5s8A8fEY938n1D2H029/Km9S4t/cZ0Hcd0HcZ0HcR2HcF4GfvQzx7GdPgzh9GbPwzSQDM5CMxkQy+SDLZKMtkoy2SjLZKMvkgzKRjMpGMzkQzORCszkQrMZGMvkYy+SDLpIMtkgyySjLJKPT8g4t7n2yQDx/+Cv8AOZ5s8A8eCaSJ485dxmsdxmsdx2sdx24dyEA7kIB3IQjuQiHclGO5KQdyUg7kpR3JSDuQhHchvHcdsHcZrHcZrHcZrHcdsHchAO5KIdyUg7lJh3LIEjmFj63+m3v/AODPtkgHj/8ABcPOZ7s0A8fDkyIXcYSxDCWIYWxjDGMYcyDD2QYgyjEmUYmzDFGYYszjGGcYyzjGmgY20DG2gY00DGmgYy0DGWcYwzjGGcYwzjF2cYszjFmYMaUlHL/4M/2OAeP/AMFw85nuywDx/wCYacpaJTld4y20ZgUMzIGbJhnSQZ6hGfoBn6AZ+gGfN4z5vGetwzxuGeNwztuGdtwztuGdtwztuGdtwzlvGcIBmyEZqiGaIxmiMZojGaIxmiMZojGaIxmiMSZ8KfEcdcFTCgyu4ZdYMxKGaEDN0oztGM+QjP0Az9AM/QDPm8Z83jPW4Z43DPG4Z23DO24Z23DO24Z23DOm4Zy3jN0AzZCM0RjNEYzRGM0RjNEYzRGM0RjNEYzRGCF9r3MZ9ssGXpUzFqzeNXbxq7eNYbhrDcNYbhrLaNZbRrTaNabRrbYNbbBrbYNcaxrrWNdaxrrWNdaxrrWNdaxrrWNdaxrrWNdaxrrWNdaxrrWNdaxrrWNdaxrrWNdaxrrWNdaxrrWNdaxrrWNdaxrrWNdaxrrWNdaxrrWNdaxrrWNdaxrrWNdaxrrWNdaxrrWNcaxrjYNbbBrbYNabRrTaNZbRrLaNYbhrDcNYbhq7eNXbxqzeNWQDVUA1VANUQjVEI1NCNTRDU0Q1JENSRjUUY1FGNRRjUEg69IOvSjr0o65KOuSjrUw61MOsTDrE46xOOrTjqyB1RA6ogdSSOpJHUEjqCR1BQnhll7LCWJvdGrD2QYeyDD2QYeyDD2QYeyDD2QYeyDD2QYeyDD2QYeyDD2QYeyDD2QYeyDD2QYeyDD2QYeyDD2QYgyDEGQYgyjEWUYiyjEWUYkyjEmUYmyjE2YYmzDFGYYozDFGYYqzDFWYYqzDFGYYozDFGYYmzDE2UYkyjEmUYiyjEWUYgyjEGQYgyDD2QYeyDD2QYeyDD2QYeyDD2QYeyDD2QYeyDD2QYeyDD2QYeyDD2QYeyDD2QYeyDD2QYeyDD2QYeyDD2QYgyDEGUYiyjEmUYmyjE2YYozDFWYYqzDFGYYkyjEWUYgyDD2QYeyDD2QYeyDD2QYeyDD2QYeyDD2QYeyDD2QYeyCaMLc1Nnpzsf/wBi9RdkjTgtYUGVnjKzhl1wy8ZjYMyJGaEDNk4zdKM5SDOkYzxEM9QjPkIz9AO4DeO4LcO4TcO4baO4jaO4jYO4rYO4rYO4rYO4rYO4rYO4rYO4rYO4rYO4rYO4rYO4rYO4rYO4rYO4rYO4rYO4rYO4jWO4jYO4jWO4jWO4jWO4jWO4jWO4jWO4jWO4jWO4jWO4jWO4jWO4jWO4jWO4jWO4jWO4jWO4jWO4jWO4jWO4jWO4jWO4jWO4jWO4bYO4bYO4bYO4TaO4TaO4LaO4LaO4LcO4DcM/bhn7eM/bxnzeM+bxnzeM+bxnzeM+bxnzeM+bxnzeM+bxnzeM+bxnzeM+bxnzeM+bxnzeM+bxnzeM+bxnzeM+bxnzeM+bxKJGnkCL/8QAFBEBAAAAAAAAAAAAAAAAAAAAoP/aAAgBAwEBPwFtn//EABQRAQAAAAAAAAAAAAAAAAAAAKD/2gAIAQIBAT8BbZ//xABdEAAABAIDCQgNBgsGBAcBAAAAAQIDBBESNJMFEyExNXSSwdEiMjNBUZSx0hAUIzBAYXF1gZGhsuEGIEJQc8IVJEVSYnKChKOk4jZDRIOisxZTVPAmYGNkZYXD8f/aAAgBAQAGPwKIi7oPRN+7YUk6Kyw4CPk8Y4eMtE9UcPGWieqOHjLRPVHDxlonqjh4zTT1Rw8Zpp6o4aM009UcNGaaeqOGjNNPVHDRmmnqjhozTT1Rw0Zpp6o4aM009UcNGaaeqOGjNNPVHDRmmnqjhozTT1Rw0Zpp6o4aM009UcNGaaeqOGjNNPVHDRemnqjhovTT1RwsXpp6o4WL007BwsXpp2DhYvTTsHCxemWwcJF2hbBwkVaFsHCRWmWwcJFaZbBv4q0LYN/FWhbBv4q0LYN9E2hbBvom0LYN9E2hbBv4q0LYN/FWhbBv4q0LYOEitMtg4SKtC2DhIu0LYOFi9NOwcLF6adg4WL007BwsXpp2DhovTT1Rw0Zpp6o4aM009UcNGaaeqOGjNNPVHDRmmnqjhozTT1Rw0Zpp6o4aM009UcNGaaeqOGjNNPVHDxmmnqjh4zTT1Rw8ZaJ6o4eMtE9UcPGWieqOHjLRPVHDxlonqjh4y0T1RWI20T1RWI20T1RWI20T1RWI20T1RWI20T1RWI20T1RWI20T1RWI21LYKxG2pbBWI21LYOHjbUtg4eNtS2Dh421+A4aMtvgOHjbb4CsRtt8BWY62LYK1H2xbBW4+2LYK5dC2LYK5dC2LYK7dC2LYK7dC2LYK9dG3LYK9dG3LYK9dG3LYK/dG3LYK/dK3LYK/dK3LYMoXS5wWwZQulzj4CFjYKOjln2yhK0OPTJRYT1C6cv8AnO+4kQDsPCMNPX5sqaGyIwl7tpKzevhXiiXcqJH6eLjEC3e+6kR9tYPpUTMi9Mpg1pjCiTchVPSJKe5GUvZ5RE0XCKV5veL6R4Qtu8u0SjSbvu4o0Zlgxz9gYab4Iopxt5Zp/WkkvUGkxXcivZ0aRF3Y54T8UhRimWn0ssf3iSORmfwFzmYcr447CHQRLGspYz5CDZqjWoZTbDa1UyKThq5fF5A88UY7JEYlq80EUaMy/Rnx8oQZMuJYW8pv6EiIvHSnP0CMUmLeizYfJJINDeFO5M8SSw4TCkMMvUnIm9oI0ESklQI8SjIQbSnjgjcccSpRpQajl6ymJKWSlukbTB0cCnCXR2GMP/kltZxJSXEmz2rRLAWHDyz4ww0y4kif3JzLgsO/8nF8+HL/AN2n3VB9m6ESy0a4hR0XFYyopBTj4Q6OEu6FgC19uQNNeBSqaZmCNMbAkZHPhEhyjFwBXzf90RuvKDTO5KZ8aTbIxLt6Ax0uGRj5RgjoDAqlwyMfKEyjoDcb3uyMAdeiHrlvuOHM1OLbUKLEbAJSRqo92RuZ8RBs1RVzTNrg+6N7nyA/x6AwnS4ZGPlBxKYm5pRB/wB5fUUgZpuhAlSwnJ9GELQ/F3OcQvfEp1GEQyFRdzbwxOTV8RRwiHWV0oMm4fg2ieRRI+UZSg+cJ2jKUHzhO0ZSg+cJ2jKUHzhO0ZSg+cJ2jKUHzhO0ZSg+cJ2jKUHzhO0ZSg+cJ2jKUHzhO0ZSg+cJ2jKUHzhO0ZSg+cJ2jKMHzhO0ZRg7dIyjCW6RlGEt0jKEJbpGUIS3SMoQlukV+Ft0ivwtukV+FtkivQtskV6GtkivQ1skV6GtkivQ1skV6GtkivQ1skV6GtkivQ1skV6GtkivQ1skV6GtkivQ1skV6GtkivQ1skV6GtkivQ1skV6GtkivQ1skV6GtkivQ1skV6GtkivQ1skV6GtkivQ1skV6GtkivQ1skV6GtkivQ1skV6GtkivQ1skV6GtkivQ1skV6GtkivQ1skV6GtkivQ1skV6GtkivQ1skV6GtkivQ1skV6GtkivQ1skV6GtkivQ1skV6GtkivQ1skV6Gtkgiauu1DHytuNn70xN27iYkvzXHGi90iF97Zgr7ip3xM/WFU4mDVTKSpuJwkK9DWyRXoa2SK9DWyRXoa2SK9DWyRXoa2SGEw0Q08tMUk5IWRniUIlUXCQ76kxa0kbjRKwSSMmwfN07Bk2D5unYMmwlgkZNhLBIybCWJDJ0LZEMnQtkQydDWZDJ0NZkMnQ+gMnQ+gMnMaIycxojJ7HqGT2fUMntDJ7XtGT2/aKg36zFQb9ZioI0lbRUEaStoqCNJW0VBGkraKgjSVtFQRpK2ioI0lbRUEaStooxDMMyrkW8Zax/guc/Ef4LnPxGOB518Rjgedf1DfQHOv6hv4Dnf9Q38Bzv+ob+A53/AFDfwHO/6hv4Dnf9Q38Bzv8AqG/gOd/1DfwHO/6hv4Dnf9Q38Bzv+ob+A53/AFDfwHO/6hvoDnX9QxwHOv6hjgedfEf4LnPxH+C5z8Rig+c/Eb2D5x8RvITnHxHBwtv8RwULb/EcFDW/xHAw1se0cBD2x7RV4e1PaKsxantFVYtD2jcQbSvIs9oNK0QaVFjI3/iP8Dzj4j/Ac4+I/J/OC2jHc/nBbRvrnc4LaN9c3nBbRvrm84LaN9c3nBbRvrmW6do31zLdO0b65lunaN9cy3TtG+uZbp2jfXMt07RvrmW6do31zLdO0b65lunaMdzbdO0fk62LaPydbFtGK59sW0b259qW0byAtS2jeQFoW0cHA2hbRwUFaFtHAwWmW0cBBaYq8HpirwmkKtCaQqsL6xVIX1iaYBgy8QhnYOFQyvtpCZp5MIi89X0J8Nj2Y9q/NJhUmSTPj3G0VBGkraKgjSVtFQRpK2ioI0lbRUEaStoqCNJW0VBGkraKgjSVtFQb9ZjJ7frMZPa9oye0Mns+oZPa9oye37RUG/WYqCNJW0VBGkraKgjSVtFQRpK2ioI0lbRUEaStoqCNJW0VBGkraKgjSVtFQb9ZjJ7XtGT2RUG/WYqCNJW0VBGkraKgjSVtFQRpK2iBi7nQ5MvJjG8JKMRL90Icn3e2lpmajxSIVBGkraKgjSVtFQRpK2ioI0lbRUEaStoqCNJW0VBGkraKgjSPaKg36zGT2/aMnte0ZPaGT2Rk9r2jJ7frMVBv1mKgjSVtFQRpK2ioI0lbRUEaStoqCNJW0VBGkraKgjSVtFQRpK2ioI0lbRUG/WYye17Rk9oVBv1mKgjSVtFQRpK2ioI0lbRUEaStoYZue1eW3oNVJMzPj+Ahc8b1iMz1fQnsRa4SMh4VpmIWyRG1M8AytDc3GVYWwGVISwGU4OwGUoOxGUoKxGUYKyGUIGyMV+AsjFeufZmK7c+zMV259mYrlzrMxXLnaChW7naChWrm6ChWrm6ChWbmaKhWbmaKhWLl6KtgrFy9FewcPcv1L2Dh7lepewcNcr1L2Dhrk/69gREx6rnuMm4SDJolT9ojIxlCkJdg8SvEaS1fNNslFTIpmmeHw2Ez1vWIlcG4ppxV0jTSTj3pbBl+M/79Igoc7uRkoi+TVTMqNEp8oNCrs3SbL6Kj+lgn+dgCC/D90DUtu+ERGeLSBtxF241pyVIpOqURl6x/aCP01dYf2gj9NXWH9oI+0VtCnHflDHJQkpqM3FYPaL0u7V0W4YzkTpvK9pTGX7oWp7RCxDd1o03HzVuTilJIpT8vIGzX8oLoIUtJHRv58fpCiT8oLplQOR0r4nD6Rf0XfjFJmUjVEGlPrCXXvlDF7o5FeHlukfqF7/4iujSlP+8linjmEf8AiKO3eFO6VtBGfykjcOLCrkny8gJP/EUZSM5Yz5J8oSn/AIjjZqKZYFdMwcR/xDGpZIpmpaVJ6Rel3ajG4czkTpn0kMvxXq+IZizuxEpSqdKk5+lKRGeMwql8oImaSmZYAbrt24pG63KUpNSvVLoCGyu/FzWUyO8zL1il/wAQReOUihpmEy+UTu6lLuZAj/4gew4u4FyyBqau+6oiMy4FPEIZ9d1VxTan0oW2plJTIQGZq6TENnjesRmer6E9i63nJ7V4U3nCehQXmav9wuwlv8HKunRhqSUdsXuidLGLnIiUuvEsnEuUUG4tKkniEcVzDmXa6TQrCSiUaqJiJZVDw63VMk6lTcypHOUlTnxmI1N0GIc4phonUG0Z0FEZy8oOFushgnFNX1s2JylyYQ83BQfbLcPRvx05Hh/NLjCnyYY/BqYi8Yzvk5ynyYxFtRHaN6hU0l0ErpHMplxiFdjWYY24xBmwloznSozIj8obNtBUO1O2FnPe+LpDzsa1C1LtptKCVg8R4REqg5PIYhDeOaFJ3RcWER5wzSVNQ0KbiVnPdrLH6BFRUO0lcM1JCMMlLcPoLCImDjkMk8wlKjUyozLDxYfAYXPG9Ye86n7nYuKlWI7+R6AUs33XC+ilUtzxBKVrNe5oqPl/7kDWt1by5SmuWAvQXzDJRTIxwDWgXYgVsOtNpSlZbts141n4yDd8iKFGiZpSjGacQM2nr2u+UyOjOWCQTDIewolRWaZ4jmDcciFG8Z79KSL2AiSo5Ec/9NEJbib28STmSb1JOKWLCErWumaZSIy/RkDJZXxumSqDh0+LxhKCWqgUppKUjkDZaMqV7opNRT9YOCOHhkLTvlXgpEXL2IUr6pBGSyMpEf0zBGb5m0Rqk3R5cYJV+cvhYl4P++MEVIzTMsfJKQoQ9BJ0iOZtF92QbJESZIQaVUaGNRBV4kyai3Skp3R7qYNtve0jMvEIfOUaxc/M1dJiGzxvWIzPV9Cexdjzk7q8KRnCegwrM1f7hdht+Iuk7c9yjQK9vk3SL0iHbZusUJ2vOitqLSSsOOZmHEpjoVSXG72tK4lJ0sJnh8eEPNojYQydKiunF0jMvKZiOahLow7r8Q3Rm5Gkoz5CmZg3Pwy3EOmmjSfjEqolyEO2Pww00ZmRrQ3GJSlcuUhfzuhDTp06HbhUKXLRnjEU83dGFNyITJX4wmWAhCuv3US7ENN4GlxiVIQrjkItv8IQsO9GvEbpJiCOg3PeEYSRXVVFQrrC2Xr9EoOSeKQUS4pG6hzhzk6W9BtpdQlvtfteiThb0Km5v2iaUSXJUpYj8pA32FvKdUUnFLcpXzy9gu2X2mZ4qaySK/C26RhulB84TtGUoPnCdoylB84TtGUoPnCdoylB84TtGUIS3SMEdDWyRgi4e1IYIlm0IYHm9MhuFEryH2YXPG9YifOn3S7Hyf8A3j3O9QX7fvq77Bft++rvEPnaNYufmatYhs7RrEbnznQnsXbL/wCSd72TPbsFBJvdKcSU6WHi3RCCKEiIVxb5nN29mpBlKeAqWsXybPbF+vU6B0d/RnKc/aIhERen30rQhugk2yUavSYoxpMrQZTJbWCXikZ97RnCegwrMlf7hdi5LEWi+MOMLmmfISjFQRpK2ioI0lbRUEaStoqDfrMZPa9oye17RUG/WYqCNJW0VBGkraKgjSVtFQb9ZjJ7XtFQRpK2ioJ01bRe+Jl5aC9c9fYuXDRaL4wuHVNOkCVFsQ7BHiNx406xThYZh9H5zbpqLpFQRpK2g1LgWUpLjMzBqVAMkRcYM4WHh3yLGbbs+gxUEaStoqCNJW0VBGke0Ybnt+0VBGkraLhruazeDddWhclHhKXx7MLnjesRfnTUQI72twuOhxC4LsMumX4yXkOgL47OSUoKhRka1K+l5AkoaHvm/pUnKMqOAwighVFcySfLIpgnDbcSiSZ0kKTjI+UsOINtHDrNR0adFKlSpeMikFKfbQ2SaOJwzwH6C5A0Tibyt0yvaFKwqmcgoocnlJQ0S9wSKJYT308MvICMXNTDu0FqvlFBFM1nTP2colg4e9S9A3NGd+U0STPjIhENRFA1tSkZINJHP/vGHDQ8lwjUVFxaMHjkRYyCHFlJR4ylLvFz2Gnu19w4ukREZn3Q+UMmh15CjaMySyxfErVOWHBi9Q7ol0m74pE1UL35Clup+UMNoSVBTVJxXIrBg9vzWM6R0GLnZmr7whs7RrEbnznQnsXd85O97KIg32mjvdBROMm5PD+sQQ4UTDpvTUiUcMZkZnjwU/EQJq/ME2l83r5eMB8e9p8sw8cRENKpkhaXG2aNBacWCkYvsa+hUiklDSTSny4+9ozhPQYPMlf7hdi4n2Tvuq7++f58Ws+gtXYuPm6+hYgV9sw8Lgc3cQU08X6RCCQmPS6hSnKa4JVAjkWLGfSGnjiYha3oZ01U14jIsEuQPlBxrkchUGanjUunQXg9XHgEOcRVSdTf5/m+PxTkFvXKWhRswzl8cZPBi3JTLjBnCPPxDi4S+HfF0pHMsJes+IPfjCH2CIsUQbxkry0S9XzPk5nKvu9mGzxvWI3znqIUX000/mniMfJ9KSIk/jGAv1AltbU0pRQLDxBFFFBtM9wRnhnLZ6Rf7wRO458gSq9lNJEReie0IMmEUm94ZlhISvdLdErdrNUpYeMEijuSVSIvHOYJx5KjOUsDiiIy8ZFgP0iRT9YgFu3wlJvhEaHVI+mfIY7avP4zQoXykc5BUV2uk4hSaKl8pBSUkrdY5uKVP4CgV+o+OJcOXkw4ASGikku8QKYhpt0ipyJaSP6ahTJMjo0fQDeoqpmc8LijSRnyJxEG0tNkgmykmXF81jOkdBi52Zq+8IbO0axHZ850J7F3vOC/CkZwnoMHmSv9wuxAvRjpMslBnulHgnNQwXShLdIylB84TtGUoPnCdoylB84TtGUYS3SK/C2yRXoa2SK9DWyRXoa2SK9DWyRXoa2SK9DWyRXoa2SK9DWyQ7ydtLl7Oxcb7BzoV2XGl71aTSYSlOJJS7EkkRF4vnfJzOT+72YbPG9Yuh5z6oxD5P8A7x7gxDEMQxDEMQxDEMQgpfp++oYhiGIYhiGIYhiGIYhiGIQUv0/fUMQxDEMQxDEMQaP/ANynoMXNzRX3hD52joMR2fOdCexd7PleFIzhPQY/cT/3C7BHFwrL5livjZKGG5sJYJGTofQGT2/aKgjSVtFQRpK2ioI0lbRUEaStoqCNJW0VBGkraMnt+0ZPZ9Qyez6hk9n1DJ7IJiDbJposSS7FxPsnfdMMMwrKHnHZ79ygRS9BhB3UJLDizMkJaNTtL/SF3p8lUUU5yOUtYfehV369IpykaZl6RfIVlt6RTMlu0MHqMG5dBLUL3IncDpq3J8Z7kgdNw5kdGSUGo5yniLxBLjKiWhWI/mfJvO9aezDZ2jWLo+cur2Pk7+8+4XeoH9v31d9gf2/fV3hGcJ6DFzc0V94Q+do6DEdnznQXYciLgREQfbLilupQ9epcnHhHCRnPi6w4SM58XWGF2L59/UOEiee/1DhH+efEcI9zv4jhXOd/EcKvnQ4VXOhwx85HD/zJisfzJislzkxXf5pQygfOljBdNfPFjKa+eLGU3OeLGU3OeLGG6Lh/vihhjT50oVr+aMVj+ZMcMXODG/Tbjd3tXleDkLFEROtwRzkc8ayPsEcU+2yR4qaySJliF8iXUMo/OWqRBL0Oum0veq5e/XD+ye90xDLKHhopLVKbcQciw/smIU+14aESya+5sKmWEv1SDdJST7XhnUqlxzIfjV4ZPtU2m6CjOc5YTweILQWM0mQuehayospoPl/zEyxesiDK2XWlxba1TNyclJPB0EQJC1U1mo1KMsUzOfzPk3nmtPZhs7RrF0vOfVBKbWgjnvVINVLxFIXAKIZOGUsopMjOf92Dkw3fEQ5kgkuGqlhLDiG7dch1lfFUkImdEi46SC4/EH1pdcSaUq3N7Kikpb6lIIOG7sVJXdd9PFLeIMj9RA2okr20SjSRl9JVEjl0iLZYUpBIdSanOQpJwChGPQhm3DrNJPKTvjxSnx4A0tBzSpJGR9i55O06LrbqWqCTObl8ORCKVSM4hxhBkSj+lusBB42VPE0ylFKZGnuk8JCHS++y2osJLccIiRI/o/pcQdhlqdS41fVREknuUcRkfqCzbi2Wm1OUqDMRRSjBgJSk4gwbpma6BTM+P59zChONl+nI91K+4ZeMfia1kyRSbbvW5oUd9SljmE3tZxSlrooPcqLeGeE0lLAYhUqugltwiZptTRuzVj4p+r5qM4T0GLm5or7wh87R0GI/P3OgvDY3MS6U9h1cKmGiI8miSSInClKRDsQ0SiETDwpuOuKRTnROUiFxFxLyIdtxhbhnRIypftCDhIWKbhVHfZxF6JVMkKkUi8YgW2YwoR1TbqnVIbSqdA5Tw8Quc2zfr87Ck846zDk4fqMyIQJsnENLdhjcUhiGS5hnxzxEFRDUSzDoh4VDrnc6V8UfFhMpCrvRFOCS6RQ7dIkKOeE/EG22032JegkuNkRfTwzPyBpELfpohUOuKbh0uUlGXHMykQZdeRe1rQRqTyfOuJ9k97vfPk5nhdKezD52joMXS859XsfJ3959wvnqURYVYwlDZSSkpEXYgf2/fV32B/b99XZUk0lJR0j8vzW85RrFzc0V94MZ2joMR+fuavDY3MS6U9hKo1gnVJxHMy6Awl+EaUTHBlLejtc4VpTFKlQUmZTCGn4dtbaN6k04gpbbKUqUgmzl+byBlh6FbcbZKTZGW9DPbLEyZTRQSVGmRegMqdg2lGwVFvBiISZZJJUL3+zyAjQyRGTN5n+hyBkoiEacvJSRSKciEiwEXzrifZPe6INtKIp1Cqc0Qzt7M/TSIQrEE2tlTxrn26s3TTL9o+kJdfQxRdYW4hKJ4DTyh0ou9IW5DG60pie5lLB7Qqkt1BoSaiNt1SOLxC5SoRxxxx893f4haiPcHyzDDTKWW1HfL6aiNUqCpYA2o4dXa7k96w5uS5TVKiGSVDqvL2KTLhUPKoykfZ+Tmd609mHztHQYul506oxD5PYP+p9wYhiGIYhiGIYhiGIQOD8/31DEMQxDEMQxDEMQxDEMQxCBwfn++oYhiGIYhiGIYg0Uv8SjWLmZor74YzpHQYj8/c1dh5MBciIiksuG2pZKIimQ/s/E2hD+z8VpkP7PxWmQ/s/F6QyBGaQyBGesZAjRkGOGQY4ZBj/UMgx+iMg3Q0RkG6GgMhXR0BkK6OgMhXRsxkK6VmMhXSshkK6VkMhXTshkK6diMh3TsRkO6liMh3UsBkO6tgEnF3Lj4ZtRyputUSEU9CuJdaXAFJSf1k9hiEeceS0UEbhk24acNKQ4aM5yY4aM5yYwuRZ/vChh7YP94UODet1bRwb1uraODet1bRwb1uraIqJglRCHG6Mu7GZb4hOg8f8Anq2hZkh6ZJP+/UEMXTefNCIElJor5DItYxxM+W+fARD0JGx7S2mlLTKI4yIQLzhmpamipGfGZYOxcT7J73Qg36c0b00OqQZaJhBppqNE6JuOqWZT8pi9MoJKktqQ3+jMG3QUuk3QVScUrByFM8BA0niMpBgqGBjg/FgkCcbRJRUsM/zjmYvzTZpXhOVNVEv2cQvrDZpVyU1US8icRdn5OZ11ezD52joMXS86H93sfJ/949wLaZfbccRvkpVi+aUzIpnIvGFqNaaKN+c8QM2jPBjJSTSZeg+xBUjlv/fMLaQojcQRGouQGtxWDxFPoBPmruZ4pFOfoxhqbyE33g6SpUu8wF+M91TkSUmr6Z8gSS1nuk0iMkGopcpmRSIXtCpq8mA/Ti+cznSNYuZmivvhjOkdBi6Gfu6uxdXzi7q8KRnCegwnMFf7vY/+q/8A1EWm6dFamjK9ocVgSiW+IvLxhtuHuicLDoh74245Izcw/pcXtDrzb/a96hmnL1eyPdHOcx2u7FkpbcQyaXVIL6U+IEw5FIalEG0qJSkvzZ8eCfEIEnm2I/8AGVpK+7lLhEk91iMKhr8iEScTRNba74lojTORGZag3QfQ6RrW2blD6Bf3uDk9Qj+PuM5+TCIWNuW2y8RMpU6lxJmcpY8Bi/3XbYZp8GhtJkcvHMwjzev/AHhDNNQkQtClnM00N3uTxTUIwzI0zh14D/VEAXiUf+o+xcT7J73T758nM5V93ssZ0joMXS86nqBEySzXPBRdoS8v/wDDFwW4p4nHDKJ3aUyluAvcMNEgivS0KwmdGXoCu5mxu21tlfaUqPL5QtKlSU5fTWolctHAXqkFvkyi/qpESvpUb3Iin5QonjaWa101X1NNG8lKiIJDJEbzVGdI8WAPsFOa3KZOHxngx+kKfiUttnQoElCqWouxAnAMpfJxt1pdJdGhNZ7oPJQiROtEimX52HCFOOwhIcKi2km1pUqRTmspyLjDaYWCdQaZFIzQakl4t1KYS0zBOM0kkUzWiZSP6WHF5O8wD0Mltw6LiDStRp/vD8RhtN/W02TRpXe6O6meLCGV0EoQ1MsCzkZfq8vzofO0axcvNVffDOdI6DF0M/d1di6/nJ7V4UjOE9BhOYK/3ew2f59zTT/ECe2mGnqOKmglSCb60hdHe0kzkFUm0nTKSpljB35ltyljpJI5i8Ew0TH/AC6BUfUEtxMMy82nepW2RkQvJMNkz+ZQKj6hgbRvaO94uQXQKUklCrIi/ZFzyVjKGb90gpXIUxEU1S/Fyo+kyMJNREZp3viEdm6/dEAf6Bl6lH2LjfYu9B98+TmcK+72WM6R0GLo+dT1dj5P/vHud6gv2/fV32C/b99XeIXO0axcvNVffDOdI6DF0fODursXaL/5J3sNtpYdiHHCMyS3Li8pkCdcdSwmZkd9OjIyxglKcQSVYjpYwaKRUyKZlPEErNxBIVvVUsYVSWkqJTVhxED7onAcjw4jBsE82bxYb3T3XqFE1ESpTkEHfESXvTpb4XhUWwT05Xs3SpeoKJESyZoKapOFgIKprSmiVJUzxEFPNxTC2kb5ZOFIgl9T7RMqxOUyon6QSYmLYZUZTIlukkIaU82Ti8KUU8J+QKZS6g3UlM0UsJB15L6HENYFXtVKR8gvhovKDVRRSWk6XqEqaZzoynxg00imRTMp8QpNqJaeUj7CM4T0GEZgr/e7DcQ89EsOoRQI2V0cHqGUbp84+AyjdPnHwGUbp84+AwXTuoX7z8Bguvdcv3r4DLV2ed/AZauzzv4DLV2ed/AG2/da6zrasaVRUyP2CRXUuqRZz8Buo+6SiPliPgEIchTco/SNxU/YY3C4psuRLolSibYNQ0PO9tJkU+xcnNl9Cu+fJ37derss50joMR/nc9QxD5O4P+p9wYhiGIYhiGIYhiGIQOD8/wB9QxDEMQxDEMQxDEMQxDEMQgcH5/vqGIYhiGIYhiGIQki/xresXKzVX3w1nKegxdHzg7q7F3POTvYhnEMvvIQlZGTD17Vhlx0iFziXCG9RcdNDJKIzSUuU8BmELNp6iaVElpm9Kvc1Gcjp4MXIErhVmU4duHWpSvo4Zn5SEKVB9aUQ96otXpVE/HT1B5LT7yPxNLZYUHTUU8BzIRJodcQSnW1E2VCiqVHxT4uUNoNhMkxJvdsUsZYcHL4gy4y84wkmlpUtFHxYMJGG0rS+5OGS13O9HR5Z0tQh175CIc0Go+XBsEO2qEvDKDcNx9RpkpJzLln6wpa2lPuxaiYRQlum08eHlwmH/wATUhSHUPXlw07pNGXEZljCYg4MniNTh9rEstxSly4OL2iKJDCUEuEShCSVPdbrB7Q40TCHL8pBk+auDlLZxByHVCpSvukoumWE1T9IOlCNsEltKb3TLuslEfqF8aaOApPIOiihNMiOauMuMFI4h5SYpS6TakJWaTTLyB03aSjNKPpJpGklmcuScvQH3HSeSbqsTtAj/wBGDsI+3T0GEZgr/e8DuZmivvd8+TucK1dlnOkdBiN88GE31xKKRyKkcpmPk8o8Rdsn/DF9iWLzD0aSV05n6S2TDSSN4zcOSfxdftwYPSJMuY8VJJpn5J4w0lSzO+700oUovWWIJO+YFYsHjl0gzvxSKZeo5dIoLwbg1z8RBl6FQbhvnJtKtz/3iCicRe3UHJaZzEGR4yQ4s/JTUH0mhSENJJVNXGWHYNy044syIyQksJzCX4do3DVgJJnL1mL4oqJkmmoiOci/7IKbcYMm5KNKp7o5fohwr2tlbe+SuWo/n3NZhGG3lKS6rujpolJw/wBE+UOJvkjanT3JywY8PGDJS1qMlUTJtpSznKfEQQ2lThmuUjvK6OHFupS+bB563rFyc1V0LDecp6DF0fODursXd84OdkjNJUk4j5O9UUJIk8hd9R9unoMN+b1f73gcBmR/f758nc5PV2Ws5T0GInz0fQL2Tl7Se+3JK6cA+TzDRHe/xrAZ/oCi5EvLSRSRi3O3EG13xSlJWazMy3xmUgmbk4hKaLUiIr3h9oUcM6yTSEtpQ2puZmSTnjpFIK7XkwpZbtaEFSPdEqcwg210DapG1It4ZnMMrWs6KCMlIIt9i2BDZumm94W1JLdJPDtCt2pxazmpa8Zi5ymItcLgcQ5RSR00Gs8AXJXc1tk2aZcWHaFmd0DfeOSUqcaKRIL6JkWPGO1WX0Nl9lgx4pTxeINm5HXvBQeS0zJLiJ4sJnIPrKKboO/+juy5CpUuLyB1x1xC3HT3VBugXqmeH59znvpJS6n1uHsD5PPUG1KcvaSTipcftBG2s98avLNMviEpvkyJSFYvzSl82Ez1vWLk5svoWG85T0GLo+cHdXYu7nyvCk/bp6DDXm9X+94HBZifSvvnyczrq9lvOU9Bh/z4fu9j5O/vPuF3qB/b99XfYH9v31d4hc8b1i5GbL6FhGcJ6DF0fODursRbiGWDZjn1uINcz6D8Y4CD0FdYcBB6CusOAhdBW0cDD2ato4JmyPaOCasjHAt2JjgUWBjgU2BjgC5uY4D+XMcAfNjFVPmxipT/AHVQyd/KrGTE82c2jJaebObRkxHN3NoyYjm7m0ZOQX7uvaKkXNlCq/yyhV/5YxwR82G8VzYExGtuLbpUpExINpcSaVFc9WAy/wDW8Dg8wPpV3z5OZ5rT2W85T0GHPPx+72Pk/wDvHud6gv2/fV32C/b99XeIfOkaxcjNl9CwjOE9Bi6PnB3V4bE+by94vA2Y+DjzgYhtu9zJqngw7RuPlDPywSBubutH5YVOwYLsw1iXVGWIWxLqjKsHZf0jKcHZfAZTg7L4DKkJY/AZWhubjK0NzchlaG5uQgX7rRzEQ1CuXwiS3RP/ALwdlGcJ6DC/Px+72Pk/+8e53qC/b99XfYL9v31d4ZzlGsXHzdfQsIzhPQYuj5wd1eGxPm8veL6iRnCegwrz+fu9j5P/ALx7neoL9v31d9gv2/fV3hvOUaxcfN19CwjOE9Bi6PnB3V4bE+by94vqJGcJ6DCz4iu8fujAtB/tD5Pyl/iOP9AYhiGIYhiGIYhiGIQUv0/fUMQxDEMQxDEMQxDEMQxDEIKX6fvqGIYhiGIYhiGIIM/+oRrFx83X0LCM4T0GLo+cHdXhsT5vL3i7EBBwcR2rf0uKUskEo9zLl8oy49zZrYGnolVN2a0qMilOioy1DtrtNjtbHPtk6UvJQ1g4c3e6kZJPcHIjPx4g2m+lNxw20FyqLH0BdF1W5Sa900pOAuSZYfQHEmtSlNpJSkoQazIjxYCF9hqZo5VNqRP1l4QjOE9Bi6LMc1fmvwi4cpy5BUf4y9oQomFoSnGgnTkryirKtVbRwDlqY4N21Mb161H+ItBvom0LYN9E2hbBvom0LYN/FWnwHCxdoWwcLF2vwHDRlr8Bw8ZbfAcPGW3wHDxlt8Bw8ZbfAcPGW3wHDxlt8Bw0ZbDhIu2G/irYb6KtzFGnFK/ztgxxNuYxxNuYxxNuYxxNuYxxNuYxxNuYxxNuYbXOIOgolSN2ZC4+br6FhGcJ1i6PnB3V4bE+by94uxcqIi1k0wlDyTWeIjOjIZQZ9YZ4qS3VF5DcUZAoSkm+UCKfELpQ7KGSh3H00lqWdItynilh9YbiHXCcWiIUtP6KDpYC8eEOkpTaDvTjaVX5a5z8R730B5w13xTrJJcWeNS8OH2hhlZkam0Ek5eEIzhOsXR84O6vqK5Gbr6FhGcI1i6PnB3V4bE+by94vqJGcI1i6PnB3V9RXIzdfQsIzhGsXR84O6vDYnzeXvF9RIzhGsXR84O6vqK5Gbr6FBGco1i6PnB3V4bE+by94vqJGco1i6PnB3V9RXJzZfQoN5yjWLo+cHdXhsT5vL3i+om85RrF0fODur6iuTmy+hQbzlGsXR84O6vDYnzeXvEEJNqKiGlw072w3TkdLHIXRfWzEKnEpaYh1lRXOiWCR4gq/QymXERCGHEmsjomrxkIpN4Wtxp5LSEkfCKMpiJdODUURDuJbUybhYzl9IvKHyducZRiHyYSwl4lUlGU99IOX5hUNEMqoOtmc5H5QUIqFSklPKaIyiCUrBxmjGWIIU5c9TUEp68k/fC305YuQFDpQk2jdvV8v6aVL9THLxh2LNG6bfvF7pYZzC2L2laGjInVX9KVF5EnhUIxLhoS5DrJKWzdIlOTIsJF6RGIdNCXYdZJS2bpEpyZFi9YcJMC45BMrJD0QSy3J/q+kG7226lCYkmShU0d2eDDOUyLCGnHpEhbpINSlSJM+MRTqKLiWniaQonSouGZTx4iDsVDQKXzYVJ9JRSZJ8iixiFaK5dKLiCUZNFEFgIvGEk42tly9rUoj4jSclEINUFBnELiWzdoLdvZpSQaXCXOcfTeUvPycIr2R9I7iw/EIJCVuLbIpNkrFMRJpufTg4d29rev5T4voy8YcJEC45BMrJD0QSy3J/q+kG0lh9bROXpT5EVAlcnKEE5AONQb6zQw/TI6Z+TixCHujdNt5bDz5oZO/wC5bPEW49kxDISbd+eeNs2idI1Ix4ZegNk7AuMwb6zQxEGsjpH5OLEDKFgnl0yVeFKklDpl4+ILiIu514ZS6TM0vkuaqVHkD6IctxDxjaac99gMXR84O6vqK5ObL+8Gs5RrF0fODurw2J83l7xBMXTxNG3Rl45iKUiJW067EE+hZJLcKJJF6cQikRLyoxuK3TqXSLCvlDyIB1UJSdS60aSne1EXjxjdxzrra3SeeSpJd0WXj1CJVflpW6+T6VERTbORFqDk3FPOuqpOOLxmYOJVEIvd/v5IKHIlT/Xxj8biVphExa3ShjaLGSzkdL2gn0OnekrvhNXpG+/WlMKVflUlEf0cFKc6UuXiCn0vGhLiiU4i9IOZ+UymQjlKo3yKUR0zbIzRIixeoRpqo3yJMjpm2RmiRFi9Qc7u6hh5RLdZKVFZl7RGv3w77EqSZHLgyKWAvUG23t6hxLkjKc5CIJJk0TjpOooNlJBkUsWIxEQd+mb++cvaU+whc44B9UMptK+7XumRYsYg4OHN1bqnVLeicRSVv5+XkD7rEWmCZQ2TDRXgnJolh4w3fXXoR293h4kEXdElgLHiwCnARi4RpRJJxskEc6PIfEI5u+y7advk6OLFsDh391DDyiW6yUqKz6QpbMatEKpy+KYoFhV5eQNHf3VsMrNbTByopPpCF359TTa742watwlXSIc0UabT5u072U1Y8HtDc33Vw7SjU0wcqKTP2gi7eW5CNkZNM0CKXlPjD0Ap5RJdiDeNRFh31KQmxgbXEMkSCLeyIxdHzg7q+orlZqv7wazpGsXR84O6vDYnzeXvF2Gbn3LeZYJUObpm4ilxyGUYOwGUYOwGUYOwGUYOwGUYOwGUYOwGUoTm4ytDc2GWWeakMtM80IZaZ5oQy0zzQhlpnmhDLTPNCGWmeaEMtM80IZaZ5oQy0zzQhlpnmhAji/lFCMEeK+Q6U6wbrvyghIIyWaaDzSCM/HjEUz+HINq8roIU40kidx4U+oPRjkfDOJblgJjlMi1jLLPNSClfhlnAX/SkIWKelfHE7qXl+cznSNYuj5wd1fUVy81X94M50jWLo+cHdXhsT5vL3i7H/wBV/wDqHig2VGTS0pW7MpFhLi9IIoVpRNFEoaU9MvzpHgBtsw1/osm6o75RkQdU9BmhZIStCL5OkSjl6ApL8DQS04lt1RPTlSlKWDDjDqHEqmhBKL9OZykXpE704aivlJBY00MYvUjoYr79GdGlL1Bt4kmkllMiPvcJ+ElxSVXs6N5Qk+PxmOGunYt9YcNdOxb6wiCRMy7XSZT8UjEJERTD7rbqC3TSSOWDyhxbEPENs4qTqSIleTCIH9v3z+cznSNYuj5wd1fUVy81X94M50jWLo+cHdXhsT5vL3i7CTP6VzJFaBxV/faQ4ZG42hRSUZejxCnf30oNwnTaSoqJq5cUwtTi1rUto2jPBiMbo17xKMfEk5h6Zq7s4lxWHjTLYINS0rNuGM131Si3X6MiF0I1UKqm7JKWaZTOXpkUwxAXozNblNxd84PD7cGASLEXe7jqgUE7EkXc0qxGcxdlTUGyqJWhXbSeJBeLDtF7vDf4M7YnffpUvXqERP8A6A/cEE1FoJaHIVukk/1SBIaSTbTacCS4iED+375/OYzpGsXR84O6vqK5maL+8GM6RrF0fODurw2K83l7xdhmPuO9DNrSxejv0+WfIK1czRVsFauZoq2CtXM0VbBWrmaKtgrVzNFWwVq5mirYK1czRVsFauZoq2CtXM0VbBWbmaKtg4a5XqXsHC3J/wBewcLcn/XsH5G/ij8jfxR+Rv4o/I38Ufkb+KPyN/FDEQ69c9h1ktwplbidQdcRdBknHcDir+5NflwDtft2HvFKle78ujPllRC4JZ3JS0pu9zSbk5Btpt25VBtJJLf8XoBpOLuaRHyErYIeEeWla2pzNOLGZ/Oh87RrF0PODur6iuZmivvBjO0axdDP3dXhsVmBe8X1FD52jWLoecHdX1Fc3NFfeEPnaNYuhn7urw2KzAveL6ihs7RrF0M/d1fUVzc0V94Q2do1i6Gfu6vDYrMC94vqKGzxGsXQz93V9RXOzNX3hDZ4joMXQz93V4bFZgXvEIFjtiIYbWTlK8umgzkQhkOn2zELU4Sb8+SJklUsKjEOTTZlfmlr33Gk5GQhlIZSbr6KdByIS2RF+sYaNxaGG3WL6lTrhJ48QafeQbaXIXtjH7BCLSyk3Yhq+0FxCW6KfKYaiWd46mkXhULnjesXQz93V9RXOzNX3hC54joMXQz93V4bF5gXvEExbr9JDaDS22SJUZ48PGGb08ptxqlRWpCXN8czwGQZhYtkohDWI1YDn6BDIafoOMovdK9JXNM+RUwypaUupaYvJJWgj9IgFOuG52m1e0po4DPlEOSYg0OtNXo13lCqSfIqcg2y3vW0yLwqFzxvWI/P3dX1Fc/M1feELnjesR+fu6vDYzMC94uxeVxTCXv+WbhUvV3+nFPNsI5XFEkgTjDiHUHiUhUy8AhM8b1iPz9zV9RXPzNX3hC543rEdnzmrw2MzEulIeUyo21nRRTL6NJRFP0THaxQzRsywkpM5+URUPSNaIaIU02ZnPcyI/ZOXoDbUMp4lNFflXppS58iTkWCeEUHJdrqhidbWXGf5oYoJvTfa19dRfVNzOZlLBh4g2222lKlqavSf0FFqkYpOGx2pfXUSJB05II8M5+LkDLDxMJOJYU83RnuCwY+XH4hJa4VTi4g2G5MqSRGU8J7o+QNQzRQ5RF8W24syOjuSnMin4xRfbOd7XO9tLc3aVS4ixC/Q6WKDLCHXSXPdTKciw4ApLTC1NpWSOBcOfplLsxkZEpJx8n1sopFO9oScpF5cfpEGuESTfbdNDyE4CVJMyV5cEvSCvKqC3HEt0vzZnjEoWOVfFpPcRJm7Px4+gQxUoW/PpUud7USUJLxUsIglGlBE+lZnI/zT4g0biCM3L7RSnGo0qkkiDbjCGELTDJfeJc+OeAvUHSvaiVfGyR3FZlRVRxni4wwqiz2s9EGwhOGmcp4fYL68lntbtk2JER099IjDFJtdI0rNzuK0luS4jPACXHIacvrV8aSyR+LAeOeMPNutqI25HSvS0EekXzITPG9Yjs+c1fUVz8zV94QmeN6xHZ85q8NjcxLpSFtPpJbaykoj4yF6ZuoomMRU2SU4RfrfAJZYnRLjM5mZ8ZmHFpTJTm+PlCe4JOjRMvFI5l0hCVtYETIpKMsHJ4yCIpdGTTd7aSlMpBpKG8DU6OHlxhK2GCQtJzI5ng+HiCmltEaFLpmX6XKIRLZG0yyalbhxSVTPxlhCb0iVFBox8R4Q3TYI72kkpwniLiPlHbElkqdI0pdUSTPlNOLsriLnRParjnCJNFNC/HLlBxUW+cVEmmiSqNEkFyEQU08mkhWMga0m64sylSdcNZkXJhDbLjJG23vSmeAEi9mhJKNRXtxSJGfkMIoJNV7NRtmtRqoUsZYQ2hbBGltNFOE8XJ4w6Ro4VRKXhxmWLoC3VQ6TWo5zmeA+UuQLfepLdvynE91VRwn+bimGiSjA1OhhxTDiUsEROFRPCeLxcgVejcUasZuOqWfrP5kJnresRufOavqKAzJXSoQmeN6xHZ85q8NjsyT0p75+MPNtfrrIhXYa2SK3D2pCtMWhCss2hCsNaZDh29MhwzekOFRpCaTIy8XfYTPW9Yjc+c1fUUBmSulQhM9b1iNz5zV4bH5knpT3xbUa0TzZQBLJKuWmDUuBZSksZmD7UZhHzLHenaUvUYNS4FtKSxnSPaDVCwzTyCOVJDijLpFQTaK2iolaL2io/xV7RUf4y9ofgjcPtZLKlkjx0k99g89b1iMz1zV9RQGZK6TEJnresRmeuavDY/Mk/d74347mf8A6GIg3VpRSTQI1HLCYUVyolmIfKCUSCbWSt0Ug43CxcQ7B9zU+4ua6B0sOPoFDtx78F32XbJHh3uKkXFPjDF+ecaoxSkKvsQpkyTI6NJRegXMVEPRRLW6ptdCJcSSiKlyH7Q/Cbh0jfIiSbh3wiNJYZSxdiMzdfvp77B563rEXnrmr6igcyV0mIPPW9Yi89c1eG3QzNP3e+QsZENurZKENKr2U/pGE04aMOidJO4Tj0ghRwcSakYU4toqb/rIVJ/SIbuGii8hJPWOAjNBPWG4hIk/LRLWNzAuelwhFK5YZR/6099g89b1iKzxzV9RQOZK6TEHnresReeOavDbpZon7vfFw0Yi+Mr3yZyFR/jL2ioJ01bRk9v2jJ7GiMnQ1mMnQ+gMnMaIyez6gbsFCtsLNNEzTyd9g89a1iJzxfQX1FBZkrpMQeet6xFZ4voLw26WaJ+780xBO366hreeouqfL8XlPiDjC3W2olLikXo14TkINm5yHUIXD39aUP3vjxUpCBh7lXOU+pxkzJs3aNCjgkZiHOEhFvxDpKM2qZJoUTkczPxiFioK51/ZiDJM1PkiSjOUuMdq3RvcE9ekrkt4sJnPAXLiDLcJRJ+IcJtClYk+MGUXFIjWFRZsHNFFRHylsCnC7rHGp1LZS/NM8PoF5hovtNLDSDcWTZKNSzKfHxBxMURFEsOG25RxGfKDYTA0odMQUOb9++kf6MgbJQE4cokoc3r/AMf6sgk0XPUqCU/eCfvpb6ct7jDEO4k+7JUaVcWDiEG5AQhxK4pR0EKcJGAuMQ62IJTr7jZurbJwivaS/SMQarnQXbJxTanCSt29yIhCLSwk3Yhq+0FxCW6KfKeMMm44hlt6HvyVOuEmfiCIh5Cm0qhb/j8cqIZOAuecS4qHJ9xN+JFBJ+M8YYiSSaCdQSqJ8XzYPPWtYiM7Xq+ooLMldJiDz1vWInO16uxFrhIyHhWmYhbJEbUzwDK0NzcZVhbAZUhLAZTg7AZSg7EZSgrEZRgrIZQgbIxX4CyMV659mYrtz7MxXbn2ZiuXOszFcudoKFbudoKFauboKFauboKFZuZoqFZuZoqFYuXoq2CsXL0V7Bw9y/UvYOHuV6l7Bw1yvUvYOGuT/r2BETHque4ybhIMmiVP2iNjGkqQlyELArxGRavnNsxN0L9BNOU0sEwSeOZTMOX6NnCLfv8AeSZIjpTnvsYhkIinmnWG73fWpEai9Mxc9FyXVQaGYdxN9vd84ywHPlDKYaOdh3EpUlxxKS7oSjmfkDEGUQo22HycbmnDIjnRBvX8myU1e1EbCV4PEZ4gUNEJptkRSw4SlxzBvrefiV0zUi+uGdCevxiMJbqnHYmmVM/oEriIJeufHKhHr2lDh3olkuXiDiW1qfeUZrUteNag0+qLJ1wnyiFQ3a5b8zw7qYZSqIUtxMT2w4uW/UExR4Ysoi/Kdlj8UpiHZhELv5u7l1P93ymfoDZwcUmCh4Vgm2e4k5OePj8QSh6KdhFt04dZoRK/NUvYCpRS3ktMmywRplQSfSIVKIg0OMskya70ldJJeJRGGVLSlxLTF5JK0EfpEGt1w3O1Wb2gqOCfKGkxp9sEzDEw3glLx4wzDkdK9IJM+X5sHnresP52voL6igcyV0mIPPmtYiM7Xq7F1vOT2rwpvOE9Cg9mv3/mRUVDSvrZFRpF4yCVfhGDwlPgBlGDsBlGDsBlGDsBlGDsBlGDsBlKDsBlWF5sMsMc1IZaZ5oQy0zzQhlpnmhDLTPNCGWmeaEMtM80IZaZ5oQy0zzQhlpnmhDLTPNCGWmeaEMtM80IZYYP91IREQd0YVZMtqWZXjkIQ8SV12WyebS5R7VI5TIZZZ5oQd7dNK3mX1smpJSpS4/mQmet6w9nS9X1FA5krpMQeet6w/nS+guxdjzk7q8KRnCegw/m33/mR37Hvp8Hi0fnMrL2CAinmXnm0tElV6IjlxBRQcNFJQnG44giT5MYuuniTdN4i9nzITPW9Ydzler6igMyV0mIPPW9YezpersXbL/5J357SL/Bum46bfa7fCJw4zw6gTZU5GqgldHcmrkmLybDyU01Ivx0aEyLDxz9gdccZfbQhs3UmpJd0SXGWHpDaTc4Rk3iP9AuMOudpxXcypGmikjo/nYTDZrgoqa0GuW4wJ5T3XjBKJDy26KVLWlGBBHimFPNqbRI0lSc3pTOUzEQsroQEbe0T/F0yl5d2YZRGqYWTzN8K9tGiWLlUfKIZcQuHNh9akyQ0ZGUp8dLxcgTEQ7bBwyt62c6ak8s8Xz0ZwnoMRGbfe+ZHfse+QIyxH4MolYjIQaXUkaVJWRkfGVIwliEbJppOJJC66uJV03jL2fMhc8b1hzOV6vqK5+Zq6TEJnresO5yvV2Lu+cnfnobdikKhkO3xKUsSVjnvp6hfmUQi73SW3+LScNXjXMQl+eZeQlajdQTJpPdzpYaXj5ApuIizdSTJtNzRvSPl5QvuqjJSVoxb1J/RLyB9qLi79fEUCk1RJIht0yd5QaO7MXyeLYDYTGOph1EmmUsJqIsBz9AvBukTm5OnQwTI54g612zDKvsk7mGNMi4/pht1l+GeWlC2yJMPQlMvGvlIhCEURDuoh1pkgoc0mZYjw0+QwmHRFJKDSeCSDvlH82c/nozhPQYic3+98yJhGVJSt0ikasWMERRVzZF4lbBWrmaKtgrVzNFWwVq5mirYK1czRVsFauZoq2CtXM0VbBWrmaKtgrVzNFWwVq5mirYOHuV6l7Bwtyf9ewcLcn/AF7BjuOdoPyN/FH5G/ij8jfxR+Rv4o/I38Ufkb+KPyN/FH5G/ihSTO45EopYL6GoWGduXemykVKmeoVm5hehWwPNxriHXXX1OmaMWH5kLnjesLzher6iufmatYhM9b1hzOV6uxd7zgvwpGcJ6DEVm/3u+KUfEUwT0DcSKfZVvV0iKY/s9F6ZD+z8aMgR/qGQLo6AyDdKzGQbp2QyDdWwBuRFxrpMtljUtmRECfg3CcRxy4j5O+Q2eN6wrOF6vqK5+Zq+8IXPG9YczlersXez5XhSM4T0GIrN9Zd8UkuMpCC/b98wph0qJXumhXLyhl+JJSCePcElClmfJgLxBpxT25dKkncKnLllxBBvOKk4mmmg2peDl3JBa1uklKCSav2sQOH7tfS/9uuXrlIIcaOkhZTSYj/1U+8QfzpXup75DZ43rB/bq1fUVzszV94QueN6wvOFauw5EXAiIg+2XFLdSh69S5OPCOEjOfF1hwkZz4usMLsXz7+ocJE89/qHCP8APPiOEe538RwrnO/iOFXzocKrnQ4Y+cjh/wCZMVj+ZMVkucmK7/NKGUD50sYLpr54sZTXzxYym5zxYym5zxYw3RcP98UMMafOlCtfzRisfzJjhi5wY36bcbu9q8rwj4WKIidbYKcjnjkffWU8aXFl/qDSF0Ew6TmZkZ0/GXkMM9psNKZh0TI3HTQRqPBxJPEXSEpI22FKZ7XepTMyIjPdJ8vjCkOKaJSYQ4dujP1n7A+pbiaBoRe2+Ill9Iwt6ZUVMXv0zHd1pJBN0KKHVLJXjw4vQI/9UveIP50r3U98h87b1j/PVq+orm5ov7whc8b1g/t16vDbtfYN+6nvvalzFOvMH3SbMNTIjM+WQ3kZzMi+6N7G2JbB/jNEhg7a9NEYnNFoxicsmhh7a9FEKaiURjrasaTPAHmo1pTLhxBqoq5KKe+Q+dt6x/nq1fUVzc0X94Q2eN6wf26tXYND0c2S0nIyKZivo0VbBX0aKtgr7eiewV9v1GMoN+oxlBv2jKDXtGUGhlBoZQZ9Yygz6xlBn1jKDHrGUWNIZRY0hlFjSGUWNIZRh9IZRh9MZRh9MZRh9MZRh9MZRh9MZRhrQZRhrQgSU3QhzM8XdCF2vsW/dT9RMZ2jWP8AOVq+ormZov7whs8b1j/PVq7F1FOstuK/CDpTUmfIKszZkKqxZkKqxZkKoxZEKpD2RCpw9kQqcPZEKlDWJCpQ1ikVGGsUiow1ikVGFsUioQtikVCFsUioQtgkZPhbBIyfCWCRk+EsEjJ0JYJGToSwSMnQlgkZOg+bp2DJsHzdOwZNg+bp2DJsHzdOwIcg4RiHX2wkqTbZJPEfII1TqjWo2SwqPx/UTGdI1j/OV9RXMzVf3hD523rH+erV2Lr+c3tXhSM4T0GIz7Eun6iZzpGsF9sr6iuZmq/vCHztvWP85WrsXa85vau804p5tlHKtVEgS2VpcQeJSTmQNyJdQygvpLVIgl1lVNtWEj5e/IzhPQYjPsS6QhyNNRJWqimimeEVSP5uKrH83FVj+birR3NxV42wHAxtgOBjLAcFF2Bjg4uwMbyKsDG9irAxiibAxiibAx/ibEx/iLEx/iLExjiLExjfsTG+fsTG+fsTG/esTG/esTHCPWJjhHbExwrtkY4V2yMcM5ZGOGcsjHDrsjFYXZGKwuyMX2BdppnLkMM50jWE/aq+orlZqv7wYztGsf5yuxdzzm73mAJk0E52xgNxFIt6rimQT23FG0zEOmp5cOg2yI5YCLHKYgVXSiXodplx2mpWBST+gRnxYOMJ7fiYllF7M4daJpNw5nKcuOUsAbU85EJcOFJxSO2F0af6s5egQhvkRJOEcMlJeNRqMiLCZSDrxqcQk7nmplE91MvpH4zCjiidOKv7fcWz3NA8VHWIko5dN0n1eQsWAu8ozhPQYjfsS6RcM+IrpNdg1unJJBRN0iUnGlaDSfqPvZmo5EWMKUyS6JcakGmfkn81sicKbhmlPjMsYKa1Kx4ENqViOXEQSSlqVSTTI0NKWVHlmRBKTWpVJNOaGlKKjyzIpAlIMlJPEZBTjhyQgpmYMyvyCKWFxhaCw+Ugs1ub1VAyJJmc+SRBC6S1EszIiQytSsHiIpgiQaiM00pKQaTl5D7MVmyvfSGs5RrCftV/UVys2X94MZ0jWC+2V2Lu+cXPCkZwnoMRv2JdIuX4rota+wfa9E3CwlSxBx1mmw4tTcqTxuykqZnuj9hBooiEv9HAlZOb054V8uEXxhhtiKUb1J0iKZznLCGy7QSllb6fxWZbrcqmfIId96FapoSvDRIzThKiU/EQpxab4d6Q3eyVgLdlg+IwwKTh5qoQtJO4ORSPk4j9YJ1CSvm5/GJIw7iR4d9jEQiJgkEw4xRoKUSprL6R+XlEIVy2b2SWTSomyQSaWDH8BCLeh2nTbXujUgjwSPWFpNq9023G3Hb5hWasSvIDZ7UQzDuKbptUiMtzhMz8o7XhkpZYvbpHRMiPCqZJLkF7ODeW0qJSs3UKTKUiLFOfsDjizpIT3FpRHvkp4w4pxm8oNNE9ygqRzx7nH6RFPMkk1NqpwhT4zwqHcIc4kloSUyURUTLlnxA73FLhu4EmbZJMjVNR8ZePxBBtQKlkqGQjA4mSDKeOZz4wwxC0FPtqRjxYDEXDYXHV32RmrfTDzKIOLbNxNGcVE31PvqDNBs4goekkt0VJwj+lh+kGHnYR8ySpXc4d8m1kUixnSLpDLrcDFOJvJoNJuoUtOHjM14fWCMyo+I+xGZuv30hrOUawn7Vf1FcrNl/eDOdI1gvtldi72fr8KRnCegxG/Yl0hpEAlKnm30uSUcsUxwEHoK6w4CD0FdYcBB6CusKvCWausOAhrNW0cDD2R7RwTNie0cC1YmOBbsTHAosDHApsDHAlzcxwBc3McB/LGOAPmxiq/wAqYqX8qoVD+VWMmlzZe0ZKRzZzaMlo5s5tGS2+bObRktvmzm0ZMbL93c2ioJL92XtFT/llCq/yxjgP5YxwR82G8VzYfT5t8BELfaWilDKwqTL6SQ3nKNYT9qv6iuTmy/vBnOkawn7VfYuwiOZiDv0WpSDQktZjgIzQT1hwEZoJ6wq8ZoJ6wq0V6k7RVYn/AE7RVIn/AE7RVIj2Cpv+shU3/WQqT+kQqT+kQqT2kQqT+kQqkR7BVYr1J2irxminrDgIzQT1hwEZoJ6w4CM0E9YYIeM0E9YVWJ/07RU3/WQqT+kQqLumQye5aEChUwime6Eukbk+URv2JdP1EjOEawn7Vf1FcnNl9Cg1nSNYT9qvsN/hFi/XudHdmUp+QVH+MvaKj/GXtFRK1XtFQK0XtFQTpq2ioI0lbRUEaR7RUG/WYye17Rk9oZPZ9QycxojJ0PojJ0PoDJ0NZkMnQ1mQydDWYydD6AydD6AydD6AycxojJzGiMnMaIyex6hk9n1DJ7PqF2GIVBNtIZbopLiwJ+okZwjWE/ar+orkZuvoUGs5RrCftV+G3RjPwdFxbEQ2gkmw1SxEQw3DusX7sMNx7rl+6/EZJutzb4jJd1ebFtGTrp83LaMn3SsC2ipXRsS6wqd0LJPWFTuhZJ6wqd0LJPWFUj7ItoqsdZFtFWjrEtoq8bY/EcBGWPxHARlj8RwEZY/EcBGWPxHARlj8RwEZY/EcBG2PxFXjbH4irR1h8RVY+wFUj+biqXQ5uKpdDm4ql0ObiqXQ5uKpdDm4ql0ObiqXQ5uKpdDm4agoOHikvLfRK+tUSHacRce6LqicUdJtiZDDcS6xfuww3IuvzX4jJV1ubfEZMupzctoyddOwLaKhdKxLaKldCxLrCp3Qsk9YVO6FknrCpx9knrCqR9kW0VaOsi2irxtiW0cBG2PxHARlj8RwEZY/EcBGWPxHARlj8RwEZY/EcBGWPxHARlj8RV42w+Iq0dYfEVWPsBVI/m4ql0ObiqXQ5uKpdDm4ql0ObiqXQ5uKpdDm4ql0ObiqXQ5uIB+Faebbh2F076ijy7Q3nKNYSiIiWWl31WBbhEK9DWyRXoW2SK/C2yRX4W2SK/C26RX4W3SMoQlukZQhLdIyhCW6RlGEt0jKMJbpGUYS3SMowfOE7RlKD5wnaMpQfOE7RlKD5wnaMpQfOE7RlKD5wnaMpQfOE7RlKD5wnaMpQfOE7RlKD5wnaMpQfOE7RlKD5wnaMpQfOE7RlKD5wnaMpQfOE7RlKD5wnaMpQfOE7RlKD5wnaMpQfOE7RlKD5wnaMpQfOE7RlKD5wnaMpQfOE7RlKD5wnaMpQfOE7RlKD5wnaMpQfOE7RlKD5wnaMpQfOE7RlKD5wnaMpQfOE7RlKD5wnaMpQfOE7RlKD5wnaMpQfOE7RlKD5wnaMpQfOE7RlKD5wnaMpQfOE7RlKD5wnaMowfOE7RlGEt0jKMJbpGUYS3SMoQlukZQhLdIyhCW6RX4W3SK/C26RX4W2SK/C2yRXoW2SK9DWyRXoa2SK7DWyRXYa2SK7DWxCuQ9qQrkPakK5D2pCuQ9qQrcPakK2xakK2xakK2xaEK0xaEK0xaEK0zaEKyzaEKyzaEKyzaEKyzaEKwzaEKw1pkKw1pkOHa0yHDtaZDh2tMhw7emQ4ZvTIcM3pEOGb0hwzekOFRpDhUaQ4VGkEUVJP8YRiPyh12OhieWmINJGZnikkVBGkraKgjSVtFQRpK2ioI0lbRUEaStoqCNJW0VBGkraKgjSVtFQRpK2ioI0lbRUEaStoqCNJW0VBGkraKgjSVtFQRpK2ioI0lbRUEaStoqCNJW0VBGkraKgjSVtFQRpK2ioI0lbRUEaStoqCNI9oqDfrMVBv1mKg36zGT2/WYye36zGT2/aMnte0ZPa9oye17Rk9oZPaGT2Rk9n1DJ7Iye0MntDJ7XtGT2vaMnt+0ZPb9ZjJ7frMVBv1mKg36zFQRpHtFQRpK2ioI0lbRUEaStoqCNJW0VBGkraKgjSVtFQRpK2ioI0lbRUEaStoqCNJW0VBGkraKgjSVtFQRpK2ioI0lbRUEaStoqCNJW0VBGkraKgjSVtFQRpK2ioI0lbRUEaStoqCNJW0VBGkraKgjSVtFQRpK2ioI0lbRUEaR7RUG/WYye36zGT2/aMnte0ZPaGT2fUMnsjJ7XtGT2/aKg36zFQRpHtFQRpK2ioI0lbRUEaStoqCNJW0VBGkraKgjSVtFQRpK2ioI0lbRUEaStoqCNJW0VBGkraKgjSVtDL8BDEy5fySZko8Uj2B/Ole6n/AMxs50n3VBUK9cS6DqjdNc0Mn4hkG6lgMg3VsBkS6lgMjXU5uMNybql+7fEZLurzb4jJl1ObltGTbqc3LaMnXTsC2jJ90rAtoqF0rEtoqN0bEusKjdGxLrCpXQsk9YVO6FknrCqR9knrCqR9knrCqx1mnrCrR1mnrCrR1mnrCrRtmnrCrxtmnrCrxtmnrCrxtmnrCrxtmnrCrxtmnrCrxtmnrCrxtmnrCrxtmnrCrxtmnrCrxtmnrCrxtmnrCrxtmnrCrxtmnrCrxtmnrCrxtmnrCrxtmnrCrxtmnrCrxtmnrCrxtmnrCrxtmnrDgI2zT1hwEZZp6w4CMs09YcBGWaesOAjLNPWHARlmnrDgIyzT1hwEZZp6w4CMs09YcBGWaesOAjLNPWHARlmnrDgIyzT1hwEZZp6w4CMs09YcBGWaesOAjLNPWHARlmnrDgIyzT1hwEZZp6w4CMs09YVeNs09YVeNs09YVeNs09YVeNs09YVaNs09YVaNs09YVaOs09YVWOsk9YVWOsi2iqx1kW0VWOsi2iqR9kW0VSPsi2iqR9kW0VSPsi2iqR9kW0VSPsi2iqR9kW0VSPsi2iqR9kW0VSPsi2iqR9kW0VSPsi2iqR9kW0VSPsi2iqR9kW0VSPsi2iqR9kW0VSPsi2iqR9kW0VSPsi2iqR9kW0VSPsi2iqR9kW0VSPsi2iqR9kW0MQcGxEoeN9JlfEEU8Bly+Mf/xAArEAACAQMCBAYDAQEBAAAAAAABEQAhMfBBUWHB0fEQIFBxgZEwQKGxYOH/2gAIAQEAAT8hBVOAmpFlV/8AIJGhQoSZKlSoUKFEiRIkSJEiRIs2fPqVKHp2549nhwuHDjDhNz7dNKl+/diRIkSFChSpUqZEihRokGDGDIEKXPjz3bRlanasdrR2RHa353ljZxt5r2CBsyetVT2FLxXcmoCABJCaSESJmzB7vUDWVo09aIPsR1QtWCxTTL/BAl2+yCAIaiRcYDwK2FBX7oXBEvRP3GjeActFC30gAkxyTwGgIBWbI+vdAtHvO2mDkIOgwuUuiM2rVbRZAVdgKkO/2orgRIfCHwO0IznoPxkASiqA/SaAyWmYHFRERYpSh2PKwZm+QUcDGAMz/wASTLJ60RCpWgCqlF3rIzjOJ3Uag83GgMEZGGDQawAIwqtUNoEEILIdidYrIgQFFJ/UJcHoOpKZEsN7EWiAUpbX3XgGkaHQP3X4wU1s/wDFrSM0r1WAufaDJ4AAKGyg0EvCQH/ap8QmqvLW+a8pxQI/1OEVpNCbc1hu6AmYPc1gC6qloKzpAeNJF0lq2/P69evXr169evXr1KZZ3zmD85m/OY1zmQc5gHOZ5zmGc5gXOY1zmXc5mnOYpzmKc5inOYpzmKc5inOYpzmKc5inOYpzmKc5inOYpzmKc5inOYpzmKc5inOYpzmKc5inOYpzmKc5inOYpzmKc5inOYpzmKc5inOYpzmKc5inOYpzmKc5inOYpzmKc5inOYpzmKc5inOYpzmKc5inOChIsmx4UBCYyigEPtQDMQGNh/JwolqmeEa1ExTnMU5zFOcxTnMU5zFOcOjxrrhQr1gELKo8fTrBOUzTlMj5TL+Xk4uI7L8uBy73tOynrM3qneeqZbzmd8/wmChQoUKFCgwWAwWr5nh+UvxuK7CjsKOwo7CjsKOwo7CjsKOwo7CjsKOwoZ5KYxfw/E+991T33PeM9zeaVshREQ4i3Ewft6TEHiJ4H0TiGeL+gsmf39ywkSJEiRIkSII434eKFBpTRx4ydkdZ2x1nb/WdmdZl+syHWcSLA+cLlpTqlZ+82EONMAD2PwihQoUKFChjG+cwXnMTqnZT1ncnWYvVO89Uxvn+IwUKFChQoUKZ3zmJ1TtR6wkzf75QhQoUBDbBmjJsTwgecAGXOh4/hKFChQoUCGsb5zuPVMzqnbT1nYj1mb1TBOcxvn+KwUKFChQoUKJy/wCzF6pinrCXL/vlKFChQXImEIT7zOA28UZuuYtT77zsbpO1+kxnSZTpMv0ndHSd99Jg3KZhymZ8pnfKYLymU8pm3KY9ymecphvKYXymT8vMyIXEnrtEjVAD62dm04+RsD5WFExgKANiv3grdVrAHGM4yeXEReCK+C0JO0ZFv6R4Vhas5pTqUe8BPJ06SSQdqoBN9sDHvYCA8eIWCQoMLwawZKOgQQ51L7IUMxo6BV4Uy5pBanHwKFJxLgG+pWnBEdQADkWMKGqTrnQgGJUCUXQF80AeEFY5UCjWoUhz/ooxlBBBATOPRIqgYqCCKuEWoGR7wQrQEACGLZ/oS48bVEMWoSrgEAkzsQAGRQ1lU1Seu7RFFi/YP9GEQ9SLxIxqImAmtfA7nNvEmpBkv3arQGCCiH3kQFMORWtbVnBEwhLVgLslHG2dy14i4ktjK4ai6CI6tqLxE9wjQqC7akg0CtxDOT3bvtoMaxKGCoaaQxFvTgRg0oEZASL+NPiKJ4YGPuYKhYePtApKQySFgB1Ca5b/ACDT7Rl5PEs1QBdP0rh8KCQYxOCQZfatiCqgBPzCrMGSEaQAlZIpYEz8QCPIAIEiCLweFFzEeQ7Pal81ACpiuaEKkZeb3XYRhhQPV6wY1jULMPSSZ85qwRB0oD4EFtKAbec1TbumIAaveNHzgkBQgqzThpA3VGgMCB3Gn1AQ4UTtIENYSzrP7nf5Pe8CQL+ARxQax6hsAsKY68DKFoYQ4ABCSWqC+uQ2DSnuTCaOXRKQAaG7feEKXKCiqnZaQcMJgHBUckahSnGoAai1DXg5bkNvFet9v3dfMOraSpD0Vh3gRmpxg3EwGqQYNVSNRlJB9doZKh6KUSuBwIsLIk4eNQQpEjUjZWrLCcOob9GFMzdpgKsWigcELIM3sAL+9k4xAoyYBFAi2bUH840ihUq1fuF8QWSi6XxGHzXNy2F7keHyGKPZwguPDeGwHlXr16dAljYbwXRw3guFjvBcDDeC+cH9OvU8c9tA/b8DF4f3/vsLtOT3nF7ePBTsv9x+Ok19/CQXs4ooYCAmFzoREKOvp/8AJoAtL6yKAso94dq1Mv3EP3H5j8ACYYKQBOgfHkKFCmN85i9UJcX+wly/75ChQpZvmPzl2+BOfgUJgohB/h7wNSRHJAKB6e0Kj9Agn5mocFUj3HgcVEEFIPswTJmSYA/sM0lExB8QoUs3zlj/ADSQ5+BQY1sBY6nxZDaA+1I4l9YBIbokP4cEiDpJA0INjAMQgpUI1Wa0EiN2g0IQL4WjBBTRFTVNoNWMYMygD7sSZtKTsqadWRCSEYrWXdYbHKCYQIckgdlWH9BKgucG44rKsOksogOyxYoOqBA/equty0eaIVJr9fRhRnRAjYksCAUMNsadap/sEOaDlYKsbe2lvwEbhakQLg3i+CnRvHIPSsXUBgEIFbg4BCSRHAhr/rzOcTvGD28bDAcPx0avTAqBomBtbMDWpVIMp44mFALl2qVAGId6jAo3OS3hLgSZ/wA/NNYVI0MfzmPmPADVjNejNq0bsM7kNt2g0MYroRUgWL2g2T/Qh7jFaWS0AhR+wgGAY0g/kgMbSrZN1DoRVKAjnjy5F+QfjDGbQvtxFBXtn2DX5cDLQEAQtgIVyQIooxXQRF03YEh0Py4olTS6arU2eu8pwCgNggU+cKogTEOwJiEMEKmJExQB0oJTevA8R9wGCtGyooA+UthMmpH/AGA1BkfRp0pbx+AJb343jD2HGShYYSHGrgWRJJNxpaGNWSYLuP8AJTbG9v7JufwGxsaF96BQQUL+VG+SFugEhZ7AQ0owdA3+/NBxO8Zvb0CAnN1JATpAQZ/vEHPyevXoGsfPeAli5bzFOcxTnMU5zFOcxTnMU5zFOczTnD7M3uKufgFXxY+BCQuiFLKQD2Hhws0C82e38WM2kD7H+RkMFCr8uZDMhmQzIZkMyGZDMhmQw0xshmQzIZkMyGZDMhmQzIZkMyGZDDTGyGZDMhmQzIZkMyGFQLegKMd8GC3fBKYLCXfYn+eQcpc/gAS8/CQ5+coUKFChgCt9vVO9us72ne0JhyD1hPbkkEom9/AZaFHR1xE1G/tAUhyKg6ID/JTWmIHBuQUk1Vprgp75BKjiGIWlBipEdCHww5wHSdYKP7FswdtyoABJ1Ugk5MGvnRwe3o89U0z1bLdVIb4DJ4PiOnTyQQy/1Ibf6HhL3ImP6zu7rGX+74E4CADpRBskQG0oeVAvKS8E3RkS64k92gSQia8NGAHuS3Si6ieBtGonB4OAERlYwpBtw/uMA+EYAUH5wF0ny1AiNWkrZekWZjozXgiKqSgaQVAem4BcFYU2o0niFBGIStEv9SHo4iJAAUqCIwdAHERxIaBnyfzfHze0j+iKfxgRcJW/g+0LwrCEGAcOFSagLK32rCCSKYSjCb6I2pEkA4ElJJ4kcITYr6xR1Qws29yAlBTAj4hAqG8repkrZPGvsIV0VqJAPkMBxEgWwvBdHgQimsUwgO4f1TS32x1LFVRyk1K2VarkQ20A4LIEu0xVFE1IECrxXJmtTDvnqQt/nzh7CAJocbSJZFBvoZY0P4muYwwmgIACovEyZJSfcDocHo819KlPVRPpOTVAMOCTarIirMBMXiKjvZlgBDltDRlYtDcYQYb9aQAdFDmkUxSdFAbwjQAyRuuQu+xrDNIQMQAAAHZeQJBgZILbUmPogEPTgthl/YxOOoXBFvNlN36Fsr/r/CqAhCn3U9ppgH6U0yO7hFGCr/B5cxt4qyOJ2/fngXYTKtiwY95QANSgNqacIBUcEcZagGWa3SvbtDTfgFTYdh7QTO7sg0BvLy4CcmlYgZOWUisFqPeIuygCaO/hWKy0sSRy4OohroWj2gyFBADzZTdCxwSpqARNjXeBSDwPC7j6oVPYpIjqNwfhRktsDqCfsrSGg0Q17iYcASOasjatVUIIBywkA6SG3D8RkLIgSCHW0gxIZJ2Ywjdw84mX+xGDgybRyZg5g5g5g5g5g5g5g5g4EaNg5g5g5g5g5g5g5g5g5g5g5g4EaNg5g5g5g5g5g5g4HUH+XiKs5Xbw/wC51IRTLuUwrlM05TsnpO1Ok7G6Tvg6TtQnbxO2/wAwg6o23RKjJxe753bFHZpifmESAHMFA8NEGZRRp4qqs/rSfZ73V8saNGjDDgQmuANDAgG6gzCXiA9n3hqfkCaJd0qgGKAZ0XDiVhgMEOkHXYKZqBPuR4ZTdByC+rZeoDCAJskGEamMMis8kpKMIlC+/wCHsBQPbcDhLYULjkBllDrP/RMqugAODchlPsIbVnTTbsP0AeP9n/fMgiYvDDajQkn3eUkJysG68ELXTZdYQXJ/wSAa6eCaI4LIj3W/yUotXjLsgxL4OOnrcpNoAqPCVTRoB+wH8KKRqib6A0G8ULiBrvIDiVCC9ddC4F4jVPzZTbx9Kc1t4bD978w5YtCRBcXqhQAALSFSFQQsid4MxXIU0QjVU0US+X6rgIIaUlayAUFRQYPkl2zfC00ItoIHKZglC82LFA4bDYDUDSsyNiik7/Go5IPCw+kJRFtYmdEHilOfXhwB2gQosSBonVQpNS9QVQhj/wBx+f6ajjyCOya6JblVjsRc5tgEf6JqMshAMaKmtbwIglgB93yXTpAIAARpIfOXshR9cJPsiBtC7TrgWNvuEmxplcEndRr9qQQB37gMVmYjYNsk/B4LvgP9RltNNIZG6VuEFJXbdAwmwG0ec1y2BLf06zcnRwyrM/cZ73/BuBhLFgiAIKwFCaaZIGyUfSbPEtVCljPmyu05vbwUctt4bX900z84gab2V9cMS9StBvDaWfYhKiwO8CCPRaYs3BYcaP8AIU/kgFkBFJwHL6BBYLZDtcIIsAiBQVAQpzEk8YUGbkiKZKA0YiFKgyIqVqTI7pwC+iOXgdL9K0hNuLw/v/fYvacft4EOQ28nEVaiBpGSpqImMgEZCAvaKOE8E1kYAEcIGoDYkfcTFFgL2Gb7ahHGOwvEgyECcNSwPEsQMAmQg31QhDIVSqGsIjRX4F7N5o98FtqnECExHGOwjQGpiOIeF5elE/3yDSKps4DLKyMy2FEb1MHDtoAPg1iSFEKtyJagYh+w14TU3pX7SPhwCBOZoFpUj3ESQN6VDd7XggfLND+eWnMlCI9x1ZTtie2J7YkfxEE/x4Dyfe8ETCHCcQZAg5YAJBEXwACDJ4qKAY6uqIwX3aj/ACMpPvgtgEeZXHwKnsX8hltvJo5XbwQEGrk/ikkkkhKP5WkkkkkkJR/A0kkkCwATmdvBtxm3ht8H4KO4bjQ2NDAfnIj5gygDdwsi/G8gIwrAAcMsngXAUo/DgKzihEKsCvBCUcrS/wAUJWUHiYkkgu0QfSVLZCVGqvBBGlhMskgl5EG+wsQsXQcZIMNuB1r/AKhqA+kENa460WjhBpoFRJAUAUaPyPXrAASHODSsDD8h+6USPJgAoEqyVpKGAGIKRtelsJrs9gAgDU6tQFmNiiiKWoID3ir4EchCF1flaFO+NNlVSYgVpr1WHYNGgjeSB0gTVD9aS9bfkeV28lDg9hNuXbwAdzBHKGb6QU2fQFSi6EuxQFgGBd1GqHsg0yeiEH0hAVxW0yAio6kSySGTVCf7ASnikIgTVsDc2QaJejsEP/ZUJY1RRNTVBFvNFxdAb0NGEbx15Cg2StbnsDXAbboPADakMqkgCxuRHJ3ZgtFDAA3rNO8UGEN6iog7RQmFG1ZotsXWDMpwBVQwxcHnLymJQA0iJIgqyxtAgk4RUh8NaI2hcpRS1hYGgfE/geCFctt4bLxiPrHCvs/FwAMIT2oPQBNWX3/RH7XiMKhJwjhV9gYfcPU7j9fEt7cJIUkEG1QS7hGgmp7CSpNBiCAplks0IQUwgSOtEY8DBDz4ABawGoUBFjjbAtetl8wIdrwJKp22Rw7GrjUqsGiWmkrGNS0AGmghFaL4o67e8phZ/T0Fw+zR5wiQ4hYMRiEssidxWNtEMDAohYhgIIvTBjfxLLr0KCiFUwk5Wv2BfnPglFHAiCG+GxKiGLrdSkopxDFSZJO5IgANh2zu1X4GhGXPbeG3/b7IL9+wr+7/AL6QKzVTTLQHue28LaGyqB4C8pEynR1k83L/ALHYX9jIDZTfADMkbgmNxAOMw3gD5KSep0qTHasd4eDgd1A/++hzXKCgENQj2EfyzSP74n/M8hFxu/wxeH0L74YhNz23qHUrFOIzFqRBEoZm8F/lGDAMasGNT6PiNNGv9eO1ukzzlM85Q3bPuqHQbh5FuD3eGLw+hffTfxue2/4Dqi4Dd4YvD+/99lNvF3257b/gOrbWVyP2g/mAJcZw8GZDMhmQzIZkMyGZDMhmQw0xshmQzIZkMyGZDMhmQzIZkMyGZDDTGyGZDMhmQzIZkMyGCA7Hi7Tc5t+/5Fp0nuBQAJHhggdbmQdQ8K4tw07T4QX+BzsgCiP3lYAWwtlPhpQWBwgjeKFHulyETukknSNQbb3YCmOP7K0G6p5VAV0Xhu0dFyvESfojyPsfO7piHp5JDjx2TCICy9lR2THbUdtR21HbUdtR21GA6TvnpO8/BAApGpT/AAB+CSSSSSSQVTgDwQdQR4TsftOc2/f8rFwFwUTxRne0M1EGEJkD6IhKGECaqgQ4c1iMVwql9Ebhn7ffAuZaAgV200Mhy2aEJkuFCh1wRaSB+xg9pzm3oc5ntozm3r9lntozm3od5htozG3r9lltozG3oebjNozG3r9ljNozG3ocriNozG3r9lkNozG3ocLlNoyG370tVrYLcAf7EbsMQ+YC4VgHNEK1gbikWiJdgwW14nY4s9EwQAgaoJ0gAUHqEnpwaBQisXVxekyKAAg1K5ptNa2OsVFJC6KYGkBJXlMV9qxiScKT8Y1UCvrkBGo/8x3iuwBhA9anD1YqkBGYf4dQgtXuARQPMN4EylB7qVtJWsq1Sk2SAQ8sg5jVqVWsaekfrR3EQVLQGZJod5Za6j7ADvgk27rcgs7oOKi0mBuvQNTpQ9aqkBKwcUxOL932UJKwaA7jUDZH12cYJLSPshbZBgLl0BCgABO94FlKwTH0BFR9xETakIKsEljG5dGj1RMht6Fye04LaMht+9LVzA77MGfxKwUfCIaGxQrp3FKpt7TSuDnKzVR5U1QqHqAtBdqc4aVt0gx0dwElYBAAC0ZreF3bXRGpGmYyGsRpDFalUCrwvBxn2iUqtYIptOubYyxVGE6CNARVFix5zgVQRxaG4tUjQaNYfjqLsEamuuGsFGEHWIgaqbuWgIPcQ1zrx1lLDA0g+l5AKFAB3lJ/yeVA0CEI5Kimwqxs6QJskQFtwlFM1TBBlaKQZ0wGWxtvWRipCcVqkaDRrDtzi1y+9toVNdiG9QGAZQJpAxIoO86gLdQEwIhPaSJJztBsvjSbUBgGUCaRh2VUn5E0lEHQA8hhFpcwA0yG3oXAbTjNoyG378tpcAupd1zuud1zuud1zuucLjhHx/J+iiiiiiiiijQbaQs/cAvcAOAGrihD6/NAXK9Uq4fqExHCZtgOMx/g2hBghy82R2nIbehcptOR2nIbfvy2jhBbQ/5SxFekFkJiXYEFXg4BGw9BKOhZhEQbhJaZVXCsGIEkif8AADsoZCF4WgcSj7iXdiCLh/k/uMGIGBAX7yjb8dpnMStyvECBIo6VxFx9SmUtiRarCfYX2oEJw5p2D683j9pyG3ocXH7TkNv35bbAvuB4WADSLESyOixEP6DQFIPyBZwxuVEKz0HGfELhoWm82bScAX1huTKozbgCjUReSssIImIDo2Tbpq3wEGAKAgPxn5zPzjqIE0cchm8WHC04IG9rfqQFSrQwRtsKgDaFFOxfZfNk9pyG3ocjJ7TkNv34Y8QQ9I2kX46NGjRo0aNGia4/F2aXbZADcl5m22TzsWBV6lAMdIQAHQr5i8pYOOKuWHVyDBhrLrQKAKlIMUV5Buj5zzZHacpt6Hiyu05bb1+Ox+05Tb0P1n9py23r+9g9pw23odbB7TltvX97K7ThtvQud38HXLbfvbl31ZIAiomqVzNGp4GYiCQKCoaG93C/arNlbJPCX345DQruZdvcMgwBxlmCbwMa+DBPCN1UZf8Aax2047b0Li9/AFyW371Kb4gGCMW2cIALjxgkJwNY/JhFqLmyPFNNGOyQAPGUkgqbvTeCgweiMMH7bQYoRQIi7AFxEbco7YftZbacZt6Fx+8Y7acJt+/y8I9v/R/n0AZ/aDLNIgN8j9DFbTidvQua3jLbTj9v3p4+UBXBI/ER+IxtIF90jc8YZg1jigB61YXBl6oN9Il0U6rIZ39iBQQWgAxCK5PSQWFw50hJ+H0x6EwF4ho4B6UAGRUX/VBRVjICDeqWUgNyDj0iBq6CYpuGowHeXuhUAEYzfwS5cencRBlMgVp6nxWXXKgGxQ28UOBJUBo2GpIORErohB07IAhBUhSFsQEYEGaa4LYSZGojUa8GwB7C4AjQjFNrGsEy0dCmrpdUuLoSwSEUhDXqIREAPYsEBe2qihJg13HCtX0UEmB+awGma25gaxURBY6yoagQOFLmzohFheTBbTm9vQuT3jNbTm9v3vY809qJcQDFAZwWOvknAzVZLRFkakkkmA7FA8IEJXZwySWMj2JSkt7nxZIg/AaQ1he0BN2XwokoPCCG5FG4Xds3iioe6hIF8iFkOMJuLQ3B9oXtOCU3Bqnxg4KcKzUZu7OsACC+BFUo93LJPAD2ALH48S7U63AgCcJAmCIzTzBqodmqlkwAIZEntbSTA1BNNmtcQba4RJflrIREgdrSuLPSBYEj/YtSC+6rRwLgoJAI1hyIwAZqB3KnqFGQAMwSRGqkKNQfUFMGNx/6YorVtbKqPZQAklnntVJ8mY2nO7ehyGC2nI7ek1GCw7zEOcynnGWw+MwDnM25+CnbM7CnEzRP8uF2nI7eh2GY2nI7ekwFpVsFAP8AsB3lkEAD7g1tL+0gGNDIMCGv5WR7irxhfeB8OGxjpvCz/v5cTtOW29DxcLtOW2/d5Tf8ggELVIBD50pYEOgBGEhCgl+2dbQPbfRCIW6IlxUtZuRHzTbZKrdmhnoiAIgQhig0EwjSXeKMqS61/QAbYTb0O5yO04Tb93ht/wAhDQySZRcgRzKj0AIJvUlKokLxP0nY6cPh+DgBrP7Dl+djl7HbeiVe2S29JrUkeqGRBFQXcQCtDAbR1g+UlzgFabtSdt+I3pBGKpYFfz/lPOtqaL0aMNoUwJNnIqGaPZQeMeBWp/MNse1DYCEoJfQNJMQ5pgm46DqUQvoYlKwiYcYsdvzJB1KIMyEhbgSSGtAaSoySbrVCFFIV0DRExZAIWjUCT2VACaIeTBFOBBBhXaygQgdw3gH64Tce5BTakc/wTg2k7ilJ9yMMFzaaxNaOggXMxYhElAvDvBBJD10LgjlTFie2C4S5JxCav1mvaaBuj3EymNjs4qFVIIJ7brC3m8z+3on8tg9vC3XMWp9952N0na/SYzpMp0mX6TujpO++kwblMw5TM+UzvlMF5TKeUzblMe5TPOUw3lML5TJ+XmZELiT12iRqgB9bOzaKluXh5SGohtYiukLNJIBhgLtjQXkg58NjhSQASi5kQV98VH4jFq8DYE3E6iE7cwkUf+oAkMjQqJdwrC7RyoCWAFQeMHd4cSWpE1gKJpR3RKdAzBCdIgrS9jDJY1mdSoBbooxIFjS4MACI+ItBD2CuSLmtACKJQUkKRnEiIQHBmgtKI0RGgWagQa6ncQK9SRpW11qwkJ0De0A8RKK6VN384b6HNQtBjhtAO2VOnw1GDRKg1QE/ShmosjP7eGkGS/bqv6v+PIkqWqBUXOAgFVyd1zuud1zuud1zvmcMjgX5ZFFFFFFFFFFFFf8AqhQjlSSDHlA4hlCCK/vgyVEntN0eXrP7ejSvz232/b1/+7/jyUwwABCgH63dPTEYcNNW4silIGQtwnECrBXfz7yostt6JyjZ/bw07L/ceczFuBWCDHsmaIFl2SazYfCGwtAqD30oIzt4tV8rZBfuDgQy+4RglLyTN0JBFN3wgRIJviTsVAQA2E46P6BhD6k2ENwKB7wSAMIqKPsYV6V9GLTUSM7uE8DBcgZFyo0DG+lKpfgP/wBj/PkOKNi+pjqsDH6xEkYD7QA+QqiP/PCJ8aW/n/lfYTb0Qt6y23hwHDzgapYnTBI9dgg0KIkgUsLgVunANvAIGVwYJqQ6KJncQG0KyYHUGgTQaJWmoogEQ0ySfmHk0WhEDcASEYIT1EyNDgaKKWmOGyZqxqLOGqaRC4zXUnSHKBMTQNRwUB5hhvC1DBbd0AQL0XBr8E3B4fIHM04iA1XtFz4h+K0aNGjRo0aMNepB2aXZJAN/wztttsacBqkYRJo13BJ/mmGB48hl34jyrZbb0Ji9/DFjtv3U5uZwfkHaBoeTKhEK2MxTlO8jpOz/ACA/PuiF5+T2ML71GOkC3Gv5SM5t6Ewu/g+zG37owX+F+SNQhOH1BBjRTMprfWwFD8U+4TNgD1qaEmoOEHC/Yt5GHEqADYkg8jxFKw+MCINBzYs0heBSG+m4tRUUVLg2lf5Q/ec2jF7ehMDv4FsXt4FSG+AyeD4jp08kEMv9SG3+h4S9yJj+s7u6xl/u+BOAgA6UQbJEBtKHlQLykvBN0ZEuuJPdoEkImvDRgB7ktmJcqF+VgkEiXulAQ3RaUaIoaxquWKGjQEMRvtoqhoXZD85EkZ4VLUVh2MfWUriLSE9HwBrUL9qweVJjA2/z/M2e8dtF3GnogSDLbelMNZBangwx1h0XA/8AOEaEfQnUjml9LIShZntD5SD/ACbmKrfEBFTXGqfz8mQ2jF4eiCGMHt4DrMBEkew8hQxyxvlMF5TtPRMTomKek7qek726Tub8T+o1MYYQ7Lnbc7LnaHgQeV6AVD6H9xu0WPQ9hgNov408A2xXZLTWY5ymB8phfKZrymU8pifKZfymY8plHKYpymXcphXKZlymDcplnKYpymQcphHKZvymD8pl/Ly8gTr1ZkcPWWEan6cNvoWb2i1nb0PzHbRi8PBSLb/D13/Jw+0Z3h6G5kNoseGpT8I08Ev9hlmuJk+RLmCghfJg9QKdg/Qvsr6wCGdiEyXWZbrMR1nfHWd59Z3b1nffnmS0I8g4fgjcf8aTvzZFZh9zLxflMp5THeUxXlMX5RJjxAhHwazI7Rm+HoWY2jC7Razt4W+LH4bsLJHvB/pAK2PmCEiTNWyYArjcfxip/dDwGrSbw3aneCywRF0dl9Iba52QBQo/cLYwphgVIFWM7ZIxQqNmhGKc+KsovYD/ABzUTcSZ+T4ay3m/xxMKkqVHdigH8YGgTI6CPZdAe40Bjj5VABvEp8IyssJqCKgkGQeppEObZqsRQA94lnICcrEYA9zB4BZDBEZ+lawEKnUlfiFRiWaXQStAEkraV94OK4EwFxEWqtr8TQCK+IIMXP7RiuHoWL2jN7Rk+H7zJsJCbfnwqkgDeRs9PeFRQQ+OjQcIGb0Q8JMtJQuLM3EFvsSO1QrtD0sWBwQZcf8AVWDgdCTWb5gArQlGKQEoL+dXDFb4gNwUjYtZDBQispEq+MkoiVVw/RsSRpdSsrC4Z4lSaoos1x03J5FtXSiBAgKg1YWmyNQ6CDaJbDBJtbBx1hlJH6AUoBp8R5icIuHwddkBLCDADivm4MCV4IQkiWGtcqkEiaQdmaQ6DG7wkagqbo9aRre8/eBGKGyFKY4BJwVFwAxyQLpFJJ9htGzpCmZkgk6NwoQUYQAaEgaEcGqIEZuAVCrThJIZIMAJEbG0VXfUBT1ohCiRHEH14gMVtGK4ehZ/acPtGd4fvaCggipkCDq8n51+daadaNZbwF6zfnM25+fC5xIlQ3RiN0YDiYbvn8rtodKFQHDQ4Dx7RyPSHYD4wCh1BYywG0Yrh6FkdozO0ZLh4CopcwIFDY8f37Y8Ffe3+BB3vrmS8/M/jj/j3vr8EG75Dfv346oiOmbyAtL2DcofUhAWDg4+hh57aMVw9Da4XaMVw8D5/RrHcNh+BMPiN3VHWW85idU7KevkfKPZfiQR2ZO2/wACIDnrr+9us0kLDYx9CwW0Yrh6Htye0Yrh+6IBY0Qhn/IOaXrFSAiv9GSK8CR3mSG8GQX88umTJHXge2I7KjtqO2o7ajtqO2o7Y8WwGR6zBdZjOsxnWYzrMZ1mM6zGdZjOsxnWEMIcaDnE/wCk8gMT/tesRZTIb/VkjvGkV4UgvLkN/PrJk2R25jtyOyo7ajtqO2o7ajtryNhIMD1ma6zGdZjOsxnWYzrMZ1mM6zGdZjOsGECqTQ8sxm0Mq5cdNCZl3OYVzmZc5g3OZZzmec5gHOZBzmMc5m/OYPzmX8/SuQJ169evXr169evXr169evXr169evXr169evXr169evXr0CZZfzmD85m/OYxzmQc5gHOZ5zmGc5g3OZlzmFc5l3OYpzmUc5hHOZjzmH85l/OZvzmJ85lPOY7zma85g/OYXzmJ85k/OZ7zmOc5kHOYBzmcc5j3OZNzmNc/MwAp4F2zOyZ2vOwp2VAGd0gwL9TFdKh4/slChQoUKFChQoUKFChQoUKFChSwYdZ3zmN85jPOYLzmCc53nqmJ1TE6pm9UxT1nZT1nYj1ncnWdiPWdlPWYp6zN6pidU7z1TBOcyXnMb5zG+f7roxYKFChQoUKFChQoUKFChQoUKFChQpYdY3zmS853nqmJ1TFPWdydZ2o9Zm9U7j1TG+f5jRQoUKFChQoUKFChinODUfU/wDSobCjwRTUBtwnd0Vf7MXePjBjjByeR29/zt6xuna54Fk6WIHwowlOnTp06dOnTp06dMmDBhAwQIFAwYMGDBgwYMGDBgwYMGDBgwYyRCnxZMqIJc9+Hjx48ePHjx48ePHjx48ePHjx48ePHHXqhmgIo//aAAwDAQACAAMAAAAQoY4A044844wwwQgQQAggAwQQwwwwwgQwQwAwAAAggwgAQwkAQgY4QM8wAg0MMAAAAYYIwgAgAEEMIIMMAIAMIMAAAAAEIIAMkEMEoIAAAAMMMMMAAIcAAIQAgQggAAAQwQAEsAAQMgIoUIMMcYIAIQgAAAAAAAAAAAAAQQ4ccAAMQoEIAIAMAAIIwAQgoQAAggkAAwUIogAAAAUQEAAAAAwEAAgAAgQIYwAIIgIEw48s4MIccAAAQYIAAMgAAAAAAAAAAAAAYQoIgAMMMAoY8kAAgAAoAAAAoAAAAAUAAAEIAQwwwQwgQggAwQgA8oEAIAAAQwwAAAIUwYwQQAIQQAAAEAgAUMIEAAMAAIAAAAEMYAAgAAwoAIQg8YMAIA4cww44U0wwwwk4www4IoAAAAAAAAAAAAYU4EsUYcIogAAAAAgAgIQwggYgwAAAUQAAQcgIU8sYs8UckEQg0AwgQwQQQgoAAAAAoUIEIEAMIIIAAAEAIAEMIoAAAAAQgAAAAAMAAAAAAAAAgAAAAAoEoIgQww4gAAAAEAgAUIIQAgQgQwQQQAAgQAAAAAAAAAsMAAEAoEAoAAAAoAAAAAUAAAAwgAAAAAAAAAAAAAAAAAAAAAAAAAAAAAAUooAAAAoAAAAAUAAAAcAAAAAAAAAAAAAAAE4Q4IAAAAAAAAAAAUYwQwgwQAwwwQQwwwg8IAAAAAAAAAAAAAAAAAAAAAAAAAAAAAAQIAAAAAAAAAAAAAAAA4AAAAAAAAAAAAAAAAAAAAAAAAAAAAAAAAoAAAAAAAAAAAAAAAAEoAAAAAAAAAAAAAA4YMscscU8E4UcckY4oAAAAAAAAAAAAAAAAsoAAAAAAAAAAAAAAEIAIw4wwwwkQ4EAAAoAAAAAAAAAAAAAAAAogAAAAAAAAAAAAAAQccs8IEAMMcU4EAAQoAAAAAAAAAAAAAAAAUAAAAAAAAAAAAAAAAAAAAAAAAAAAAAAAAoAAAAAAAAAAAAAAAAYAAAAAAAAAAAAAAAAEMAAAAAAAAAAAAAEoAAAAAAAAAAAAAAAAkIAAAAAAAAAAAAAQ0gAwAAAAAAAAAAAAQoAAAAAAAAAAAAAAAAMoAAAAAAAAAAAAAU8EgokgwAYcMIkMAAEoAAAAAAAAAAAAAAAAAgAAAAAAAAAAAAAEAAAAAEoEokgAAAAAAoAAAAAAAAAAAAAAAAQIAAAAAAAAAAAAAEAAAAAQAoMIoAAAAAEIAAAAAAAAAAAAAAAA0AAAAAAAAAAAAAAAAAEMMYwsQ8sIIMAAUIAAAAAAAAAAAAAAAAIogAAAAwwwwwAAg0AEQAQs888McscEEAEIAAAAAAAAAAAAAAAAwIIAAAAIIEAAAAAIAEoAAAAAAAAAAs0AEIAAAAAAAAAAAAAAAAkIAAAQgAAAQQAAAUAAwww044w00wwwQAQAAAAAAAAAAAAAAAAAMAEMMMEMIEIIAMEoAAAAAAoccUIAAAAAEoAAAAAAAAAAAAAAAAYIMIAMIIIIIEEEEcAAAAAAAgggAAAAAAEgAAAAAAAAAAAAAAAA8oQgAwgQQQQQQQgoAAAAAAAAAAAAAAAAEIAAAAAAAAAAAAAAAAQAgAAAUQsIMAAAAEAMAAAgQIAAEII8swEoAAAAAAAAAAAAAAAAwIAAAAAAAAAAAAAII444I4Uco4Iows4kooAAAAAAAAAAAAAAAA8IUoMgsEk0cw4IUYAAAAAAAAAAAAAAAAAoAAAAAAAAAAAAAAAAgsEEEIMIMAAAAAAQwQwwAQAQwwwM8w840Uk00E0EE044cIw844MoAAAAAAAAAQwQAAwwgAAwwAAQgAAAAAAAAAAAAAwgwgAAAAAAAcgAgAAg8ggAAAAAAAgA8cc88888888gggcccgc88888888888g/8QAFBEBAAAAAAAAAAAAAAAAAAAAoP/aAAgBAwEBPxBtn//EABQRAQAAAAAAAAAAAAAAAAAAAKD/2gAIAQIBAT8QbZ//xAAtEAEAAgECAwcFAQEBAQEAAAABABEhMVFBYfAQIHGBkcHxMFChsdFAYOFwgP/aAAgBAQABPxCngqUrOf2fT/o2FAlC3Lj168mTJixYsWLFixYseGVCv1aHpy32QRSpe9/ula4PhdNL9StRhYsWLJkya9ePLt0IlQYTDmQx4UQGBQHjOOkIcxwF1G1drZhi4YpNMBnMHocUdTfC30ZsyxFrQtpYW+ChxzPVAZRBNYahZY4mY5GWoY/EYYmSn2JjUGCZhBNYyhcSpAWGB1mGeoTnBECkBA8fLCdxXGpwnhhb27mgQZ1WGdNL1ivaeCxrRqLJzTA9gVF3lMluvCDiLzql5NLgQI4iSZtYzXvxGRhbDKTYZXlxgzDDe0CNn7iFUPIepvq2M+EQIreQB32cmAKALd3/AIk8+GCjXQLVkwbKi6VDReAfupo7ygSHYb87zaixIWCIUtA5YrlDNikPi7Vjk3AgUXg1jOph4Yi4vl+0X53M4/niFpKiO5kOailtUZ1xNbgU64s8LvmzCCAwg3dXfcoCE5hpVLGqHrCuZbcLxl4TVA5Z8d/SgQSHbhNFx4a6wPHUovzSzSUBRWDN5wWy106A5pvEQXv/ADRY6a6S4Bgf4ALCJAuj6r58+fPnz58+fPnw+jfe44i/cMvvHt4z9GS9y5cuXLly5cuXLly5cuXLly5cuXLly5cuXLly5cuXLly5cuXLly5ctI0pT3HoxKlSUI3FLzZamGNvZwHK4aw6VlpfgXo798Lly5cuUBRB8M1J4pACAOehd8Wr5999+f8AGl0659p1B7Trb27LvhE+BzrP9nz3+zoL37DXw/1Cf1bzN27du3bt1vatFuomuy+iFLWL8Oh4vp/qnjx48ePHjx48ePDRP5Y+CwNpFs07Pf8AKJOH6iRdGlF0WQTTtV+sHBhNnsov249EPZSt9IRSqs9qJYfGU6zlMJPXsg+R1L60aRuRWjRo0aNGjRInAj7+EcTR4duIF0WATRphNE7+EWE6vzl+Az8FnhTayPxBCv8AA5RZ5H+7gfSbGAXaHR+v0927du3bt0y3p+X7Q0o+L+oTzMzdu3bt27duB0lwdPX7BNq3dj23bt18nWLdCk1EW3sSAYw8V9Pdu3bt27saMr/n/rlrcxrthN27du3btyg0EyFpIU19OWod3e7du3BOd0G4lzwfnuDdgxbR32TZwD89s/L8D7JPz7/Lm/0Jvi5F8wqtvJe8+Qhxa0BFmxgFOEOjhoGUwsfTuhx6ZbYTUDTT/tdQVtVS3OS8k+VkT9XgTWFJz6JNnMCtjSUm2bEgdy0IYdZhHWNecTuSJEk5PFQVqyxxCIHhrDBoqwGwryVNcLsErL4yBM1pi2jsSwx2hp1xEVi7mnOKFDl5VYjs88uY4mOSvX4yFMAHeYEq/AlGgktzLDIBopUifmFbV0KjKss21liyx4g0AsFLQUYU/VuJzQRrtuKoH8IklZUhKNccoJmQ1V91MXgJU4SyDpz9Fm8JrOQlYJKzFZkXFqyoc6WYrXXuiLrw8kL/AGs5rUwIbOGTc8IEDaUXjhsrPQgA+LGP6XlQWxEVpe4OdjKzFsIVUPWBU+sDn6ZMmIGYBcfNVi2vYhL+K62K1hVVrUPNajiI2txQftwtuSU4DSOzU3XKnpxfQgZbtl5fV5VD7VwImb3q8YAsbNEDNKxZmW0Uyg6FsXA1ZXY1hcgED/C6xtPkP6HYWPeYUzpDn7KLIQcWmfQe7KLkgS8I4vbLoLl1at7jkMX4LhEdRnTP9dhWuwxeMU6JzlHFM37QKmVWPhAsbBnGjHdwGADlgWKWYmyKTwyPm2lskKHqT1WIgitAAsCo4luO8odD8i8PGwvg5Jz1vdmiDLloVNqaAwGpf+YaI0xpuQSYldGh4hguiDuDvUy1UgfBuOXhvtN8iA1y45P8KrgSurpWyPvSuNjCsNUbXbjrZDj1YAio3ji9kzEBVV4IsrQwNad6JSIxaY/7W8FccakXy42ato3hUT69q4KH/MJjXQvgSyh8PpirBtcPhEfvjRquMCGb+FhaZZwPC26ZpeJLZTDGPTMeapUuzLVlbTh5zBDa+6aw9WGETEksxebcuZqTgFksjNwpgiLlz/7/ABBVzA17pfxCyIdah5IY9Iojo3La9wBxR2ccK4U65S/KflwGfzhB3T58+/fg6efxAtP4xXj8c6x+IVPeHoPUKvjXci4Hb7DTsECruqMzxKyWpvplx6GhIWx+LWE2ipq5J4EsQndnQLzmpzhMlkizV4XbaqjAwAMUypY02ND6wGtlkDqEVh1O43btwGk2FpI1D04ah3N7t27Ul02ZGoZzfo7G62KeU6Wdq/lewBhG+J2UOo48JyBLAKEhmXCucQWy/OB6Qgt1pwN1pJcyohm9xyNVFaVae3du1d9FmBaD1+D2bg05gbCqNv8Ax3FvkcnHFw1qu6A5WTIJusrLWIQ/Hfq4NC3GakMWORzZtwpgVY1LtYNL3mQJjI0d4LoDDFdeloWR4alG+nohWb8KFEDAH2LBNbnJpLp5xGA65TTaCdgIuhuILSSMV2BroMStd5qv/V4SqlYw1DUXQzgMY+xXC6iqtMOOh+1Jd2LS7brBHsOqOdsrxlt/QLoGSpw0pXWEYnEYsDVVTtrt37XtRq4AMpXSmnyLd067ugw8i0fVf0yKWAgETiDzmT6e29CleJ4sAUnMnIgEPLyY7gcdVPs2+EKQOsxs2v0V/X1uf6w/04l9eyf5fYnkRhXAllZtKZHjDsWN8CyckJhf72xtA3yY6XhdApM66/JGrqPhJkPBf4Id0pwCpgRVa0uZJTyjVW6tdswZ0FKN0c6NfN3KuZ3A5fJySK21DgqtM8qJX8cQERNUEMVgYwWG7GYLxc+aJHUwaasHqVgnQaN1Rinild0FQAhLVQQPfIqUqWiBeDhMePEahePaGIYStpIVWu98A184xszktBHPenS29U42NCW0Ap+1N+Af0Jo7M7EoXIbBFq0w6prHa1EQ3AVXrCUXgYJZXzlnCSrla2thRbVy/QN2CJXAIPl57gBsGiE57yQUotvVUuVB8FHzNMr3XXdj2Bl2m68f7eZQcEwtaC+D+oBY+pye4+fPvwdNP4FH+jy5cuXLlyvdZUzgKWHK12eQjt2KULoOVO9MC7JTrRRcQSmcsBAfjvOuf3PBWltA5T0RTi8ceU9E5T0TlPROU9E5T0TlPROU9E5T0TlPRBODnYcp6JynonKeicp6JynonKeicp6JynonKeicp6JynonKeiCcHOw5T0TlPROU9E5T0TlPROU9E5T0Q/QaFn0vfuQAbAuf+P8AXrFdhxoNsCNhapoK6nBnVVOU0G9fg97du3btwWnaRD4HUXvOoveVZ8oYDMHARatLl59mQ5UByqw60t0uyFx2GshmbXCXKRveq3yg14prPe++C437XMh9YPYZLMxpR4wAHELhULRxRF/aasK8Vso0azhLl+P2PJ7jrx3czxw832Is88L6rv3NiyCLN+45PFOeXaOqay/GdhqYnb9fQxdC/O+ydeg/1nMdkLpnhf5zUnw/wmnvq2j+F4D7dx7Ef8tk/wA889Wm6Mx6osNRXmhoG8DihSG3lng9lXT/AI2ky3kQ4RBBsSMa+hM81CU6syWKssGsfXDZCOFYBRgchH0yFmELMl6wYUrFxCucuMFqbJqVVkpR80OsaNFqF9YeKp2K2s09HZYpWKwzhF8meMHp7CYaPoFw2h6LlaH0jZbCrrUmOh7QBinjKFhRZ9dbQbAPhGRTNlWwZdt5FUPo56i1IPkUVW+BaR1gB0NRr9m0oWhuIcywvKZNOaTetSO+IKXANIdHMrpZiIER49jLu5ZmevS4S12JIsIuCh0wyiSWV0Tdjlct66DrQ4COEB4UOpbCbobG3Bgy9b8TvniZlnCegU55qll8HvhIqqwxHycQAi6ZWdYBgX5XjmZ3xail5RqrEyjXY27Gnxa+6bmnWd/sLSBY6mkxy9wmXjXqrWyGCdmH0S4B4JNaMavPjAqpgx6UkGhpwlHueZAtYs0QKG9OYW9JTyenuqds2iK0YNfFi1L1zMuVTcDScPSWmr6uDGL+ofGMLglFg3ZmsMt1q+Rf8Vc33KJCYui/o1sZbiZqovwIPc4SoGhn/E88ytdJbIdVm/S7ov7FGc37oW7mzc5s8AWIEEyhB4Sm3LEyvPLlaGhnaL18VlZRWuDaac+DxQGh24pF1kKQqLGHnKAdQn9dbRgwz8PgIyQbBgZbWCxU24smCShSA4Ff6jOVfhCuy8jZAGiAUAaAd+bbxx3teCOCXpnlkQloPD8MFp4lLRwXNAXFLC6wCFi7XSO7Eq+II9JZxybICrtUMvaqnguUxwUCoUk2JcpJSTIS4u5x4xOL1w3chUq32/ge4WMA6biu+L3q/dOu+K74rviu+K74rviu+K74rvh2rwyrviu+K74rviu+K74rviu+K74rviu+K74dq8Mq74rviu+K74rviu+K74ByHUx6Bt3E/wDtxSe05DH0Afa93k0xjrT2nW3tOuvafD/5PiX8nwD+T4r/ACfA+6hDP/K58wnyefN/72uXDo1RNc1mZwDAWH57KpPxwNPmryJ177zr33j+QS95+1s7t06dOhIWEpl08H8Q4gRL2QveS4wvbGWaODFWLUiHDNBD1xdjgTUsNFlYiHwP25Z1Ur49olq9urRWUhOCxbefQwOdHOUSBxzfFRxvFNrXGDLMsvRS1+2jtFJ6QMoKjrRCs5zGbhaFqwbBsrojGVrQF3d3Vtoz1OIVCbu/O2XTdF9p2/frz7A7tZJyQ0NDdol/ZaGq2ctDcEkIvM0UwalVPZoav4xzpVHTfLxnOHxSvoGTwAtGRhbt6BlGwuV0/DaHwqK/Rtn7EOW3w40XTyXvpzAII380jWmujZCR3/nRNu4h28dif+595fF5qiIVS2XkDEbGLETNylEIjKq3/kB8JSupRalkmD+mk0XpaiuF9bWCZ9G2UhBrdwYV5KXzm8zRsqlhKfBhwrIh08nAuMYjE81gkt1lTOMkq5/7kWlQuytXFnQNkp8Ba4NYKCpp1Y7gJXlwtKX5x2bX6wRA6Bv3C/RdNzfL49ROF5FiJSjfdD8ZZdTNA0GbG+U61W6Q665G1km9bIg8pA3DpNtqF5ox01kqVUBGBBG+g07xBcwqpVXF0ToawXUwNCtu6ugI/GlbK3w6FY7CnPB1U8rrxTnZXvsK+1i8pqA6SzJYEZcM60s+n0dOLOhSGnalzjBu8Lo+gVh5GaRzhoOaR3UGxpWQgQnCoK0N233s+7l81m8Nv/tg0lieaLknL6XWrDe1XlDwKWNjRuNuZEWnqFFkmBbQyiQUFyYA3VtXpcHnlBhzfxI4wLQ+qtYw2JhGlVVPJ+kJAEro15ftcoV+3RaIHJScwBJAlim280UL7SlBK/WIOuMTP4qoFKdFFO41xI3ma+oi+T+ruHeP2EzsEAvu2GcaVBsuzqSy9GfKwkuE019E9VGe8Dj8Qabhg5ut0agDVGK7gAHdMlNzTG+XC6vclZMW2vaVHksESnPVLu18IZs6yNgQa0Xlj/4AhZpe9XKYXNzV6WZGXnPPtjGBt6kMz6+mGTFGjTzbVkbTHFwstrgestK6AKyc9IxUlbEIyhdfoFsI5x7bgUUbm4I4rRvdW4GdssMmKSQYN6GUiNlQtqwZwVZS4hde9bPaG9G3dihCONvrkMr3EyZN+Jww/bHJdwMY+TosoigkAWtBwj86/OiEkLt+LIFy7TMQLw15C552Mv7JkQAcjiuL2WfAJ+oL7k2vSQOQ9WCQBlN58h6s5D1ZyHqzkPVnIerOQ9Wch6s5D1ZyHqw3S75ch6s5D1ZyHqzkPVnIerOQ9Wch6s5D1ZyHqzkPVnIerOQ9WG6XfLkPVnIerOQ9Wch6s5D1ZyHqzkPVgWAuj3RvXWvM49iCLgy+Gu3XFy5PmLsagJyRZh/C6zFkSsq+OarBwuQJRy1U3UalQIPraEWhNdY3vBAaM4ToQx47E+N1Lr0x0fkkuMNTUJSrCd7lzu1kolu009uKpklSv6tKWXyURGymGsyk6KLAn8VsmOSlB41cioFo2sHTFK9AbDRuFYCIEngglwVdnaRQiiuoLRcVNBEv/mOi01Q3FIZPohFWilcEs+eu3UoJtlfS6XidM1XJT+T/AHOmM9o/o27/ABu9g31KruSYzj3GaAbEb20uHgGZdyE7BEjaWL9IJdMsY/ITm1a8UiWBliiVUOL84RhzYhruFMCSPVBZIh5wOyaf1IkkXL4lYYGVLzGdBqAcKXhpjvKmilVSQtLlNoyWGBptglC9pqwnQmalJcs61aqt+a4xLiXIFBayAqBPeGZLQEGzTEwIWKfOal9AMi5eYmglcS41olyFx/5crNF5o4XZ31s8+qVLmj0luZgPSLU4hryiJAFQBp3BJqotpy+sAC+EQF7ovqcd2F3tFXMPaz5EWolNuFn0hua8fI24N1gAAKPqr+s7v96pdzdc4dzm38OFLoCDzHyglICjG2DwZ0pBWdSVk+Zqh3pY5d9BwgBYA4T/AMWKVDyuBpmU4BI3GqGvelBdh6uBQKlRd5S+8PoewrdXqLSGedgFYNYCGmsrBDg2DauUos13w9Z9CtAUJAAABtC2dwKPe8YOSXgNwNrNCEX9YFoDuYuE5Nkdo8zCopeM7VQUcYzeUu8c9BcGdIAevZ0USeZghHwMmChqxHNYwV3yKb4YfayCcB8QXpakK6swg4zHO2rNgd8Rh5fxEo1cF5d110+O7s9yixuP+uydQtX+MfU4VdwjeMO5fl9hWeeddJju5YMochCEi8mOHftqBOAl+GiOHmOCneCmuC6nnOGlcJKs0j4CbwHi+wmSyWp9yN48WQ7b7Qo4ubxHW8p1r+5PtJvswNxuGMOeW/8Avlqu4RTODf7DrsEDrq8fc1cmUrvwnapRwWo4yjeHz83HUAOzl/Rc5xamAOog+Dz8Hn2uhOJ2/atcvlyU0cF5nucxYfYbdggdddj/AKRgBFK6s67BBj/welpkUr8mIqT9gyT8zD95WlbwkeU9E5T0TlPROU9E5T0TlPROU9E5T0TlPRBODnYcp6JynonKeicp6JynonKeicp6JynonKeicp6JynonKeiCcHOw5T0TlPROU9E5T0TlPROU9E5T0QZTtfYqz0WTxF5XTVcB11w7DjQKVQxasFhYGVXxedADeJGWeBtfliry4RB5SCGZlcw6Y1gqJVU1vEeKDh32zNmS24Qypgr8lgt5AT/SUchDnqos1xfXsLz45w5wTWp6yKTi3TfmKyles/EX7k0VeMPSfEFDk/ofRrnNCxYsWLPhfZcdf+06Q9oAh3pz9Pwn0CSSSSSSXBDJuosLPT7ERXLJ4pHWcbBo4XhOovaNRnJSmjZd5xxxtVcldXWGUURGa4bRrDCt/WHKHFxMi57zc3oTVItg6lpklFQHAJae/wCqQpeax/8Auutt9C1g8WsRa/h3X8/9Uh1r8oBWh378cDYjFFeDQ2nCsYjKoABOlyrp5rmPNpL4MByYOZeE76aN6DWV7S2wNzIAtMOkCAtcFMhzu25pmV/66lARIyKGipBQ2zmW0DboT4qmof3d4Zy5av8A4hSYSDsU47ekC1ZuJ4UZnAqWMKVaNaDk4oKJeW2fzRyukDtXX0ahjg3ir9+cktKFpoqS9e3BqKmDtCcEGgbCVqo0BCaSCc23AKmXRXD23yHhwl6iIoxxar+IMMgfG2nwQ7NdUVIrhNCoa52cgIClZCgiWwiuuRVmnFw/hXPg3E4GlyuOKsKlrAoIqOIeoBz4vtZXcTfAafySpzzFwcuubYraPBxJw5x3Z3xwN3UsJI13SwFqwdxwCp7Tm0F1jmA0hZD4P/BxMT2IxItCNAapcMKqboj1qgnAGtZfPeltaDLZpvC0pFaoigZWNRlDf4uhjLchZjWC3e2LhQBuHGL2qdUgwgAAYmYMQuNjsfJiBtfdLFGekc4FvZkIcsu7iSt3SlG3RgW8WmZe/IprZPbSmSAraP8AZEzmjqawQrPQAbM5y1NYXWhOMFmOFDCEOi/qeXii8NYvg0yGrmKYDUn8DryBacWK9tpBoUmHBLGHO6uUFVrylN7JGwYtGrsOUsBeNBHlr8vCG1bea9rOsbkQttv8S2ptV3Ci062IY8htrN4za0VmOFDDhGV65cD4TZa+cqEgT1VRylGXGMzwFUVYqlqIbQoef0Jx5vKU+Oc6oC5CDLjEUAAabKeStVQ4JBTLx54hrwr0D9eP/CROzeIxebN+ytCvKde+86995177zr33nXvvOvfeW6+ET7y7Xwi+86y950p7zpT3nSnvOlPedKe86U950p7zpT3nSnvOlPeNJ5WTsJXF8zWyQgYbHkyoMoTXQGthxeicCb/+tLZrFn6n9oz8N6rovflE18ywxQ4Xn5/8V6iXPURi5s3CVowCg7yalbwuEJUcd5QBl52mkGuE2a8B3gMTG1HzEyguuDnElQnqtNHfPOhBaNyNdO0qE2Q5rVCvR0b3MYJYWASzXd14IE1CwOZIblPn9MzF2H0LXTb27ShSqSG7aJ5qyidK610Dq3mnlDZcQqHCX04s1mT0R9vtPKJ1jb7CpRGNHFcyrL8TQASQ6MWgQDWSO4Ysg1CsgsE5R9cUi6gpLLA7RuycLMTx1Mswv4S4xeGDV84cfLwC1VKFfRjDLBnkhlnIdLnhlg2cxRiKwqsThhXCAcA+nUEhsFoT+4mpkjtR3z9Y9TGNPhy8fqjbUQPNE/IQFqP6jJ6zD7RN+gNgms29dt/+KtREbUTiKJcmKEjeG2n04UKFChQoUKFRC/a7RujfkAO9ttr6/Xi8lpu9pqONjlCufGdVQf5RAsmFxoAC65QRxKUCi3kIvEKcglYuDqNUlMVecBPL/wC4pum7b5ZjdD03xSeedV3/APglN4UtniGJ4FgB0XgFdWrYRKkFLCnLBvKRE+HabZbBpiAMdqEu0Gpgay6zQDJO5VhvEX0sB0q5WiPf6K5/WZJhu0mgPB/1wnf/AAVGGYgsCWN94j02rRVL4xQskkpPS4MFSgoZu8ONeUIR3NI3EC8HMEvXUYnWoY7RdqSDVAt8GiJXJIg3UcJHZSOAUKtoC/L/AFknf2ThiCd/7wMhB8aErzfo+uEcGl0bWhPw+3Q2R9f+TFJP5J520JaxJ/nAuLEDHMgKzlWYgVqip95ssxUw2YDF61DsJdKLq2s2N1qMyh7/ACRY8PjD4bTa0M5fQUHC2uQyTdvrRnuTXQbUtXwZqGXKZKhUo25wfMD2jAMAu6bwvgQCqrNWrunjMw7LvFQFTCNF2bky0W3cF07RsKRCYrzkZogRNCQjRxS8isxX2MrKBxYLV4uoucl7KyBrU5BoRgNy5MGV1qOLgXSbTJq7DmZNUxHV6r23pHQXwqy4PhppiKprtWYfOUXpELhMBmB8b41zjJeHIpMT0s5ucC7RYkcKv2zv49mYWrIp19cQLi569jxENde7sz/4JQVK6TCiL9YFJ4jMOARJVSFpusDPRyXmuXwdVlrA0KrMeBiFoQZISoXFgeMSaHK2ErUct/JFxCXKvfVaACiEgY1wohKxY21nHv2Mlokop+GX+hE8hcysiiuEXKe7UagtRXKVIVrW1VJVkVbzgFXxIeFMLaqDLfVh6kT0ZVpntuyvKFWJ0CtiridoI2o2bMFEUZrEsMoBOYiZEciZJXTXspuxMnAli4C4B4EJcUo8Yfnm2JV6g1Cckt69iqFII0Zs84NbyRx45bwVylIMgAErDijRrSHDI8kDUwrC2niyvmcKQvkIwSx8jWNWtzfGvWADLZAWy7Cc1VcAmiiDgYIcC/8Akmlups1+hhBdH9gILo0ImjTGqXhAJokQuiQC6L1bwXROvedV+85KCI9T/m1HMI0ZqbTdSUI8OS9Y4r5zWqsBO27AHYtRtSg+7rgRy60ZOUKurgvdB1BH6GKDbxz50vX7lozi1GX2kdu6lIB4J7QXDsVNK3xvymvu1BxDbBnYAirlhrG9OvlDS+GEGOLYIfPG9CUGjZzmQ9YB6zg7YMl5DEsxeJVUnV+vP6jt/wAdx5pF8qoqqEeKAN4vYXA8E455muXHwtNsQ6D89mS/WVx7Bz+eX+hRHTnzS8P6H1Tpe32SCWdR2/3ZXSt/qSo3K3+NIUDh4TQEh0EQ6memzP79X951j7ReRfEvr67+xdREYlCt0sPl9xFiXei7fY4w9tYCSLAU6PUimAPZGquOKoAhwWEXA4kjhQcMc4HBnGSS5DCvaUy8UB9ZHOZjo0BMmlqDK8biEYBLUa3pLXBXZYoYOOKNrHqhXV/VuEIQq+6Y5gWu9HOH60+eoKo21Yp5DFGgfCgOFy2IeXg24DYwyHFrXL/uhO4pQTuUVRrMED01BBu7WHhGq62LeqtZfOMznD1u3sUQZX0MDZTWZ7Bi/wAZiAjnFqNjI88UqaETIALdktxHoDowMnAE0ZKMZNueftIqbz03bt3hi2jvsmzgH57Z+X4H2Sfn3+XN/oTfFyL5hVbeS958hDi1oCLNjAKcIdHLA7KFl9O6Aw8SWqaC3LBs4uOoSgmgFgBdVKvmqOW2ulkX3sdimtA6luqi5Nkz/wAKyPA5xA7ZtvCVeb38pSfuvyLVbiBj4pVLAMANaEhoht8UhBRhWXlN+a3Ze0FruxwT1GVOoDbkdGoCkCwHegAsCuBF1NjIgoUCzygGoJ3nuhprNL0lcuo1PW6uaQEKo1dMOFP43BQCvMRqqKIfWk2AMXWMOHNbQk1SvgQWrSaDebcWI29CXjbrkqMijHaB92jfXaObNaJlq4Ky561Zhj2z9WAsFtXXd6Lt9n8EnOY8kL/ezqy4t9k0bOOFDGFI47L95177zr33nXvvOvfede+86m95dr4APvL9fCP7zpT3nSnvOlPedKe86U950p7zpT3nSnvOlPedKe86U950p7zhfAL9MPH778oakLurSCW1l806M95hfhc2A4bvudL2+z8XofRj/vbwbjUm0xkQVAYA/wAyk5dIvk3HWKmvQHS69tXCyWDLlHav+SpQ+g3YtT8vc6rt9njqCeKyWpu+O7TGvepoMyIDR1WwAXLOjWGHZjm6iKVQWUEorVDGNVbMW50gaSDaQkcMGvBh5MX8AaqvEV9Lw3s6IwcWUM6vBHKLImEEsQ0uvQD0X0aRIqdkCC9VXKXAfxMCwfArSLRd6ZTBuVDWCcm6loBBXA+W/qAXWsyeqPtH+o33Es/zX4oN1SKcyzyHhNZHUf2ls6ajQraq2quqqxXu0zdtX8Pc6dt9kq5nS9u2O0fVffFZQEAsG8LW7CN1cHLjgPAwJJ0JgnbgqqgllHTQUHTV7Iig7hVrRo7EHklAziCK83XGhGWjmV25h4vWZ5Ix8saZTia1JRg7FqEzcPmusoCCd/F4rcQ2J0o9tww6iOFr7CzPmhZSLbxxUCnFji6+hz/J9xeT5YTRxdGaSkpd3D+khQoUKFChQjB+xT/Xa3Hvz5HtPo2222u0yOQJWGWVoNVVk03Z+xC/c1ubSAuYDqOnHudU2+ydcfqu3bb6brx/r5/jvqIBWsNwLmP0wugqNw7OO/MbnTcp8D/nZT572JUQh1CNFsEUBQ962bYDZz+p0/b7JEnunbdvHgXP/H2fXyU4UjoKiKBa/GW+8JopRiwjZz+EtlieSwWfgEbUmkA1Ey8RBxZX4QetdqODLRmDSrPPCMvAGY3mWmyXnsr+ZBzWgitappyMKA1+4pZQlenVNu3nBFm/ccninPLtHVNZfjOw1MTt+voYuhfnfZOvQf6zmOyF0zwv85qT4f4TT31bR/C8B9u49iP+Wyf5556tN0Zj1RYaivNDQN4HFQQrw1Dxw/V8ehXEakO3/hCDIcRXCUchySAdlRtNXD1GFyCRsRYccCwtmGsTdyiN0uCy8Gh5eMf+Me1C1ioZdFR2u4ggwYOf3HvZozOibx1Pb7XM1cQQ4riK+gfMiWDdXRB+iS3Snx9nCttSvyQe2jheVCjpQlM+S0MbzaUa/csQepen2/zp1LeOo7duI88Chrhu76iZyM4Z/wAPD5vtjUDq72ny7+T57/J0L+TqP8nSP5Pjc+Az4hPg3cYOP65951t7wG9WpTQ1+yaevQ9vswEiEo8DpyIsHGfz/q7MDlgtahcxOWSx310asuvQnVvCREfJ9Klm3hHUHygT60XoNX7HN6Ht/wADlo6Dbp6dt+x1eq7/AGJ1Xbs+eh7djNsfRh5udXm1oQJHWQu4iM/JALecD1gVRjojRL4fXg9X2w962Zi6cgnyefns/OO5EDO3QfvOtPedee86u951t795xWM4vXXtOpPadSe06S9p1x7TqT2nRHtOqPadf+0669u9QOTkyKtRoFhrdQPLsk9T3+yIsXoe3ZqC4fRBd3JaPZYH0QUAQoAlbLcI5zKhdWUbIS81QwpaRKJl5ZgtCpYcuqfokcQJOh7Y91zWZr4wkl7F3kQK9AZhWCHLT9i1gt3KH0+ceJ6G2L/g9hVyGBSrQAtRoAysxKgCuopDwa+m3ZTdAZVZWgyysXkHKWc+6x+uxHGAmuV4RoC4D5FxEpUc0DqDgLLManKIh4v6YsoqchA/hOIFiJqMzO4I0rWjOhG8GcCil1ahhjoFY7sG8OGgsfHHsAU74qI+49O+xcGFIPbyqHsFPXt/swzNT0/XZ/r59d2Q36eDqHv2IS1gSgqo5AmDV3A4pYn8ErF0GJhBPXcqnCvlWO1DT2uc7r4Y8gbRVCvimrAu/dJRPU1aRwQbQUlD2dTaT+6RiagDmXO8kNzuVqFGLQoL4aFfIqS5QlyDhQEQZAuzy0tiXqo0BIJvYxRf/wBeJFaJSZLZXQsdGuu/qk0nnYYdoCWeGGsJ099ChNBWFIwrh86XpxLwmWkr8QeUSc9gdZhS8D8mZeZ3mHqImS63YmbZBIIg7GniRT9hXZbDdnA++w4T3GhTkILVqOXaSrPJNa1G+1sUzQF4i5WeH7WoDCYyRjeKj4y5LsKtIxaai9rTWDUiFDi1K7Nks5Pcnhevb/ZBKr1XfsYnzv8AXrNTQfkMrxR5ju+jzLBHdT4XMef9unX851H7yzSffp21Ip2kw/oPrNr8P9YHHqte5Sb7Bj18dMFzFHqf9x2yKPHBL+z+RPhzPrLsOyN6rRZ49h3r2/2R/wBPRt+wnjS9jk/BvtcuXjiRmp4LdwWW5HUHvOkPftq6G1KQ2pxj6hCPo/DuRy5clfVQgH64Qh0X5icLoX27EqIhWAkqgwr+x0W9e3+yOjHr2/YDGgHbHM6+Nt9G/wDbYOKZ11+X7A18+/s6z/Z8R7Lutvadbe06B9uw741PiE+NzpH9nUf7Pnv9nz7+9kAGG+BikeL9jw9e3+yH0nr2/wDtZvv0pRw1cAWdA/k+Z0EzaOOwKnoJh0VfXwAgQv1YAtYsWLFiwp8R7SzfyefmM/MZ+Yz8xn5jPzGfmM/MZb7NInMtvMLUDQvKz5fmH5nwP55iNFHYjV0Vz6GJdBH1kQIeMrgyfWLFixYs+JR8e7V1fz6fmM/MZ+Yz8xn5jPzGfmM/MZA7BuaNi3j2a3QhnWrRoP8AzMlitLo7cfuPQ/VvCRufPnz58+fPnz58+fPnz58+fPnz58+fPnz58+fPnz58+kOFv3CP7x7eMuNYyQr2Tz/wmRotusBDlDQ87fpXKdC8dDe86q950t7zqj3nR3vOl/edR+861951X7zpP3g029cB2ROXN8J6Car/AH7t27du3bt27du3bt27du3btygJMdN7Z3Trn/Lw+Xh8PD4vvRrco3Gvi+yY+X+yk/WhM23VgJu3bt27du3bt27du3bt27du3bt24I6toZ/y8Pi+2ULvh/8AALzJrdu3bt27du3bt266CHZYlOaiCv8ApHFtZ7JVeKT6v9pSss3Rfz/2WP3SAteYEpa/87bZnjiwpKNsgNKS70m2kSJEiRIkSJEiRI6VSpVC5AoVKZMmTJkyZMmTJkyZMmTJkwYcMOBHCZ8CCG9Oyly5cuXLly5cuXLly5cuXLly5cuXLl0HaW0azLM//9k=;" parent="1" vertex="1">
          <mxGeometry x="275" y="491" width="250" height="187.5" as="geometry" />
        </mxCell>
        <mxCell id="jG0Ftq3SYFGcGHYT_TwJ-3" value="" style="shape=image;verticalLabelPosition=bottom;labelBackgroundColor=default;verticalAlign=top;aspect=fixed;imageAspect=0;image=data:image/jpeg,/9j/4AAQSkZJRgABAQEAeAB4AAD/4gHbSUNDX1BST0ZJTEUAAQEAAAHLAAAAAAJAAABtbnRyUkdCIFhZWiAAAAAAAAAAAAAAAABhY3NwAAAAAAAAAAAAAAAAAAAAAAAAAAAAAAAAAAAAAQAA9tYAAQAAAADTLVF0BQ8AAAAAAAAAAAAAAAAAAAAAAAAAAAAAAAAAAAAAAAAAAAAAAAAAAAAAAAAAAAAAAAlyWFlaAAAA8AAAABRnWFlaAAABBAAAABRiWFlaAAABGAAAABR3dHB0AAABLAAAABRjcHJ0AAABQAAAAAxyVFJDAAABTAAAACBnVFJDAAABTAAAACBiVFJDAAABTAAAACBkZXNjAAABbAAAAF9YWVogAAAAAAAAb58AADj0AAADkVhZWiAAAAAAAABilgAAt4cAABjcWFlaIAAAAAAAACShAAAPhQAAttNYWVogAAAAAAAA808AAQAAAAEWwnRleHQAAAAATi9BAHBhcmEAAAAAAAMAAAACZmYAAPKnAAANWQAAE9AAAApbZGVzYwAAAAAAAAAFc1JHQgAAAAAAAAAAAAAAAAAAAAAAAAAAAAAAAAAAAAAAAAAAAAAAAAAAAAAAAAAAAAAAAAAAAAAAAAAAAAAAAAAAAAAAAAAAAAAAAAAAAAAAAAD/2wBDAAQDAwQDAwQEAwQFBAQFBgoHBgYGBg0JCggKDw0QEA8NDw4RExgUERIXEg4PFRwVFxkZGxsbEBQdHx0aHxgaGxr/2wBDAQQFBQYFBgwHBwwaEQ8RGhoaGhoaGhoaGhoaGhoaGhoaGhoaGhoaGhoaGhoaGhoaGhoaGhoaGhoaGhoaGhoaGhr/wgARCAJYAyADASIAAhEBAxEB/8QAHAABAAICAwEAAAAAAAAAAAAAAAYHAQUDBAgC/8QAFAEBAAAAAAAAAAAAAAAAAAAAAP/aAAwDAQACEAMQAAAB1k21k1I62nWOpjZbgiqQ9U1CQ90iONnzGmSDhNKkPVNQ3XGalbn0VDm3RUS3RUS3RUa3BUebbFSLbFSraFTLZFTZtgVMtkVNi2hUi2xUmLcFR4t0VEt0VEt0VCt4VCt4VEt0VEt0VEt0VGtwVGtwVGtwVItsVItsVKtoVNm2BVGbWFVZtQVZ9WiKuxaQqxaYqxaYqxaYq1aUCNXneTMrFZ4rFZwrKL3rUhobNgNlGv8ArvfJ09TIcHFn6wY0+4wdPm5cHJ1ObB2eqwa3sdjBsmrwbVqcG3acbhpxuGnG4acblphumlG7zoxvGjG9zoRvs6Ab/MfEgR8SBHxIEfEgR8SBHxIEfEgR8SBHxIEfEgaDJvmhyb1osm8aPJu2kybpphuWnG4acbhpxuGnG4acbhpxuGnG46PVH33OgO/2dONw043DTjcVdOYEbe1qqtUKj2hZCtxZCtxZCtxZCtxZCtxZCtxZCtxZCtxZCtxZCtxZCtxZCtslkKZss3YAAAAAAAAAAAAAAAAAAAAAAAAAAAAAAAAAFY2dWJw2pVlplc2NXNjAAAAAAAAAAAAFS7rTbksAAAAAAAAAAAAAAAAAAAAAAAAAAAAAAAAAACsLPq8+LTq20iuLHrmxgAAABDpjHzr8fHrjabPR7w3QAAAAKl3Wm3JYAAAAAAAAAAAAAAAAAAAAAAAAAAAAAAAAAAFXWjVpm0avtArmxq5sYAAAAAAAAAAAAqbc6bdk+AAAAAAAAAAAAAAAAAAAAAAAAAAAAAAAAAAq20qrOS0Kxs4oqK+nx5g+vTo8v49Qjy9n1APMD0+PMT06PMXJ6ZHmzl9HDzrn0SPOr0UPOfB6THmfj9ODzBxepB5Vv6WAAAAAAAAAAAAAAAAAAAAAAAAAAAAAAAAAABVdqVUdizays0K0+yyFbiyFbiyFbiyFcCx1cCx1cCx1cCx1cCx1cCx1cYLIVuLIVsLJVhYh2wAAAAAAAAAAAAAAAAAAAAAAAAAAAAAAAAAKptaqTtWZWdmFc2NXNjAAAAAAAAAAAAFS7rTbksAAAAAAAAAAAAAAAAAAAAAAAAAAAAAAAAAACqLXqg7ll1rZRXFj1zYxp8aiPFkfdV9osf6qzYlgfEJ7JNOPQQksnk18KLP6ddd4nfDEe+Sf7hH0SjjiHOTzNe9YszlicsKm3Om3JYAAAAAAAAAAAAAAAAAAAAAAAAAAAAAAAAAAFUWvU537JrWyiubGrmxhx8gAAAAcXKMZAAAAACptzpt0T8AAAAAAAAAAAAAAAAAAAAAAAAAAAAAAAAACp7YqY2Fk1rZR540/p8eYXp4eYPn1CPL2fUA8wZ9PDzB9enR5j+/TI82cvo4edc+iR51eih5z6/pQeZ+P04PMPD6kHkD0JOwAAAAAAAAAAAAAAAAAAAAAAAAAAAAAAAAAAqa2anO9ZVbWSAAAAAAAAAAAAAAAAAAAAAAAAAAAAAAAAAAAAAAAAAAAAAAAAKntiqDvWTW1kgAAAAAAAAAAAAAAAAAAAAAAAAAAAAAAAAAAAAAAAAAAAAAAACqbWqo7lk1rZQAAAAAAAAAAAAAAAAAAAAAAAAAAAAAAAAAAAAAAAAAAAAAAAAqu1KsO1ZNbWSAAAAAAAAAAAAAAAAAAAAAAAAAAAAAAAAAAAAAAAAAAAAAAAAKstOrDs2VWtlAAAAAAAAAAAAAAAAAAAAAAAAAAAAAAAAAAAAAAAAAAAAAAAACrbSqw7NlVrZQAAAAAAAAAAAAAAAAAAAAAAAAAAAAAAAAAAAAAAAAAAAAAAAAq20qtOxZVbWSAAAAAAAAAAAAAAAAAAAAAAAAAAAAAAAAAAAAAAAAAAAAAAAAKttKrTs2TW1kgAAAAAAAAAAAAAAAAAAAAAAAAAAAAAAAAAAAAAAAAAAAAAAACrbSq47Fk1tZIAAAAAAAAAAAAAAAAAAAAAAAAAAAAAAAAAAAAAAAAAAAAAAAAq60auOeyq0ssAAAAAAAAAAAAAAAAAAAAAAAAAAAAAAAAAAAAAAAAAAAAAAAAVdaNXnJZlZ2YAAAAAAAAAAAAAAAAAAAAAAAAAAAAAAAAAAAAAAAAAAAAAAAAKws+sRZ1Y2cAAAAAAAAAAAAAAAAAAAAAAAAAAAAAAAAAAAAAAAAAAAAAAAAKxs6sj5s+r7QAAAAAAAAAAAAAAAAAAAAAAAAAAAAAAAAAAAAAAAAAAAAAAAAFZWbWZx2hV1ogAAAAAAAAAAAAAAAAAAAAAAAAAAAAAAAAAAAAAAAAAAAAAAACtLLrQ4LSq20io9p9WMVusgVusgVusgVusgVusgVusgVusgVusgVusgVusgVusgVtmyBTNlwDdFgAAAAAAAAAAAAAAAAAAAAAAAAAAAAAAAAAAVtZNbHWtKrLTK5sauLHAABXhYbSdckaJ7A3iLfBLEX7xukT+yUobzkrAABU250u6LAAAAAAAAAAAAAAAAAAAAAAAAAAAAAAAAAAArWyq1OtadV2oVzY1c2MAAIfMBAMWAIbwTkaDWTIQaRbcRDpzsQbvSsAAAVNudNuSwAAAAAAAAAAAAAAAAAAAAAAAAAAAAAAAAAAKzsyszr2pVdqFc2NRUVPT7zB9Hp15fweoXl7J6geYB6feYh6deYuQ9MvNnKejnnXJ6JedR6Kec+A9JvM/GenHmDiLL3dJ38SwAAAAAAAAAAAAAAAAAAAAAAAAAAAAAAAAACsrNrI4LUqq1QiPVJwhGSbIVkmiF5JmhuSYofkl6IZJciOSWolkliJiWIoJWiolSLCUozJgAAAAAAAAAAAAAAAAAAAAAAAAAAAAAAAAABWNnVgcNq1VapV1gQuxTWtkNZjaDVY2w1DbjT43I02N0NLjdjSY3g0eN6NFjfDQ434j6QCkploN0WAAAAAAAAAAAAAAAAAAAAAAAAAAAAAAAAAABWFn1gcVqVZaZXNjVzYwAAA6nbihJfiA6QtrsVVuidqy6RbSr5SScAAAFTbnTbksAAAAAAAAAAAAAAAAAAAAAAAAAAAAAAAAAACr7Qq8+LTq20iubGrmxgAAAAAAAAAAACptzpt0T8AAAAAAAAAAAAAAAAAAAAAAAAAAAAAAAAACrrRq4WjV1olD7mfaA0GJB9kY+JX9EQxMvohWJv9EFxPfor/ADYOSA8k8yQf6m2CFJrghPBPBAPiwRXnFY+Cirl78kO4AAAAAAAAAAAAAAAAAAAAAAAAAAAAAAAAABV1o1aZtGnbJNy02DdNLg3bSYN40Y3jRYN80I3zQYJAj4kCPiQI+JAj4kCPiQI+JAj4kCPiQI+JAj4kCPiQI+JAj4kCPiQI+JAj4kCPiQI+JA0A37QjfNFk3jRjeNJk3TSjdNMNy043DUDbtSNs1Q2rVjaNYNm1o2TXDYtdk2DX5O+6GTvOjk7rpjuOnk7bqZO06uTs1bZNYkVsmMW+QdOBB04EHTgQdOBB04EHTgQdOBB04EHTgQdOBCE3EJTYQpNRC00ELzMxDMzIQ3MxEOzMBDkxENTIQzE0ELTQQpNRCcTcQjE4EHTgQdOBB04EHTgQdOBB04EHTgQdOBB04EHTgQdOBCMzYQrM0ELzMxDfqYCHYmQheJqIT8zgQdOBB04EHTgQdOBB04EHrf0BUZHJoGcA+gxgPn5DHyHzgPnAYwDAYwAAAAAAGMgABkAAAAAAAAADIYyDIAZBkGcgAAAAAAAAAAAAg4f/xAAtEAABAwMDAwQCAgMBAQAAAAAABAUWAwYVAhc1ARRgBxM0NjBAEjMRIDEyEP/aAAgBAQABBQK2LZTXEj27azbtrNu2s27azbprNums26ajbpqNumo26ajblqNuWo25ajblqNuWo25ajblqNuWo25ajblqNumo26ajbpqNumo26ajbpqNumo26aTbtpNu2k27aTbtpNu2k28aTbxpNvGk28aTbxpNvGk28aTbtpNu2k27aTbtpNumo26ajbpqNumo26ajbpqNumo25ajblqNuWo25ajbpqNumo26ajbpqNums26azbtrNu2s27azbtrNu2s27azbxsNvGw28bDbxsNvWw29bTb1tNvm02/bTb9tIA2kBbSBNpA20gbcQNuIG3kCQEDQEDQkDQkEQkEREFREFREGRkHRkHSEISEISkJSj42xejZnX/FrVGxEk09HJT06JbhU1zJKtFFU41afXW6qdNWi8Kq6xpdFKyurSJnBz0ulVKnoOCpTTqVln8k7quUqKXVfoKj0q1atKxcp65hTo0dP+eEU19fqqd3CsjVf7eofT/LLY7mgSM3V+ZtRmGP+fR4ZOnXS6sek19LWqaejqy9OmVZehlmboatVt1KyVYxItPVwYdXXLMx0WMGlTpemjT1rODEo0V9dv1zqrZetbOtZnWszrWZ1rM61mdazOtZnWszrWZ1rM61mdazONZnGwzbYZtsM02mabTMtpmW0zDcZhuMu3mXbzLN5lkBlkBlkBlkBlkBlkBlkBlkBlkBlkBlkBlkBlkBlkBlkBlkBlkBlkBlkBlkBlkBlkBlkBlkBlkBlkBlkBlkBlkBlkBlkBlkBlkBlkBlkBlkBlkBlkBlkBlkBlkBlkBlkBlkBlkBlkApXpK+hMrTUNfetXu6lzVr65ZAZZAZZAZZAZZAZZAX2uTKGmyW1ErbcE1mCazANRgGoj7SR5pI60kcaCNtBGmgjLQRhnIwzkXZyLMxFGYijMRNlIkykRZSIMhD2Qh7IQ9kIeyEPZCHshD2Qh7IQ9kIeyEPZCHshD2Qh7IQ9kIeyEPZCHshD2Qh7IQ9kIeyEPZCHshD2Qh7IQ9kIeyEPZCHshD2Qh7IQ9kIeyEPZCHshD2Qh7IQ9kIeyEQZCIMpEWUiLKRJlIkykSZSJsxE2YijMRRmIqzEWZiLMxFmYizMRZmIszEWZiLMxFmYizMRZmIszEWZiLMxFmYizMRZmIszEWZiLMxFmYizMRZmIszEWZi7GNvQIbB4vyK+eLsLixIofnjX2FzHY3Mdjcx2VznZ3Odnc52lznaXQdrdB210HbXQdtdJ290nb3SdvdJ7F0nsXUexdR7N1Hs3UezdZ7V1ntXWe3dZ7d2Ds63ExJ2ly0O7f4LfPF2FxhaH9P7PqJwVk/WPBb64qw+MLS/5+z6h8DZP1jwW++KsTjS1P7PxOLnrTLKipVq0d8qxvfqqHRN1X9Kv4vUTgbJ+seC35xNiccWt/f+JUiUa1etG5a1mltc/54xbrUJqCr3vxeofA2T9Y8FvzibF44tf5X7PqHwNk/WPBb94ixuPLY+b+z6h8DZX1nwW/uIsbjx8tt3orMNeRhryMJeHUwF3EcusjV1EYuki1zkUuYiVykQuQh1xkPuM6WlcpFbnIzdXQjd2Ebuwjd2HW27r6kVufqRK5SIXGQ24iF3AarGfNZbSCs1svgt/cRY/wPIr/AOHsj4PkV/8ADWT8ElVetUkTmSJyJE5EjcSSOBJF5JFxJVpJVhJlhJlZJlZJ1RJ1RJ1RJ1JKFJKFBKFBKa5Ka5Kq5KqxK6xK6pVvPSnEymiso+C+oHDWV8Is/wDo/Z9ROCsn6x4L6gcLZXwi0f8Ax+z6h8DZP1jwX1B4Wy/hlp/+hWv7WpodEvWhqr0tOj3NHXX1UUumjVWp6T36XQ6KqHWv1qaemruKX+NTmi019K9Lr66q1PQaHFHVo9VqbTQruaJLq1K0+ir0U0dVbU5pNNBC49FlP3qf+fc0fyp1NFXSeofA2T9Y8F9QeEsv4hav9w8JalZT0TVEPWo1rdJqZl1NTraVdGlVZlfWnValmvrTQKNKhcirqF9RoXadOhHr0LkKbqpS09Siq3dNFdQr0oVNHXj6vTTUbVJob6+qnXaa67R1bFFbVXbFuinWbHKtSZEtSh0PUPgbJ+seC+oXB2Z8Qtf5P/zro06tX4dOjTo0/k9Q+Bsn6x4L6hcHZnxC2Pmfs+ofA2V9Z8F9Q+Csz4g5uTpaa/cd0NxnQ3EdjcF4J69E7fCcvpNn4mlwEyuImFxkuuQltynS7blJdcpMbkJlcZM7jJncR1vO4iYXGS+4yX3IS25CWXKObw9u1CzdGqnbfgvqHwNmfE8i9Q+Bsz4nkXqFwVmfE8i9QeCsz4nkXqDwdmfE8i9QODsz4nkXqBwdmfE8iv8A4SzPieRX/wAJZnxPIr+4SzPh+RX9wtmfD8iv7hrM+H5FfvDWZ8PyK/eHsz4fkV+cPZnw/Ir84izPh+RX5xNmfD8ivzibM+H5FffFWZ8PyK++Ksv4XkV98XZXwfIr64uyfg+RX1xlk/A8ivnjLI4/yK+ONsfjvIr442xuN8ivfjbF4zyK9+OsXi/Ir246xOK8ivbj7D4kSKH5419hcx2NzHY3Mdlc52dznZ3Odpc52l0Ha3QdtdB210HbXSdvdJ290nb3SexdJ7F1HsXUezdR7N1Hs3We1dZ7V1nt3We3dg7OtxMSdpctDu3+C3rx9h8SWh/T+z6icFZP1jwW9ePsLiC0v+fs+ofA2T9Y8FvXjrC4ctT+z/ZO/a6ijQ6UNdbo8aOqrP0NNLU7pdOvNdPZqPnSnp1vqbQOivUjRJHDVVpoVK3rXTLVurVSVOCjT/t6icDZP1jwW9uOsHhS1v7/APbQzVihb3ZqKTSu0Gpj1VaVO2aGjrpRKNSdxYui/rrt3+VJWj1qkSpG5VUqpE7adfVscKWjQ3rKen/b1D4GyfrHgt78bYHClr/K/Z9Q+Bsn6x4Le/G2BwhbHzf2fUPgbK+s+C3xxnp/wY+W270VmGvIw15GEvDqYC7iOXWRq6iMXSRa5yKXMRK5SIXIQ64yH3GdLSuUitzkZuroRu7CN3YRu7Drbd19SK3P1IlcpELjIbcRC7gNVjPmstpBWa2XwW+OL9P+B8ivni/T7gCvc7Qm1zBkJeyEuZSXMpLWUljKSxmJWzEqZiUsxKWYlLOShnJQzknZyTs5J2ck7OSZnJMzkmaCStBJWgkjQSRoNNwtWvV4NfXFen3AFqJaFWn2CUx6QxyMxyMxqIxiIxiExaExSAxKAxLeYhvMQ3mHbjDtxhm4wzaYVtMK2mEbDCNhhGwwbWYJrME1l9NyNEzWdU11rc8FvrivT7gC0f6/2fUPgrJ+seC31xPp99fLT/DXU0UuilV0V9FdRSTaKNbQopfl9Q+Bsn6x4LffEen/ANfLV/t/A9aNdTUpoam4/n1VU9Sipqp0U2vU4Jli/rS6LF9RPrXrKHRl1KetP8HqHwNk/WPBb74j0/8Ar5a3yP2fUPgbJ+seC35w9gfXy2Pl/s+ofA2T9Y8Fvzh7A+vCa5E9vOW4zWbjNZuO1m47cbkIDchAbkoTchEbkozclIbkpDclKbkpDclCbkN5uO2G4zWbjNZuM1m47WbkIDclEbkpDcpMbl0C47w0PqCyvrPgt+8NYH18cmRC8EJYiEsRC2MhjGQ5kIeyEQZSJMpE2YijMRZnIwzkZZyNNBG2gjbQRpoI00EZaCMs5GGcjDORhnIuzkWZyLMwlS0UVDwW/eFsD6/5Ff3C2OvSpmLLN5l28y7eZhuMw3GYbjMtpmW0zTaZptM22GbbDNthnGszrWZ1rM61mdazOtZnWszrWZ1rM61mdazOtZnWszrWZ1rM61mdazOtZnWszrWZ1rM61mdazOtZnWszrWZ1rM61mdazOtZnWszrWZ1rM61mdazOtZnWszrWZxrM42GbbDNthmm0zTaZltMy2mYbjMNxmG4y7eZdvMs3mWQGVQGVQGUQmUQmTQmTRGTRGSRGSRmRRmRRmRRmQSHfpDv0p36U75Kd8lO9THepjvEx3ic7xOd2nO7oHdUDuqB3NE7midxRO4oncUi/KmjWy2SxN7o1Q9kIeyEPZCHshD2Qh7IQ9kIeyEPZCHshD2Qh7IQ9kIeyEPZCHshD2Qh7IQ9kIeyEPZCIMhEGQiDKRFlIiykRZSJMpEmUibKRNmImzEUZiKMxFGYirMRVmIqzEUZiKMxFGYibMRNlIkykSZSIspEWUiDKRBkIgyEPZCHshD2Qh7IQ9kIeyEPZCHshD2Qh7IQ9kIeyEPZCHshD2Qh7IQ9kIeyEPZCHshD2Qh7IQ9kIgyEQZSIspEmUibKRNmIozEVZiKsxFGYiTKRFlIgyEPZCHshD2Qh7IQ9kIeyEPZCHshD2Qh7IQ9kIeyF6MLc1NnpzwfkXqLwltOC1hQSuuSusS7US8mOgmVEmlAmycm6UnKQnSMniInqEnyEn6A3AbzcFuNwm43DbTcRtNxGw3FbDcVsNxWw3FbDcVsNxWw3FbDcVsNxWw3FbDcVsNxWw3FbDcVsNxWw3FbDcRrNxGw3EazcRrNxGs3EazcRrNxGs3EazcRrNxGs3EazcRrNxGs3EazcRrNxGs3EazcRrNxGs3EazcRrNxGs3EazcRrNw2w3DbDcNsNwm03CbTcFtNwW03BbjcBuJ+3E/byft5Pm8nzeT5vJ83k+byfN5Pm8nzeT5vJ83k+byfN5Pm8nzeT5vJ83k+byfN5Pm8nzeT5vJ83k+byfN5dFxp7gRf//EABQRAQAAAAAAAAAAAAAAAAAAAKD/2gAIAQMBAT8BbZ//xAAUEQEAAAAAAAAAAAAAAAAAAACg/9oACAECAQE/AW2f/8QATxAAAAQCBQcGCgYHBwUBAAAAAAECAwQ0ETWSk9EFEjN0lMHSEyExYJGxEBQiMkFRdYKhsiNAYXGk4SQwNkJzgaIgUmVyg4TiFUNTYqNk/9oACAEBAAY/An4vKD0Ty3jCknmqLn5iP1faNPGXieEaeMvE8I08ZeJ4Rp4y8TwjTRl4nhGmjLxPCNNGW08I00ZbTwjTRltPCNNGW08I00ZbTwjTRltPCNNGW08I00ZbTwjTRltPCNNGW08I00ZbTwjTRltPCNNGW08I00ZbTwjTRdtPCNNF208I00XbTwjSxdtPCNLF204DSxdtOA0sXbTgNLF2ywGki7wsBpIq8LAaSKtlgNJFWywHnxV4WA8+KvCwHnxV4WA86JvCwHnRN4WA86JvCwHnxV4WA8+KvCwHnxV4WA0kVbLAaSKvCwGki7wsBpYu2nAaWLtpwGli7acBpYu2nAaaLtp4Rpou2nhGmi7aeEaaMtp4Rpoy2nhGmjLaeEaaMtp4Rpoy2nhGmjLaeEaaMtp4Rpoy2nhGmjLxPCNNGXieEaeMvE8I08ZeJ4Rp4y8TwjTxl4nhGnjLxPCNPGXieETEbeJ4RMRt4nhExG3ieETEbeJ4RMRt4nhExG3ieETEbeJ4RMRt6WAmI29LATEbelgNPG3pYDTxt6WA08be/kNNGX35DTxt9+QmI2+/ITMdfFgJqPviwE3H3xYCcyhfFgJzKF8WAncoXxYCdyhfFgJ7KN+WAnso35YCeyjflgJ/KN+WAn8pX5YCfylflgKwyltBYCsMpbR+QhY2Cjo5xXjKErQ49SlSec9wymZf+Z35EiBeh4Rhp7lmyz0NkRhL3jSVm9yhchml9Fmkf8/R6RAt8n9KRH41zfvZpmRfzopBrTGFEm5CqeoJKfojKj4feInNcIqOR5Po/ePnC2+RdzSjSb5XyM3NpLm6afgGGm9EUU428s0/5qEl2BpMV9CWYebnJL6Y6ec/soGbFMtPpZY/7iSOgzP8hk5mHLlHHYQ8xFHSsqOk/UQbNUa1DKbYbWrPIqHDV6/s+4PPJjHaERiWuRzEZubSX/rT6fWEUMrJhbym/wBygiL7c6mn+Qi1Ji3oo2HySTZob50+SZ9CS5+cwpDDL2c5E8mgjQRKSWYR9CjIQbSnjgjcccSajSg1HR2lSKFLSpbpG0web5zhLzcDHP1JQs4kjz4k2fFc0uYip5/XT6Qw0y4kif8AJOktFz+f93o/tw5f/rT8qg+zlCJZaNcQo81xXSWakFTHwh5vR9IXMFr8cgc9fMpWemkwRpjYEjI6dIkOZsXAFynn/SI8r7waackpp9KTbIxR49AdOdpkdI5o6A87O0yOn1hNEdAeR5v0yOYOvRD2S33HTpNTim1DNYjYBKSNWb9MjyafQQbNUVk0za0f0iPI+4H+nQHOedpkdPrBxKYnJpRB/wDc5VGcDNOUIEs7nOh9HOFIiIvJziF+cSnUHSIZCovJvIMU0M8ojN5xDrLKUGluH0bRPIJJH6xWUHtCcRWUHtCcRWUHtCcRWUHtCcRWUHtCcRWUHtCcRWUHtCcRWUHtCcRWUHtCcRWUHtCcRWUHtCcRWUHtCcRWUHtCcRWMHtCcRWMHfpFYwl+kVjCX6RWEJfpFYQl+kVhCX6RPwt+kT8LfpE/C3yRPQt8kT0NfJE9DXyRPQ18kT0NfJE9DXyRPQ18kT0NfJE9DXyRPQ18kT0NfJE9DXyRPQ18kT0NfJE9DXyRPQ18kT0NfJE9DXyRPQ18kT0NfJE9DXyRPQ18kT0NfJE9DXyRPQ18kT0NfJE9DXyRPQ18kT0NfJE9DXyRPQ18kT0NfJE9DXyRPQ18kT0NfJE9DXyRPQ18kT0NfJE9DXyRPQ18kT0NfJE9DXyRPQ18kT0NfJE9DXyRPQ18kT0NfJE9DXyQRNZXahj9bbjZ/NSDN3LiYkv7rjjRfKRDlfGYLlejP5RNIVnxMGrPKhVLiechPQ18kT0NfJE9DXyRPQ18kT0NfJE9DXyQwmGiGnlpiknQhZKPoUIlUVCQ76kxa0kbjRK5qEirYPZ04CrYPZ04CrYS4SKthLhIq2EuSFWwt0Qq6FuiFXQ12Qq6GuyFXQ9gVdD2BVzFkVcxZFXsdgq9nsFXtCr2viKvb+IkG+0xIN9piQRaViJBFpWIkEWlYiQRaViJBFpWIkEWlYiQRaViJBFpWIkEWlYiQRaViJBFpWIkEWlYiQRaViJBFpWIkEWlYiQRaViJBFpWIkEWlYiQRaViJBFpWIkEWlYiQRaViJBFpWIkEWlYiQRaViJBFpWIkEWlYiQRaViJBFpWIkEWlYiQRaViJBFpWIkEWlYiQRaViJBFpWIkEWlYiQRaViJBFpWIkEWlYiQRaViJBFpWIkEWlYiQRaPESDfaeIkG+0xIN9pir2+0xV7fxFXtfEVe18RV7Qq9oVeyKvZ7BV7PYKvZ7BV7PYKvZ7BV7PYKvZ7BV7PYKvZ7BV7PYKvZ7BV7PYKvZ7BV7PYKvZ7BV7PYKvZ7BV7PYKvZ7BV7PYKvZ7BV7PYKvZ7BV7PYKvZ7BDOwcKhlfjSE0p9XOIvXV9yescLrje8Rmur7k+CLXCRkPCtMxC2SI2qT5hW0Ns4rWFuBWkJcCs4O4FZQdyKygrkVjBXQrCBujE/AXRieyfdmJ3J92Yncn3ZicyddmJzJ1hQm8nWFCbybYUJrJthQmcmWVCZyZZUJjJdlWAmMl2V4DT5L7F4DT5K7F4DTZK7F4DTZJ/rwCImOVk9xk3CQZNEqn4hmMaQaEO08yvsOjd1Ghtcb3iM11fcnwZW9pPbvrTesJ7lCB9/51dRobXG94jNdX3J8GWPaTu760jWE9xiB9/wCdXUaG1xveI3XnO5Pgy2X+JO/qyZ8dgoJPJ51MSVOdz+jyiEEUJEQri3zOl3kzUgyop5izt45SlnxjluSpzDzfPzaaKafiIhERyT76VoQ3yaTQSjV/MxmxqWVoMuZbXNR9lBn+rRrCe4xA+/8AOrqNDa2jeI3XnO5Pgy77Sc/VlEQb7TR8nmKJxk3Kef8AzEEOFEw6eSaoJRwxmRmfTzZ/2ECa5ZgkJfN7lOQ5j9Pm5/rpDxxEQ0rPJC0uNs5uatPRzZxjlY19CqCoShpJpT9/T+rRrCe4xA+/86uo0NraN4jtec7k+DL3tBf1pGsJ7jED7/zq6jQ+to7jEdrzncnwZe15X1pGsJ7jED7/AM6uo0PraO4xHa853J8DkRkCIiD8ZcUt1KHuSzfV6ecaSM24uIaSM24uIc7sXt3/ACGkidt/5DSP7Z+Y0j21/mNK5tf5jSr2oaVW1DTHtI0/4kxMfiTEyW0mJ38UoVge1LHNlNe2LFZr2xYrNzbFis3NsWOfKLh/7xQ5409qUJr8UYmPxJjTFtBjz0348vk1fe8IaEiqCdbzqaDp6VGfUaH1tHcYj9fc7i6xsa2juMR+vubusbGtI7jEfr7m7wPJyfkiJiksuG2pZKIipIfs9E3hYD9noq2Q/Z6LtkP2ei7Q/Z+M7R+z8b2ioI4VBHCoI/sFQZQsioMoWRUGULIqDKNgVBlGwKhyldiocpXYqHKV0KhyndCocp3QqHKlyKhypciocqXAqHKtwKhyrs4qHK2zhKozJWUIVszoz3Ws0gl6FcS60rzVJ9PUZjWkdxjKGvu7vBlX2k9u+tN6wnuUIH3/AJ1dRmdaR3GMoa+7u8GWC/xN7d9aRrCe4xA+/wDOrqMzrSO4xlH2g7u8GWvaTvgbbSw7EOOEZklvN9H3mQ5Z11MOmkyPljzKDLpCVqcQSFdB53SDQSk55FSZU85BKzdRmK81WdzGFZy0lmFSqk+ggf0ifJOg+foMGwTzfLkVPJ53ldgzTUWdRTRSEHyqKF+aed0jkFRkOT9NHJm6WdT9wUSIllRoKlVDhcxBWetKc0s5VJ9BBbzUWwtlHnLJ0jSX8wT6ohomVdDhrLNP+YJMTGQ7KjKkiW6SQhpT7ZOr81BrKlQUyl1s3klSaM7nL+QdeS+h1DXMrk1Z3P6hyikcgg1ZqM5xJmrsMUZ6aaaKKfSDTnFnEVJlT6BnNKJafWk6fAjWE9xiB9/51dRmtZT3GMo+0Hd3gy77Sd8EK6hiIfQhKyMod/klc9HpziGTSXBm+aXHTSySkqUkqPWfSYSs2n800rJLTPJK5OlRnQefzdFHQErhFmVMM3DrUpRU5vPSf3kIROZELSiH5LNa5JWaf25+4PIaiHkfoaGy8w89RU8x0lgIlSHnEEp1tRNlmZq6M37KfR6w2g2EUIiTe8Zzucy5+b7+egMLYech0pZWlS0ZvrLm8ojDSXExDlMMlr6LkTJJ+mnO3CGX5yG4c2zUZ89NJYCHbVBnDsINw3HzUmhSTzi9dPaFrU0qIdjFEwjkzLym0+nn9fOYiP0JSFNvNvci4pPlpzc30GZdITEKg0vEanD8WJReRnUevm9HxEWSGEoJcGltCSVTQryub4h1omEOcspsyfNRUt0UYegOQ64RKV/SUReeXSqn+fpCs+DbYJLaE8lnlQ7Qoj9Ho5hyrLR5PznmzzEGilNFNKvSXpCaFRDykRanM5tTaVqSaaPsIOm7nqM0o/eRnmklmeb6qaP5B9x4n0m6roeJsj/o5vAjWE9xiB9/51dRm9ZT3GMo+0Hd3gy77Rc8JKMiM09B+r9VmpSSU+oi/Wo1hPcYgff+dXUZvWU9xjKPtB3d4Mva+r60jWE9xiB9/wCdXUZGsJ7jGUfaDu7wRa0Mw6mY59biDXSfcf2jQQdhXENBB2FcQl4S7VxDQQ12rEaJi6PEaFm5PEaFu5MaFFwY0KdnMaEtnMaD8MY0H4YxKnspiSp/2qhVxbKsVWnZnMRVaNmcxFVt7M5iKrb2dzEVa2X+3cxEkWzKEr+GMS/4Yxoj2YeYrZhyEchxbdOdQTFAgkuJNKiz6SP/ADn1GRrCe4xlH2g7u6xo1hPcYyj7Qd3dY0awnuMZR9oO7usaNYT3GMo+0Hd3WNGsJ3jKPtB3d1jRrCN4yj7Qd3dY0awjeMo+0Hd3WNGso3jKPtB3d1jb1lG8ZR9oO7usbeso3jKPtB3d1ja1lG8ZR9oO7usbWtI3jKPtB3d1jZ1pG8ZR9oO7usbOtI3jKPtB3d1jY1pG8ZR9oO7usbGto3jKGvu7uscPraN4yhr7u7rHDa2jeMoa+7u6xw2uI7jGUNfd3dY4XXG94yhr7u7rHC643vEfr7u7rHC643vEdrzm7rHCa43vEdrzm7rHCa43vEdrzm7rHCa63vEbrzm7rHCa63vEZrrm7rHB663vEXrrm7rHB663vEXrjm7rHB663vEVrjm7rHB663vETra93gi1wkZDwrTMQtkiNqk+YVtDbOK1hbgVpCXArODuBWUHcisoK5FYwV0KwgboxPwF0Ynsn3ZidyfdmJ3J92YnMnXZicydYUJvJ1hQm8m2FCaybYUJnJllQmcmWVCYyXZVgJjJdleA0+S+xeA0+SuxeA02SuxeA02Sf68AiJjlZPcZNwkGTRKp+IZjGkGhDtPMr7Do3dRoPXWt4iNbXu8GVvaT27603rCe5Qgff+dXUaD11reH9aX3F4Mse0nd31pGsJ7jED7/AM6uo0Jrre8Pa0vd4Mtl/iTv9tpHLwbpuPG34u3pE8/T07gTZZ9BqzErzfJNXqpHImw8lOepHLHm5lJFz+mn4B11xl9tCGzdTnJL6RJekufvDaTc0jJvEf8A6F6Q654pFUtlnGnNSR5v97nMNmuCiqVoNdHkcyfWflfaCUSHlt5qVLWlHMinopCnm1NoMjSWc55pUnRSfQIhZZQgI3k0U/o6aKPv8swyiNUwsnmeULk2jRR0etR+sQy31w5sPrUmhLRkZUU+nO+z1BMRDtsHDK81s6c9SfXT0f20awnuMQPv/OrqNCa63vDusr3eDLvtJz+2ht2KQcMh3lCSlihXTT51O4csyiEXyectv9GocNX2rpEJyzzDyErM3UJZNJ+XTnc+d9vqCm4iKN1JMm03SjzSPvC/pVGSkrR0eak/3S+4PtRUXy3KIzCoazc0Q3lMnyKDR9MxylPRgDYTGOph1EnPKjnNRFzHT/IcgbpE55J5+ZzUkdPQHWvGYZXK0J8mGNNBen98Nusvw7q0oW2RJh8yikvtX6yIQhFEQ7qIdaaEFDmkzLoPnz/UYTDoiklBpPmoQfKZv92mn+2jWE9xiB9/51dRoTXW94c1le7wZe9oL+tI1hPcYgff+dXUaE1xveHNZXu8GXteV9aRrCe4xA+/86uo0Lrje8L1hW7wORGQIiIPxlxS3Uoe5LN9Xp5xpIzbi4hpIzbi4hzuxe3f8hpInbf+Q0j+2fmNI9tf5jSubX+Y0q9qGlVtQ0x7SNP+JMTH4kxMltJid/FKFYHtSxzZTXtixWa9sWKzc2xYrNzbFjnyi4f+8UOeNPalCa/FGJj8SY0xbQY89N+PL5NX3vCGhIqgnW86mg6elRn1Ghdcb3g/4693WOG1xveD/jq3eA0PRzZKSdBkVJifRZVgJ9FlWAn27J4Cfb7DFYN9hisG/iKwa+IrBoVgyKwZ7RWDPaKwZ7RWDHaKxYtCsWLQrFi0KxYtCsYe0Kxh7YrGHtisYe2Kxh7YrGHtisYa8FYw14QJKcoQ5mfR9IXUeG1xveP9dW7wZUU6y24r/qLpUqTT6hLM3ZCVYuyEqxdkJRi6ISkPdEJOHuiEnD3RCShrkhJQ1ykSMNcpEjDXKRIwtykSELcpEhC3KRIQtwkVfC3CRV8JcJFXwlwkVdCXCRV0JcJFXQlwkVdB7OnAVbB7OnAVbB7OnAVbB7OnAIcg4RiHX4wks5tskn0H6hBLdUa1Hn0mo6f3z6jQ+tt7x/rq3eDK/tN7d9aRrCe4xA+/86uo0Prbe8f6yt3gy17Te3fqc+KebZR61qJJAlsrS4g+hSTpIG5EuoZQX7y1UEEusqz21FSR+v8AXI1hPcYgff8AnV1GY1tG8f6yvBlz2m7+pgCYNBOeMcxuIzi81XopIJ8bijaZiHTU8uHQbZEdHMRdNFIgVZSiXodplx3PUrmUk/3KT9HN6Qnx+JiWUcmZw60UpNw6Topo9NFHMG1PORKXDhScUjxhebn/AOWmgQhvkRJOEcMlJeNRqMiLnMqA88anEJPJ5qZRT5VJfvH9phRxROnFcu39C0fk5h9GbvESUcvPdJ9X3F0cxfqUawnuMQPv/OrqMxrSN4L+MrwZd9oufWkawnuMQPv/ADq6jM60jeC/jK8GXtfX9aRrCe4xA+/86uozOtI3hP8AFX4MsIjmYg+Wi1KQaElvMaCMsJ4hoIywniEvGWE8QlorsTiJWJ/pxEpE/wBOIlIj4CTf7SEm/wBpCSftEJJ+0QknrRCSftEJSI+AlYrsTiJeMsp4hoIywniGgjLCeIaCMsJ4hLxllPEJWJ/pxEm/2kJJ+0QkXbZCr3LwgUKmEUz9IS843KfWIH3/AJ1dRmtaRvCf4q/A3/1FjluTpzfLMqKfuEj/APZeIkf/ALLxEiV6vESBXi8RIJtqxEgi0rESCLR4iQb7TFXtfEVe0KvZ7BVzFkVdD2RV0PYFXQ12Qq6GuyFXQ12Kuh7Aq6HsCroewKuYsirmLIq5iyKvY7BV7PYKvZ7AliFbJppPQkvR1Ga1lG8J/ir6xt6yjeEoiIllpfKq5luERiehr5InoW+SJ+Fvkifhb5In4W/SJ+Fv0isIS/SKwhL9IrCEv0isYS/SKxhL9IrGEv0isYPaE4isoPaE4isoPaE4isoPaE4isoPaE4isoPaE4isoPaE4isoPaE4isoPaE4isoPaE4isoPaE4isoPaE4isoPaE4isoPaE4isoPaE4isoPaE4isoPaE4isoPaE4isoPaE4isoPaE4isoPaE4isoPaE4isoPaE4isoPaE4isoPaE4isoPaE4isoPaE4isoPaE4isoPaE4isoPaE4isoPaE4isoPaE4isoPaE4isoPaE4isoPaE4isoPaE4isoPaE4isoPaE4isoPaE4isoPaE4isYPaE4isYS/SKxhL9IrGEv0isIS/SKwhL9IrCEv0ifhb9In4W/SJ+Fvkifhb5InoW+SJ6Gvkiehr5InYa+SJ2Gvkidhr4hOQ96QnIe9ITkPekJyHvSE3D3pCbYvSE2xekJti8ITTF4QmmLwhNM3hCZZvCEyzeEJlm8ITLN4QmGbwhMNWyEw1bIadq2Q07Vshp2rZDTt2yGmbtkNM3aIaZu0NM3aGlRaGlRaGlRaCMxaVfpCOg/vDrsdDE8tMQaSMzPooSJBFpWIkEWlYiQRaViJBFpWIkEWlYiQRaViJBFpWIkEWlYiQRaViJBFpWIkEWlYiQRaViJBFpWIkEWlYiQRaViJBFpWIkEWlYiQRaViJBFpWIkEWlYiQRaViJBFpWIkEWlYiQRaPESDfaYkG+0xIN9pir2+0xV7faYq9v4ir2viKva+Iq9r4ir2hV7Qq9kVez2Cr2RV7Qq9oVe18RV7XxFXt/EVe32mKvb7TEg32mJBvtMSCLR4iQRaViJBFpWIkEWlYiQRaViJBFpWIkEWlYiQRaViJBFpWIkEWlYiQRaViJBFpWIkEWlYiQRaViJBFpWIkEWlYiQRaViJBFpWIkEWlYiQRaViJBFpWIkEWlYiQRaViJBFpWIkEWlYiQRaViJBFpWIkEWjxEg32mKvb7TFXt/EVe18RV7Qq9nsFXsir2viKvb+IkG+0xIItHiJBFpWIkEWlYiQRaViJBFpWIkEWlYiQRaViJBFpWIkEWlYiQRaViJBFpWIkEWlYiQRaViGX4CGJlzlySZko+ig8A/rSvlT1jZ1pPyqCoV7ImUHVG6a6UMn9gqHKlwKhyrcCpMqXAqbKmzjnyTlUv9t+YqvKuzfmKsyps5YircqbOWIq7KdwWIq/KVwWIkMpXJYiRyjclxCRyjclxCSyhdJ4hJ5Quk8QlI+6TxCUj7pPEJWOu08Qlo67TxCWjrtPEJaNu08Ql427TxCXjbtPEJeNu08Ql427TxCXjbtPEJeNu08Ql427TxCXjbtPEJeNu08Ql427TxCXjbtPEJeNu08Ql427TxCXjbtPEJeNu08Ql427TxCXjbtPEJeNu08Ql427TxDQRl2niGgjLtPENBGXaeIaCMu08Q0EZdp4hoIy7TxDQRl2niGgjLtPENBGXaeIaCMu08Q0EZdp4hoIy7TxDQRl2niGgjLtPENBGXaeIaCMu08Q0EZdp4hoIy7TxDQRl2niGgjLtPENBGXaeIaCMu08Ql427TxCXjbtPEJeNu08Ql427TxCWjbtPEJaNu08Qlo67TxCVjrpPEJWOuixErHXRYiVjrosRKR90WIlI+6LESkfdFiJSPuixEpH3RYiUj7osRKR90WIlI+6LESkfdFiJSPuixEpH3RYiUj7osRKR90WIlI+6LESkfdFiJSPuixEpH3RYiUj7osRKR90WIlI+6LESkfdFiJSPuixEpH3RYiUj7osRKR90WIYg4NiJQ8b6TLlEEVPMZev7R//xAAsEAABAwMDBAEFAQADAQAAAAABABHwIVHBMWDxEEFh0XEgMIGRobFAUHDh/9oACAEBAAE/IQXDgG7kXKr7QSNGjAwYFKlSoUKJEiRIkSJEmzZs+fUqUPTtzx7PDhcOHGHCbn26aVL9+7NmxIkKFKlSoUYMMGjRIMGMGQIUufHnu2jK1OKpxZOEJxb77yxs42817BA2ZPWqp4Er4g1pgAgAKShCGFE1Zwe+tQO6rxp96IPkGOhKsFiztkgGPb7MCADC4jUUDwLbhQW/ki0Iy4ZP5HVAcuxQdv0gAkp5J2BwJgG0Wap6tdAtHZ+62s4cwg9hwumtiNw1fDs0VQDVYCpD1/aQ5aOl+EP2NnZGat5D+MgBBUGB+k0BydHKDiIyIuKOJHgUlgxJ35BYQEACc7JDti9aYFVgAuzJm8ZHPM8n1UdkPq80BQxkYYOg7oIIwnfVCyDJCDRDYnumsgBAWLM/6RIreg9yo1xmG+CNEwDBe71+uqDRizHYP5aoU1ufuvitE5hTu0A1Pwhk8AAFhuWDQLWEgP8AuU/CJ6tZd782q14oD/U6IrSdCd5qjPUcLHc1QTVVC0G0eiFgg0uTUPb7/r169evXr169evUplO8qD5U3yo1lSDKgGVPMqGZUyyo1lS7KmmVFMqKZUUyoplRTKimVFMqKZUUyoplRTKimVFMqKZUUyoplRTKimVFMqKZUUyoplRTKimVFMqKZUUyoplRTKimVFMqKZUUyoplRTKimVFMqKZUUyoplRTKimVFMqKZUUyhQkXJsfFAIsSigEPNUgMxAYsP5d0US1TfiNaqKZUUyoplRTKimVFMo5PG3FoIr9gkNE5HX06gmFNMKR4Unx9HFxHG/pwOXebLhT7U32XM+yluVO8/9aYKFChQoUKFChQoUKFChQoUKFChQoUKFChQoUKFChQoUKFChSw67RvKluVBcrkfZRPZRPZRT7XCn2uIPtc2XNlzZc2XNlzZc2XNlzZc2XNlzZc2XNlzZc2XNlzZc2XNlzZc2XNlzZc2RctKe1VDcjaAt1Rn9Mxb+7rg3pcX9KM9KU9KX9LlHpc79KDYUwwpnhTvCguFKcKbYUewphhQ3CheFJ8fUyIXEnriFGHAF1ObLKkGzrB0tjJy3UmpBb/LcNVNIW6r2ntuHX5oy3Xgpsv8AcfbpNdr44N8NNFDAQE4WZERCx7+n/wCTIBaD0FigLlHyq7FAy/cQ/wAjaR+aDt96wjRq9MCoGjKB53MDaQFqIcquuExYBqau5dwRiP7jgITucl1hNTk5p+NpTZpu3/gUBObMd8GC/wAeyclONQG+AifD1HTpwgRzX9RHdf0Oku4kj/a5d7XJehPAQA9pIOjEgOiofSgXlJeCdUVEveknQJERNqjRgB8iCbStpRK/B/8AK0qUjE23Jsytum7yzMV+jyfYUgwuN+lw/wBLhnpTguHC4/8AdIvaF0+ZE0Z5EuUrkS5SgIg9OSflOnDdOGFj/QdjqZq3TQC3+G4qqajLW6aLDcRvzIZC3To7f7joKvvqmY5LbugJjCCRDAXsmUKPgA6xQM6C0IOhZAidUD8B7qw/JHmNhREQyEBO2poD5qEWqcAFgv3IFEmQazDUohND243xuuxsg/BU6ZkwyfMa0CHmGpiPMfFF/cpHS5gmlXNJzRtCerMNEXYlBPa4gLwNSmoqGJFc6ke/dEMeAd/C8DpMnmH4dAgiczFl2aj5REcPu4F3xQoLNujQdlX5tsZbpirjozAMwmh3IpdFvR7G4OUAF3RpqdBu7AxwOodcZt4H4mTOIxCdyvZYjuj47FO1Kwt9Qmmoh4XEkkFS7E7PXYcEqNf0GQkgAmXJQywTJFcMRoboPKsJZbHUv8JMSB3UJpULh2LQ5lwBcSYFAEnMAhrr1OAAmpXhKvLBdncdALT04AFAlqBlUIzoETETTWjmRsqz1KgIA1NU7IRMPWgTZUAdGLHQoIQKGdoHfREjW6ciqA1KMyD2BCqJw9wdnIVlJDQAM7UNlTZistb6dNYWUK/D7Xw7QBM2m1Js2WetuT8Ls9nrdLv4bVh8DaOrr8/otO6Jr+is5ohO6RvKf0SO6KHtFXhId0NQunRIi6Quh3C/TbYHapTb43Xj9UUZH0gcUj3GHsFQCdLEbH5s9bckbPW3J2z1tyZs5bcePss5bceesk5bceGskxbceMskxbceIskxbceUskhbceCskhbceMskhbceRsshbcePsshbceTsshbceVsstbcefsstbceDsstbcnrLW3HkLLJW3HjrLAW3HlrLH23HirLN23HgrLI23HmLLI23HhbLDW3HkbLCW3JSkrbkzSFtyXoO3S/pmLf3dcG9Li/pRnpSnpS/pco9LnfpQbCmGFM8Kd4UFwpThTbCj2FMMKG4ULwpPj6mRC4k9cQow4AupzZZUg2dYOlscZP26aQW/wAtyVUyj3T23Fr81U/bppsv9x9ZuV2JsEHF+gDmhAReyTbO4fgUbC0CoPv0kJyt4LusJhQvws4GHL9ohFOCSSPsZBFLv4QVIJ1xM+hZBgBuGH5jvXQApg/E3CHUUVuEJAGEVFj8FFelfoxpNQgz+4bwMF5AqLlR2BxfZSrNs8/MlLW+ziB3TzOmCR97AgsKIkgUdhrBXVnQPTohByuChirDoonJuYBFZmB6g2BOw7EOG6ZABmdnJJ/KPOi0IgdQBIYoQnqMyNDwaKLvMcuZnVjuNHRqmkQvGa6k9EQrkhmgXI6FAeYYdYXcKG93QBAv2Xh202fNmKjrbkTmzbTFv+aMF/j2Plou3Q1Ab4CJ8PUdOnCBHNf1Ed1/Q6S7iSP9rl3tcl6E8BAD2kg6MSA6Kh9KBeUl4J1RUS96SdAkRE2qNGAHyIJtK2lEr8HY8EtbchiDt0HOcCMkfA+goY5RvCguFxPoonoop9Lnj6XNlyb7T+o1MYYQ4WuNrha4h0IPK9gFQ7HgLJrxp0CaFnSbtcqOYUDwoXhTXClOFE8KX4UxwpRhRTCl2FCsKZYUGwpZhRTCkGFCMKb4UHwpfj6eQJ16dmcM9ouC1ytEFg67GjrJF8dFILf4bh/5pCyaHTUs+yO3gv7wVo11Mn5C1OFBC/JQ9TE9A2rfmhbJpT06aeLj7OrA2R3g/wBEBbY+YIZEnO7uSmURu3phxU9DwGtpN8OrueqFVAjV7Gy8aI21zMgChY/kosDYmKCpwI4xnckjFhUdzQimnPi2ixfAH2hNmm7JJ+NxsmzQ9knfG49BTpmySXjoKilzAgUOh1/frHRW3j+hByfupLn6n8cf6eT9+iAd36Dfv349hGP0cC0vQbCbdLAaBQzedj7QtkivHQ8f6tY+oWH2Ey+I3dUdS3Kiey4U+/ofKPC+pBHDFxv7CIDnrr+bJ0VfbuJJ/pOxpOyRXjccZZHouf5ESpdlQrKmWVBsqWZU8yoBlSDKjGVN8qD5Uvz/ANVyBOvXr169evXr169evXr169evXr169evXr169evXr169egTKX5UHypvlRjKkGVAMqeZUMyoNlTLKhWVLsqKZUoyoRlTHKh+VL8qb5UTypTlR3KmuVB8qF5UTypPlT3KjmVIMqAZU4yo9lSbKjWfqYAU8C4yuEri64EuFIJkO0FBfqYtU1D5/5JQoUKFChQoUKFChQoUKFChQoUsGHU7yo3lRnKguVBMrmfZRPZRPZTfZRT7XCn2uIPtcm9riD7XCn2op9qZ7KJ7LmfZQTKkuVG8qN5/5roxYKFChQoUKFChQoUKFChQoUKFChQpYdRvKkuVzPsonsop9rkntcQfam+y5H2Ubz940UKFChQoUKFChQoYpTg1H7ncqGwo8EU1AW8Lnya1/ZTeqfmCPKGHice27esbp2ueBZOliA8KMJTp06dOnTp06dOnTJgwYQMECwYMGDBgwYMGDBgwYMGDBgwYMGMkQp8WTKiCXPfh48ePHjx48ePHjx48ePHjx48ePHjx2S8VmgUJP/2gAMAwEAAgADAAAAEIDGMBGOOOOIEMEIEEAIIAMEEMAMMAEMAEMAMAAAIIMIAENJAEIOOADPMAIMDDCAAAEEAMIIIAAAAAAAABCCCDDBDDDDDDDDDLDDCKAAAAADDDDDAACDAAAAAAAAAAAAAAAAAAAAAAAAAAAAAAAAAAEIAAAAAAAAAAAAAFAAAAAAAAAAAAAAAAAAAAAAAAAAAAAAAAAAAKIAAAAFECAAAAANAAAAAAAAAAAAAAAAAAAAAAAAAAAAAAAAAABIAAAAAAAAAAAAAGAAAAAAAAAAAAAAAAAAAAAAAAAAAAAAAAAABIEMMMEMIEIIAMEAAAAAAAAAAAAAAAAAAAAAAAAAAAAAAAAAAABCCAADAAAAACBDDAAAAAAAAAAAAAAAAAAAAAAAAAAAAAAAAAAAECCAAAAAAAAAAAAFAAAAAAAAAAAAAAAAAAAAAAAAAAAAAAAAAAFIINNDODCCJIFFAFAAAAAAAAAAAAAAAAAAAAAAAAAAAAAAAAAABCAAAAAAEAAAAAAHAAAAAAAAAAAAAAAAAAAAAAAAAAAAAAAAAABCMEEIIIEEIIEEEAAAAAAAAAAAAAAAAAAAAAAAAAAAAAAAAAAAEIAAAAAAAAAAAAAAAAAAAAAAAAAAAAAAAAAAAAAAAAAAAAAAAAFAAAAAAAAAAAAAAAAAAAAAAAAAAAAAAAAAAAAAAAAAAAAAAAAAFCAAAAAAAAAAAAAAAAAAAAAAAAAAAAAAAAAAAAAAAAAAAAAAAAAAAAAAAAAAAAAAAAAAAAAAAAAAAAAAAAAAAAAAAAAAAAAAAAAABKAAAAAAAAAAAAAAAAAAAAAAAAAAAAAAAAAAAAAAAAAAAAAAAABKAAAAAAAAAAAAAAAAAAAAAAAAAAAAAAAAAAAAAAAAAAAAAAAAAIAAAAAAAAAAAAAAAAAAAAAAAAAAAAAAAAAAAAAAAAAAAAAAAAFAAAAAAAAAAAAAAAAAAAAAAAAAAAAAAAAAAAAAAAAAAAAAAAAAEAAAAAAAAAAAAAAAAAAAAAAAAAAAAAAAAAAAAAAAAAAAAAAAAABCAAAAAAAAAAAAAAAAAAAAAAAAAAAAAAAAAAAAAAAAAAAAAAAAFIAAAAAAAAAAAAAAAAAAAAAAAAAAAAAAAAAAAAAAAAAAAAAAAAAIAAAAAAAAAAAAAAAAAAAAAAAAAAAAAAAAAAAAAAAAAAAAAAAAECAAAAAAAAAAAAAAAAAAAAAAAAAAAAAAAAAAAAAAAAAAAAAAAAFCAAAAAAAAAAAAAAAAAAAAAAAAAAAAAAAAAAAAAAAAAAAAAAAABKAAAAAMMMMMAAINAAAAAAAAAAAAAAAAAAAAAAAAAAAAAAAAAAACCAAACCCDAAAAAHAAAAAAAAAAAAAAAAAAAAAAAAAAAAAAAAAAECAAAAAIEAEEAAAFAAAAAAAAAAAAAAAAAAAAAAAAAAAAAAAAAAEABDDDBDCBCCADBIAAAAAAAAAAAAAAAAAAAAAAAAAAAAAAAAAAECBCADCCCCCBBBBCAAAAAAAAAAAAAAAAAAAAAAAAAAAAAAAAAAFKEIAMIEEEEEEEIPAAAAAAAAAAAAAAAAAAAAAAAAAAAAAAAAAAEAIAAAFEKCDAAAAFAAAAAAAAAAAAAAAAAAAAAAAAAAAAAAAAAAECAAAAAAAAAAAAAGAAAAAAAAAAAAAAAAAAAAAAAAAAAAAAAAAAFCHKDMLBJNHMOCFCAAAAAAAAAAAAAAAAAAAAAAAAAAAAAAAAAAALBBBCDCDAAAAAAAAAAAAAAAAAADDADCBBDBBBBBBBCCDCADCCDKAAAAAAAAAMMEAAMIIMIIMAAEMAAAAAAAAAAEAAMIIIEAAAAAAHIAIAAIPPAAAAAAAAIAPAPPPPPPPPPIIIHHHIHPPPPPPPPPPPIP/EABQRAQAAAAAAAAAAAAAAAAAAAKD/2gAIAQMBAT8QbZ//xAAUEQEAAAAAAAAAAAAAAAAAAACg/9oACAECAQE/EG2f/8QALRABAAECBAUEAgMBAAMAAAAAAREAITFBUfAQYGHB8SBxodGBkTBAsVCAsOH/2gAIAQEAAT8QGeSHqTP1LnlzGwoQJDj1eDBsyZMWLFixYsWLTpwyoV+rQ9OW+yCKVL3v90rXB8LppfqVqMnTixZMmzBg1704kQKDCYcyGPCiAwKA8Zx0hDmOAuo2rtbMMXDFJpgM5g9Da8CZWW6gvJdpNZQtKtP2g4cShuaCGsNQkoTJemIy1Ah1jksyo2MfMmAZQLwxoTWMgTEqUDQQjZhmQx6sahEOAQHb3aNyRY6GDdkIyqZbVfJoOqwLEF+6sfGgUb6RFqXXwWAqV7YLmrKhCE50rJLC6ALfFJJmV3J67UgerERCULKysZ0hIhvaBGh6nOiqXpPQ5zWv7UlcMc0Cf/bKgAQS6vJMUujUUsLSpbuFHZ8XSgYLYg/2qwepQKh0WvO4GIkSjwRJRgG6ydKHFjw+rUjozQUMLwYxezg9rUsHU/6g+c1dk33AYSqRwdBtEQ89mONYxWj10Mr1xoAioYcmLrulA5KBKRRJiB+6K5ltsvF3KsVTt33X/FQASCOCYLP1Y0HjoIL5qkUlAYEwvetD8ybDgDemtOyvOuYK2jGxSGJJe4ASESBMHJD58+fPnz58+fPn3RxF+4ZfePbx/wCjJehQoUKFChQoUKFChQoUKFChQoUKFChQoUKFChQoUKFChQoUKFChQoWEaUp6j9MVGSShOh/ZNStjjL0ZTpNEsKiAYT2CcH1hQoUKFCk6IPBekdSgbAJsgV2lX8+t9+f8aWTfPatwdq3t24HeEV4XW8/dee/dbC7/APWNcT+reYs3bt27du3bt27du3bt27du3bt27du3bt27du3bt27du3blAR12s9dK/wAvR5ejxfGNMtxd63F3rcXetxd63F3rcXetxd63F3rcXetxd63F3rcXetxd63F3rcXetxd63F3rcXetxd63F3rcXetxd63F3rcXetxd6KR/gWZiYWP1zPwG7Dh2rni7JkHzxn5fA+Enz7+rm/0Jvi5F8wqvfJe8+Qhxa0BFDhiKMoMHRcMlheTJbFck3Xh6IuZGc8xaW8yN4LwIlJLE38ZIcjpSIyMhrjRNooauSciq0J3JwC/MxOtG7mQ3YsCZZRFOHBIYpdSV40MDlUC8eRYffJ/GilgIBEzB61KaPLepRHEubRS15iaBAg/2lE9AOHHTrN6hQuuRCjl8aPflXm8GXYbfbmTm8ADWF1/jmTXAMmIlXt1G5zTfG3EdUxl+9do1NJ2fH9Gk1F874Tux+9dRwhcM9r9dYk+36Kw97tKfsvYe3oexH+Wyv5568WrcWLXii0Yivyog0MOmFJlbY2az/wCCOkC37z/5JumhcAtsnrEJfosvq8X9K252reHavCPqvHPqvF/qvC/qtz+vSSkr+e157Xk3pEkFxTAN9zRXqRIi4ogegPxyTDtiSyXMjOe1m+lDH65kQXsaW3gwQDoHYpCi3OmcCMlomQovSw5D14JGGcoo+LnLJCYgYYelL7YAauFyJdKXKo3UJiduSu2s0wuGRQcVZWDOSpU3O9SnA6xTP1IBsAGMEktL/AGnXCcxLpNC3cXysJbjpFTXHnNLPyGpAaw27jNrl21mmwLCw9Jfka9+6wABlPRoU8kd8AJTrXWB/wAgdg9ihYiVXwAwOqVO8k4Uyas2xipoEMVm7AN9x9qHuJERTDOAumJQBJPApQZksTpWAd0fZJbkyC9XW4XggclG3DOZcn61Mzm6CM1cs+NIdPK2IjchoVFVYsNhZMsmdDSb2C8E2EdKh9BDFk6aOsoj0ZO490YLAoAEsKe9WJKHy03yoCRngZVA7rAIkzWma2s3aiFlmrcUJt/A1SRK2hoY5MEHCP8Anw/DJgdWoLdlKLdNW7gFFtZa6AqZIsSlYxRTcCJQcKvW3WyoMDdyxUoagBBGdIH7qI82yBK6+lFdJOMuBZAyVkAAw3hm2VjUs4yVMVPjplCO5c7tMZ/fJnN5+0w+y3FZbKCokMspP4jt2bS6y2LXWgABAcrc3u5TAf23WIPpyThZQm4krUywaw8TzLKCkURDiGMIn9pfzW4X54hhBSM7DZsq1X2/ZTsKrB6Czw3HXw037pm/Wkc9KH3Pqk/p1C91OkgMy5tR+BKsluP/AKtImUBFGRTosXLBaxX86pArQbEexG8T1EpRLURt8TfE3iJ4FIIVAk8FdNmtozUR5F/a9OZMrZdOZIre9OO8cO1c8XZMg+eM/L4Hwk+ff1c3+hN8XIvmFV75L3nyEOLWgIocMRRlBg6LhksLyZLYrklXMeiLmRnPU6LeZG8F7/FJLE3rH9ohL3jbYjZoTs+rRBLnYMMNHJjmaiIUQV0FQWnjjkIso1ItSazIaEjKxj2aKDp8hTFFWrS4eDOyqxYzajZxVmN0SAuBpUmBE1yAtCfSpIqdkCC8VHSpgPQGBYPsxhS2zfmUsbdZjQnJupYAQVsPpnlEC92Ow++T1lXVGAsG7PFtQSj65WGBwDQ+YsDBOnBURdQj6qCgguErxh1pkB+CLKFs5FTXkDddhed2B0plyE/arBy+NX4AT8sXLpjeMSagxsDYhMzD+VxqAIJ38XNbagYfWj1bGs6RwtPYSX8wK6VbR83AIbVs3yc5vbBpxt8NvtzDze3rTjx2F1/jmHXA3TTjzxKvbqNzmm+NuI6pjL967RqaTs+P6NJqL53wndj966jhC4Z7X66xJ9v0Vh73aU/Zew9vQ9iP8tlfzz14tW4sWvFFoxFflRBoYdMKTK2xs1nkbc9OZJncdOOIv8ig6EZo9aiZyM4Z/h6PN8KFuLtW7u1eXfVee/VbF9VuP1W0fVeN14DXiFeDehg4/fPet7d6BvVuUwMeSiISH2KXIiA2v/a7MDlgtahcxIWSxW10asuvQnVvCREfK5KnMuyMSH6q8Q+MJpV2wck0dBL4j5idL3nY9OC9ofww4nMJ40lCgkVIC6iI18lAt5wKLqIZEYJIW5WgvRdj04Ygsv4QfZwSjySB/ShQBCgCRslsjrRenfXVSwjpmphS0iUTJyyxKizIcv8AqBpmJN2PbHuutTR0JJnlpvcUXUgEwjBQSW3alILM6U5T5vTU8Pvk5i5vVd114LT639vX8Dkfadm14E8aXsbnwZ4uXLnjhPzkt6BYTkbg71tDvxq6HohKmLSV4L0Ry5cixVQGD/ihDZfNJ0Wxe3BKlIasklg0cv05HzHfteCaAA+bHTnacL+m9fbYOKZ118vwDXn33W8/deI8Lt7dq3t2rYPbgd41XiFeN1tH3W4/dee/deffdbi71a6fsWtHVH55Hk79rzIW4Vo75TIPLMliNLo7cfuPQ/VvCRufPnz58+fPnz58+fPnz58+fPnz58+fPnz58+fPnz58+kOFv3CP7x7eMuNYyQr2Tz/wmRotusBDlDQ87fpXKdC8bG71urvW1u9bo71s7vW1+9bj71vXvW6+9bT70FQPGQ6KTlzfCeAmK/v7t27du3bt27du3bt27du3bligJMdN7Z3Trn+Xo8vwGPF+qNMgDI14urz9Hl/+KT9aEzbdWAizdu3bt27du3bt27du3bt27du3LAjq2hn+Xo8X/TlDLheZNLN27du3bt27du3MiToqEh8xQjmRxbGeyVHNK9Tf9KhSWtwX/P7qR/tKB/0CqWPLttmeOLCko2yA0ARvSbaRIkSJEiRIkSJEjpVKlULkCPXJkyZMmTJkyZMmTJkyZMmTBhww4EcJnwIIb07KXLly5cuXLly5cuXLly5cuXLly5cuU9fWTWZmMmv/2Q==;" parent="1" vertex="1">
          <mxGeometry x="290" y="135.5" width="210" height="157.5" as="geometry" />
        </mxCell>
        <mxCell id="jG0Ftq3SYFGcGHYT_TwJ-7" value="Начальный экран" style="rounded=0;whiteSpace=wrap;html=1;fillColor=none;strokeColor=none;fontStyle=1;fontSize=15;" parent="1" vertex="1">
          <mxGeometry x="315" y="94.25" width="160" height="50" as="geometry" />
        </mxCell>
        <mxCell id="jG0Ftq3SYFGcGHYT_TwJ-8" value="Представление меню и ввод данных" style="rounded=0;whiteSpace=wrap;html=1;fillColor=none;strokeColor=none;fontStyle=1;fontSize=15;" parent="1" vertex="1">
          <mxGeometry x="315" y="436" width="160" height="50" as="geometry" />
        </mxCell>
        <mxCell id="nz2u2A2zoCWVpAabtMoS-1" value="" style="endArrow=classic;html=1;rounded=0;startArrow=none;startFill=0;endFill=1;" edge="1" parent="1">
          <mxGeometry width="50" height="50" relative="1" as="geometry">
            <mxPoint x="530" y="600" as="sourcePoint" />
            <mxPoint x="530" y="544" as="targetPoint" />
            <Array as="points">
              <mxPoint x="560" y="600" />
              <mxPoint x="585" y="600" />
              <mxPoint x="585" y="544" />
            </Array>
          </mxGeometry>
        </mxCell>
        <mxCell id="nz2u2A2zoCWVpAabtMoS-2" value="Редактировать данные" style="edgeLabel;html=1;align=center;verticalAlign=middle;resizable=0;points=[];" vertex="1" connectable="0" parent="nz2u2A2zoCWVpAabtMoS-1">
          <mxGeometry x="0.1754" relative="1" as="geometry">
            <mxPoint as="offset" />
          </mxGeometry>
        </mxCell>
        <mxCell id="nz2u2A2zoCWVpAabtMoS-5" value="" style="endArrow=classic;html=1;rounded=0;startArrow=none;startFill=0;endFill=1;" edge="1" parent="1">
          <mxGeometry width="50" height="50" relative="1" as="geometry">
            <mxPoint x="530" y="666" as="sourcePoint" />
            <mxPoint x="530" y="610" as="targetPoint" />
            <Array as="points">
              <mxPoint x="560" y="666" />
              <mxPoint x="585" y="666" />
              <mxPoint x="585" y="610" />
            </Array>
          </mxGeometry>
        </mxCell>
        <mxCell id="nz2u2A2zoCWVpAabtMoS-6" value="Удалить данные" style="edgeLabel;html=1;align=center;verticalAlign=middle;resizable=0;points=[];" vertex="1" connectable="0" parent="nz2u2A2zoCWVpAabtMoS-5">
          <mxGeometry x="0.1754" relative="1" as="geometry">
            <mxPoint as="offset" />
          </mxGeometry>
        </mxCell>
      </root>
    </mxGraphModel>
  </diagram>
</mxfile>
